<svg width="32" height="33" viewBox="0 0 32 33" fill="none" xmlns="http://www.w3.org/2000/svg">
<path d="M3.10683 31.8326C2.3905 31.8326 1.77694 31.5772 1.26617 31.0664C0.755389 30.5557 0.5 29.9421 0.5 29.2258V2.77285C0.5 2.05652 0.755389 1.44296 1.26617 0.932182C1.77694 0.421404 2.3905 0.166016 3.10683 0.166016H16.75L25.4999 8.91593V20.3583H23.406V10.1659H15.5V2.25997H3.10683C2.97861 2.25997 2.86108 2.3134 2.75425 2.42027C2.64739 2.5271 2.59396 2.64463 2.59396 2.77285V29.2258C2.59396 29.354 2.64739 29.4715 2.75425 29.5784C2.86108 29.6852 2.97861 29.7386 3.10683 29.7386H19.0256V31.8326H3.10683ZM29.5833 32.4159L24.0469 26.8796V31.9299H21.953V23.2857H30.5972V25.3796H25.5052L31.0416 30.916L29.5833 32.4159Z" fill="#5E596E"/>
</svg>
