<svg width="40" height="40" viewBox="0 0 40 40" fill="none" xmlns="http://www.w3.org/2000/svg">
<rect width="40" height="40" rx="20" fill="#5268A0"/>
<mask id="mask0_2646_48766" style="mask-type:alpha" maskUnits="userSpaceOnUse" x="8" y="8" width="24" height="24">
<rect x="8" y="8" width="24" height="24" fill="#D9D9D9"/>
</mask>
<g mask="url(#mask0_2646_48766)">
<path d="M14.3077 27.4992C13.8026 27.4992 13.375 27.3242 13.025 26.9742C12.675 26.6242 12.5 26.1966 12.5 25.6915V22.9992H14V25.6915C14 25.7684 14.032 25.839 14.0961 25.9031C14.1602 25.9672 14.2308 25.9992 14.3077 25.9992H25.6922C25.7692 25.9992 25.8397 25.9672 25.9038 25.9031C25.9679 25.839 26 25.7684 26 25.6915V22.9992H27.5V25.6915C27.5 26.1966 27.325 26.6242 26.975 26.9742C26.625 27.3242 26.1974 27.4992 25.6922 27.4992H14.3077ZM19.25 23.6146V15.2146L16.7846 17.6799L15.7308 16.5953L20 12.3262L24.2692 16.5953L23.2153 17.6799L20.7499 15.2146V23.6146H19.25Z" fill="white"/>
</g>
</svg>
