<svg width="50" height="50" viewBox="0 0 50 50" fill="none" xmlns="http://www.w3.org/2000/svg">
<g clip-path="url(#clip0_2025_24799)">
<path d="M26.649 0C27.5733 0.1027 28.4976 0.205393 29.4219 0.410792C29.6273 0.410792 29.73 0.513498 29.9354 0.513498C30.5516 0.616197 30.8597 1.12969 30.757 1.64318C30.6543 2.15668 30.1408 2.46479 29.5246 2.36209C27.9841 2.15669 26.3409 1.84859 24.8004 1.95128C15.8656 2.25938 8.98469 6.16197 4.77401 14.0698C0.255227 22.4912 1.07682 30.8099 6.51989 38.7177C6.62259 38.8204 6.7253 38.9231 6.828 39.1285C9.19008 38.2042 11.1414 38.8204 12.2711 40.669C13.2981 42.3122 12.99 44.4689 11.5522 45.804C10.1144 47.1391 7.95769 47.2418 6.3145 46.0094C4.56861 44.6743 4.26051 42.723 5.3902 40.4636C4.15781 38.9231 3.13081 37.2799 2.30922 35.4313C-4.16085 21.5669 3.54161 5.03227 18.2276 0.92429C19.7681 0.513491 21.4113 0.308089 22.9518 0.10269C23.0545 0.10269 23.2599 0 23.3626 0C24.4923 0 25.622 0 26.649 0ZM8.88199 40.5663C7.75229 40.5663 6.7253 41.4906 6.7253 42.723C6.7253 43.8527 7.64959 44.8797 8.88199 44.8797C10.1144 44.8797 11.0387 43.9554 11.0387 42.723C11.0387 41.4906 10.0117 40.5663 8.88199 40.5663Z" fill="#D1DAEE"/>
<path d="M49.9627 26.5988C49.86 27.5231 49.7573 28.4474 49.5519 29.3717C47.9088 39.0255 40.4117 47.036 30.8606 49.2954C27.3688 50.117 23.8771 50.2197 20.3853 49.6035C20.2826 49.6035 20.2826 49.6035 20.1799 49.6035C19.461 49.3981 19.1529 48.9873 19.2556 48.4738C19.3583 47.8576 19.8718 47.5495 20.5907 47.7549C25.8284 48.6792 30.8606 48.063 35.5848 45.4956C42.1576 42.0038 46.1629 36.5607 47.498 29.1663C48.7304 22.6963 47.1899 16.7397 43.2873 11.2966C43.1846 11.1939 43.0819 11.0912 43.0819 10.9885C42.363 11.0912 41.6441 11.2966 41.0279 11.3993C39.1793 11.3993 37.6388 10.1669 37.1253 8.42102C36.6118 6.67512 37.4334 4.82654 38.9739 3.90224C40.5144 2.97795 42.5684 3.08065 43.9035 4.41574C45.2386 5.64813 45.6494 7.59942 44.8278 9.24262C44.6224 9.65341 44.7251 9.85881 44.9305 10.1669C47.8061 14.0695 49.4492 18.3829 49.86 23.3125C49.86 23.4151 49.9627 23.6205 49.9627 23.7232C49.9627 24.5448 49.9627 25.5718 49.9627 26.5988ZM41.2333 9.44801C42.363 9.44801 43.39 8.52371 43.39 7.29131C43.39 6.05892 42.4657 5.13463 41.2333 5.13463C40.1036 5.13463 39.0766 6.05892 39.0766 7.29131C39.0766 8.42101 40.0009 9.44801 41.2333 9.44801Z" fill="#D1DAEE"/>
<path d="M34.9679 2.77309C34.9679 3.28659 34.5571 3.80008 33.9409 3.69738C33.4274 3.69738 33.0166 3.18388 33.0166 2.67038C33.0166 2.15689 33.4274 1.74609 34.0436 1.74609C34.5571 1.84879 34.9679 2.25959 34.9679 2.77309Z" fill="#D1DAEE"/>
<path d="M17.0976 47.2422C17.0976 47.7557 16.6868 48.1665 16.1733 48.1665C15.6598 48.1665 15.249 47.7557 15.249 47.2422C15.249 46.7287 15.7625 46.2152 16.276 46.3179C16.6868 46.3179 17.0976 46.7287 17.0976 47.2422Z" fill="#D1DAEE"/>
<mask id="mask0_2025_24799" style="mask-type:alpha" maskUnits="userSpaceOnUse" x="10" y="10" width="30" height="30">
<rect x="10" y="10" width="30" height="30" fill="#D9D9D9"/>
</mask>
<g mask="url(#mask0_2025_24799)">
<path d="M23.6875 26.2187L29.4423 20.4639L28.1058 19.1274L23.6875 23.5457L21.9375 21.7957L20.601 23.1322L23.6875 26.2187ZM25 34.7524C27.5737 32.4511 29.5192 30.2552 30.8366 28.1647C32.1539 26.0741 32.8125 24.2692 32.8125 22.75C32.8125 20.383 32.0585 18.4475 30.5505 16.9435C29.0425 15.4394 27.1923 14.6874 25 14.6874C22.8077 14.6874 20.9575 15.4394 19.4495 16.9435C17.9415 18.4475 17.1875 20.383 17.1875 22.75C17.1875 24.2692 17.8461 26.0741 19.1634 28.1647C20.4807 30.2552 22.4263 32.4511 25 34.7524ZM25 37.2596C21.742 34.4294 19.3129 31.8024 17.7127 29.3786C16.1126 26.9547 15.3125 24.7452 15.3125 22.75C15.3125 19.7211 16.2877 17.3077 18.238 15.5096C20.1883 13.7115 22.4423 12.8125 25 12.8125C27.5577 12.8125 29.8117 13.7115 31.762 15.5096C33.7123 17.3077 34.6875 19.7211 34.6875 22.75C34.6875 24.7452 33.8874 26.9547 32.2873 29.3786C30.6871 31.8024 28.258 34.4294 25 37.2596Z" fill="#5268A0"/>
</g>
</g>
<defs>
<clipPath id="clip0_2025_24799">
<rect width="50" height="50" fill="white"/>
</clipPath>
</defs>
</svg>
