<svg width="50" height="50" viewBox="0 0 50 50" fill="none" xmlns="http://www.w3.org/2000/svg">
<path d="M26.649 0C27.5733 0.1027 28.4976 0.205393 29.4219 0.410792C29.6273 0.410792 29.73 0.513498 29.9354 0.513498C30.5516 0.616197 30.8597 1.12969 30.757 1.64318C30.6543 2.15668 30.1408 2.46479 29.5246 2.36209C27.9841 2.15669 26.3409 1.84859 24.8004 1.95128C15.8656 2.25938 8.98469 6.16197 4.77401 14.0698C0.255227 22.4912 1.07682 30.8099 6.5199 38.7177C6.62259 38.8204 6.7253 38.9231 6.828 39.1285C9.19009 38.2042 11.1414 38.8204 12.2711 40.669C13.2981 42.3122 12.99 44.4689 11.5522 45.804C10.1144 47.1391 7.95769 47.2418 6.3145 46.0094C4.56861 44.6743 4.26051 42.723 5.3902 40.4636C4.15781 38.9231 3.13081 37.2799 2.30922 35.4313C-4.16085 21.5669 3.54161 5.03227 18.2276 0.92429C19.7681 0.513491 21.4113 0.308089 22.9518 0.10269C23.0545 0.10269 23.2599 0 23.3626 0C24.4923 0 25.622 0 26.649 0ZM8.88199 40.5663C7.75229 40.5663 6.7253 41.4906 6.7253 42.723C6.7253 43.8527 7.64959 44.8797 8.88199 44.8797C10.1144 44.8797 11.0387 43.9554 11.0387 42.723C11.0387 41.4906 10.0117 40.5663 8.88199 40.5663Z" fill="#6682C7"/>
<path d="M49.9627 26.5988C49.86 27.5231 49.7573 28.4474 49.5519 29.3717C47.9088 39.0255 40.4117 47.036 30.8606 49.2954C27.3688 50.117 23.8771 50.2197 20.3853 49.6035C20.2826 49.6035 20.2826 49.6035 20.1799 49.6035C19.461 49.3981 19.1529 48.9873 19.2556 48.4738C19.3583 47.8576 19.8718 47.5495 20.5907 47.7549C25.8284 48.6792 30.8606 48.063 35.5848 45.4956C42.1576 42.0038 46.1629 36.5607 47.498 29.1663C48.7304 22.6962 47.1899 16.7397 43.2873 11.2966C43.1846 11.1939 43.0819 11.0912 43.0819 10.9885C42.363 11.0912 41.6441 11.2966 41.0279 11.3993C39.1793 11.3993 37.6388 10.1669 37.1253 8.42102C36.6118 6.67512 37.4334 4.82654 38.9739 3.90224C40.5144 2.97795 42.5684 3.08065 43.9035 4.41574C45.2386 5.64813 45.6494 7.59942 44.8278 9.24261C44.6224 9.65341 44.7251 9.85881 44.9305 10.1669C47.8061 14.0695 49.4492 18.3829 49.86 23.3124C49.86 23.4151 49.9627 23.6205 49.9627 23.7232C49.9627 24.5448 49.9627 25.5718 49.9627 26.5988ZM41.2333 9.44801C42.363 9.44801 43.39 8.52371 43.39 7.29131C43.39 6.05892 42.4657 5.13463 41.2333 5.13463C40.1036 5.13463 39.0766 6.05892 39.0766 7.29131C39.0766 8.42101 40.0009 9.44801 41.2333 9.44801Z" fill="#6682C7"/>
<path d="M34.9679 2.77309C34.9679 3.28659 34.5571 3.80008 33.9409 3.69738C33.4274 3.69738 33.0166 3.18388 33.0166 2.67038C33.0166 2.15689 33.4274 1.74609 34.0436 1.74609C34.5571 1.84879 34.9679 2.25959 34.9679 2.77309Z" fill="#6682C7"/>
<path d="M17.0976 47.2417C17.0976 47.7552 16.6868 48.166 16.1733 48.166C15.6598 48.166 15.249 47.7552 15.249 47.2417C15.249 46.7282 15.7625 46.2147 16.276 46.3174C16.6868 46.3174 17.0976 46.7282 17.0976 47.2417Z" fill="#6682C7"/>
<mask id="mask0_302_13845" style="mask-type:alpha" maskUnits="userSpaceOnUse" x="13" y="13" width="24" height="24">
<rect x="13" y="13" width="24" height="24" fill="#D9D9D9"/>
</mask>
<g mask="url(#mask0_302_13845)">
<path d="M32.95 34C30.8 34 28.7043 33.5207 26.663 32.562C24.621 31.604 22.8127 30.3373 21.238 28.762C19.6627 27.1873 18.396 25.379 17.438 23.337C16.4793 21.2957 16 19.2 16 17.05C16 16.75 16.1 16.5 16.3 16.3C16.5 16.1 16.75 16 17.05 16H21.1C21.3333 16 21.5417 16.075 21.725 16.225C21.9083 16.375 22.0167 16.5667 22.05 16.8L22.7 20.3C22.7333 20.5333 22.7293 20.7457 22.688 20.937C22.646 21.129 22.55 21.3 22.4 21.45L19.975 23.9C20.675 25.1 21.5543 26.225 22.613 27.275C23.671 28.325 24.8333 29.2333 26.1 30L28.45 27.65C28.6 27.5 28.796 27.3873 29.038 27.312C29.2793 27.2373 29.5167 27.2167 29.75 27.25L33.2 27.95C33.4333 28 33.625 28.1123 33.775 28.287C33.925 28.4623 34 28.6667 34 28.9V32.95C34 33.25 33.9 33.5 33.7 33.7C33.5 33.9 33.25 34 32.95 34ZM19.025 22L20.675 20.35L20.25 18H18.025C18.1083 18.6833 18.225 19.3583 18.375 20.025C18.525 20.6917 18.7417 21.35 19.025 22ZM27.975 30.95C28.625 31.2333 29.2877 31.4583 29.963 31.625C30.6377 31.7917 31.3167 31.9 32 31.95V29.75L29.65 29.275L27.975 30.95Z" fill="#6682C7"/>
</g>
</svg>
