<svg width="50" height="50" viewBox="0 0 50 50" fill="none" xmlns="http://www.w3.org/2000/svg">
<path d="M26.649 0C27.5733 0.1027 28.4976 0.205393 29.4219 0.410792C29.6273 0.410792 29.73 0.513498 29.9354 0.513498C30.5516 0.616197 30.8597 1.12969 30.757 1.64318C30.6543 2.15668 30.1408 2.46479 29.5246 2.36209C27.9841 2.15669 26.3409 1.84859 24.8004 1.95128C15.8656 2.25938 8.98469 6.16197 4.77401 14.0698C0.255227 22.4912 1.07682 30.8099 6.5199 38.7177C6.62259 38.8204 6.7253 38.9231 6.828 39.1285C9.19009 38.2042 11.1414 38.8204 12.2711 40.669C13.2981 42.3122 12.99 44.4689 11.5522 45.804C10.1144 47.1391 7.95769 47.2418 6.3145 46.0094C4.56861 44.6743 4.26051 42.723 5.3902 40.4636C4.15781 38.9231 3.13081 37.2799 2.30922 35.4313C-4.16085 21.5669 3.54161 5.03227 18.2276 0.92429C19.7681 0.513491 21.4113 0.308089 22.9518 0.10269C23.0545 0.10269 23.2599 0 23.3626 0C24.4923 0 25.622 0 26.649 0ZM8.88199 40.5663C7.75229 40.5663 6.7253 41.4906 6.7253 42.723C6.7253 43.8527 7.64959 44.8797 8.88199 44.8797C10.1144 44.8797 11.0387 43.9554 11.0387 42.723C11.0387 41.4906 10.0117 40.5663 8.88199 40.5663Z" fill="#729651"/>
<path d="M49.9627 26.5988C49.86 27.5231 49.7573 28.4474 49.5519 29.3717C47.9088 39.0255 40.4117 47.036 30.8606 49.2954C27.3688 50.117 23.8771 50.2197 20.3853 49.6035C20.2826 49.6035 20.2826 49.6035 20.1799 49.6035C19.461 49.3981 19.1529 48.9873 19.2556 48.4738C19.3583 47.8576 19.8718 47.5495 20.5907 47.7549C25.8284 48.6792 30.8606 48.063 35.5848 45.4956C42.1576 42.0038 46.1629 36.5607 47.498 29.1663C48.7304 22.6962 47.1899 16.7397 43.2873 11.2966C43.1846 11.1939 43.0819 11.0912 43.0819 10.9885C42.363 11.0912 41.6441 11.2966 41.0279 11.3993C39.1793 11.3993 37.6388 10.1669 37.1253 8.42102C36.6118 6.67512 37.4334 4.82654 38.9739 3.90224C40.5144 2.97795 42.5684 3.08065 43.9035 4.41574C45.2386 5.64813 45.6494 7.59942 44.8278 9.24261C44.6224 9.65341 44.7251 9.85881 44.9305 10.1669C47.8061 14.0695 49.4492 18.3829 49.86 23.3124C49.86 23.4151 49.9627 23.6205 49.9627 23.7232C49.9627 24.5448 49.9627 25.5718 49.9627 26.5988ZM41.2333 9.44801C42.363 9.44801 43.39 8.52371 43.39 7.29131C43.39 6.05892 42.4657 5.13463 41.2333 5.13463C40.1036 5.13463 39.0766 6.05892 39.0766 7.29131C39.0766 8.42101 40.0009 9.44801 41.2333 9.44801Z" fill="#729651"/>
<path d="M34.9679 2.77309C34.9679 3.28659 34.5571 3.80008 33.9409 3.69738C33.4274 3.69738 33.0166 3.18388 33.0166 2.67038C33.0166 2.15689 33.4274 1.74609 34.0436 1.74609C34.5571 1.84879 34.9679 2.25959 34.9679 2.77309Z" fill="#729651"/>
<path d="M17.0976 47.2417C17.0976 47.7552 16.6868 48.166 16.1733 48.166C15.6598 48.166 15.249 47.7552 15.249 47.2417C15.249 46.7282 15.7625 46.2147 16.276 46.3174C16.6868 46.3174 17.0976 46.7282 17.0976 47.2417Z" fill="#729651"/>
<mask id="mask0_302_13836" style="mask-type:alpha" maskUnits="userSpaceOnUse" x="13" y="13" width="24" height="24">
<rect x="13" y="13" width="24" height="24" fill="#D9D9D9"/>
</mask>
<g mask="url(#mask0_302_13836)">
<path d="M25 35C23.6333 35 22.3417 34.7373 21.125 34.212C19.9083 33.6873 18.846 32.9707 17.938 32.062C17.0293 31.154 16.3127 30.0917 15.788 28.875C15.2627 27.6583 15 26.3667 15 25C15 23.6167 15.2627 22.321 15.788 21.113C16.3127 19.9043 17.0293 18.846 17.938 17.938C18.846 17.0293 19.9083 16.3123 21.125 15.787C22.3417 15.2623 23.6333 15 25 15C26.3833 15 27.679 15.2623 28.887 15.787C30.0957 16.3123 31.154 17.0293 32.062 17.938C32.9707 18.846 33.6873 19.9043 34.212 21.113C34.7373 22.321 35 23.6167 35 25V26.45C35 27.4333 34.6627 28.2707 33.988 28.962C33.3127 29.654 32.4833 30 31.5 30C30.9 30 30.3417 29.8667 29.825 29.6C29.3083 29.3333 28.8833 28.9833 28.55 28.55C28.1 29 27.571 29.3543 26.963 29.613C26.3543 29.871 25.7 30 25 30C23.6167 30 22.4377 29.5123 21.463 28.537C20.4877 27.5623 20 26.3833 20 25C20 23.6167 20.4877 22.4373 21.463 21.462C22.4377 20.4873 23.6167 20 25 20C26.3833 20 27.5627 20.4873 28.538 21.462C29.5127 22.4373 30 23.6167 30 25V26.45C30 26.9333 30.15 27.3123 30.45 27.587C30.75 27.8623 31.1 28 31.5 28C31.9 28 32.25 27.8623 32.55 27.587C32.85 27.3123 33 26.9333 33 26.45V25C33 22.8167 32.2123 20.9373 30.637 19.362C29.0623 17.7873 27.1833 17 25 17C22.8167 17 20.9373 17.7873 19.362 19.362C17.7873 20.9373 17 22.8167 17 25C17 27.1833 17.7873 29.0623 19.362 30.637C20.9373 32.2123 22.8167 33 25 33H30V35H25ZM25 28C25.8333 28 26.5417 27.7083 27.125 27.125C27.7083 26.5417 28 25.8333 28 25C28 24.1667 27.7083 23.4583 27.125 22.875C26.5417 22.2917 25.8333 22 25 22C24.1667 22 23.4583 22.2917 22.875 22.875C22.2917 23.4583 22 24.1667 22 25C22 25.8333 22.2917 26.5417 22.875 27.125C23.4583 27.7083 24.1667 28 25 28Z" fill="#729651"/>
</g>
</svg>
