<svg xmlns="http://www.w3.org/2000/svg" width="24" height="20" viewBox="0 0 24 20" fill="none">
<path d="M2.38463 19.3749C1.75321 19.3749 1.21875 19.1562 0.78125 18.7187C0.34375 18.2812 0.125 17.7467 0.125 17.1153V2.88462C0.125 2.25321 0.34375 1.71875 0.78125 1.28125C1.21875 0.84375 1.75321 0.625 2.38463 0.625H21.6153C22.2467 0.625 22.7812 0.84375 23.2187 1.28125C23.6562 1.71875 23.8749 2.25321 23.8749 2.88462V17.1153C23.8749 17.7467 23.6562 18.2812 23.2187 18.7187C22.7812 19.1562 22.2467 19.3749 21.6153 19.3749H2.38463ZM1.99997 9.49512H22V5.50481H1.99997V9.49512Z" fill="#5268a0"/>
</svg>