<svg width="24" height="20" viewBox="0 0 24 20" fill="none" xmlns="http://www.w3.org/2000/svg">
<path d="M23.8749 2.88462V17.1153C23.8749 17.7467 23.6562 18.2812 23.2187 18.7187C22.7812 19.1562 22.2467 19.3749 21.6153 19.3749H2.38463C1.75321 19.3749 1.21875 19.1562 0.78125 18.7187C0.34375 18.2812 0.125 17.7467 0.125 17.1153V2.88462C0.125 2.25321 0.34375 1.71875 0.78125 1.28125C1.21875 0.84375 1.75321 0.625 2.38463 0.625H21.6153C22.2467 0.625 22.7812 0.84375 23.2187 1.28125C23.6562 1.71875 23.8749 2.25321 23.8749 2.88462ZM1.99997 5.50481H22V2.88462C22 2.78846 21.9599 2.7003 21.8798 2.62016C21.7996 2.54003 21.7115 2.49997 21.6153 2.49997H2.38463C2.28846 2.49997 2.2003 2.54003 2.12016 2.62016C2.04003 2.7003 1.99997 2.78846 1.99997 2.88462V5.50481ZM1.99997 9.49512V17.1153C1.99997 17.2115 2.04003 17.2996 2.12016 17.3798C2.2003 17.4599 2.28846 17.5 2.38463 17.5H21.6153C21.7115 17.5 21.7996 17.4599 21.8798 17.3798C21.9599 17.2996 22 17.2115 22 17.1153V9.49512H1.99997Z" fill="#5268A0"/>
</svg>
