<svg width="16" height="18" viewBox="0 0 16 18" fill="none" xmlns="http://www.w3.org/2000/svg">
<path d="M3.30773 17.4998C2.80901 17.4998 2.38306 17.3232 2.02986 16.97C1.67664 16.6168 1.50003 16.1908 1.50003 15.6921V2.99981H0.500031V1.49983H5.00001V0.615234H11V1.49983H15.5V2.99981H14.5V15.6921C14.5 16.1972 14.325 16.6248 13.975 16.9748C13.625 17.3248 13.1974 17.4998 12.6923 17.4998H3.30773ZM13 2.99981H3.00001V15.6921C3.00001 15.7818 3.02886 15.8556 3.08656 15.9133C3.14426 15.971 3.21798 15.9998 3.30773 15.9998H12.6923C12.7692 15.9998 12.8397 15.9678 12.9039 15.9037C12.968 15.8395 13 15.769 13 15.6921V2.99981ZM5.40388 13.9998H6.90386V4.99981H5.40388V13.9998ZM9.09616 13.9998H10.5961V4.99981H9.09616V13.9998Z" fill="#5268A0"/>
</svg>
