<svg width="18" height="16" viewBox="0 0 18 16" fill="none" xmlns="http://www.w3.org/2000/svg">
<path d="M2.61532 13.5V14.75C2.61532 14.9625 2.54345 15.1406 2.3997 15.2843C2.25597 15.4281 2.07785 15.5 1.86535 15.5H1.25C1.0375 15.5 0.859375 15.4281 0.715625 15.2843C0.571875 15.1406 0.5 14.9625 0.5 14.75V7.0769L2.54233 1.25C2.61668 1.02052 2.75321 0.83815 2.95193 0.7029C3.15064 0.567633 3.37179 0.5 3.61538 0.5H14.4231C14.6571 0.5 14.8695 0.56875 15.0604 0.70625C15.2513 0.84375 15.3837 1.025 15.4576 1.25L17.5 7.0769V14.75C17.5 14.9625 17.4281 15.1406 17.2843 15.2843C17.1406 15.4281 16.9625 15.5 16.75 15.5H16.1346C15.9221 15.5 15.744 15.4281 15.6002 15.2843C15.4565 15.1406 15.3846 14.9625 15.3846 14.75V13.5H2.61532ZM2.60765 5.57695H15.3923L14.1308 1.99997H3.8692L2.60765 5.57695ZM4.46378 10.8461C4.82764 10.8461 5.13618 10.7188 5.38938 10.464C5.64259 10.2093 5.7692 9.90004 5.7692 9.53617C5.7692 9.17231 5.64184 8.86378 5.38713 8.61058C5.13241 8.35736 4.82312 8.23075 4.45925 8.23075C4.09538 8.23075 3.78684 8.35811 3.53363 8.61282C3.28043 8.86754 3.15383 9.17683 3.15383 9.5407C3.15383 9.90457 3.28118 10.2131 3.5359 10.4663C3.79062 10.7195 4.09991 10.8461 4.46378 10.8461ZM13.5407 10.8461C13.9046 10.8461 14.2131 10.7188 14.4663 10.464C14.7195 10.2093 14.8461 9.90004 14.8461 9.53617C14.8461 9.17231 14.7188 8.86378 14.4641 8.61058C14.2093 8.35736 13.9 8.23075 13.5362 8.23075C13.1723 8.23075 12.8638 8.35811 12.6106 8.61282C12.3574 8.86754 12.2308 9.17683 12.2308 9.5407C12.2308 9.90457 12.3581 10.2131 12.6128 10.4663C12.8675 10.7195 13.1768 10.8461 13.5407 10.8461Z" fill="#5268A0"/>
</svg>
