<svg width="18" height="16" viewBox="0 0 18 16" fill="none" xmlns="http://www.w3.org/2000/svg">
<path d="M2.61536 13.5V14.75C2.61536 14.9625 2.54348 15.1406 2.39973 15.2843C2.256 15.4281 2.07788 15.5 1.86538 15.5H1.25003C1.03753 15.5 0.859406 15.4281 0.715656 15.2843C0.571906 15.1406 0.500031 14.9625 0.500031 14.75V7.0769L2.54236 1.25C2.61671 1.02052 2.75324 0.83815 2.95196 0.7029C3.15067 0.567633 3.37182 0.5 3.61541 0.5H14.4231C14.6571 0.5 14.8696 0.56875 15.0605 0.70625C15.2514 0.84375 15.3838 1.025 15.4577 1.25L17.5 7.0769V14.75C17.5 14.9625 17.4281 15.1406 17.2844 15.2843C17.1406 15.4281 16.9625 15.5 16.75 15.5H16.1346C15.9221 15.5 15.744 15.4281 15.6003 15.2843C15.4565 15.1406 15.3847 14.9625 15.3847 14.75V13.5H2.61536ZM2.60768 5.57695H15.3923L14.1308 1.99997H3.86923L2.60768 5.57695ZM4.46381 10.8461C4.82767 10.8461 5.13621 10.7188 5.38941 10.464C5.64262 10.2093 5.76923 9.90004 5.76923 9.53617C5.76923 9.17231 5.64187 8.86378 5.38716 8.61058C5.13244 8.35736 4.82315 8.23075 4.45928 8.23075C4.09541 8.23075 3.78687 8.35811 3.53366 8.61282C3.28046 8.86754 3.15386 9.17683 3.15386 9.5407C3.15386 9.90457 3.28121 10.2131 3.53593 10.4663C3.79065 10.7195 4.09994 10.8461 4.46381 10.8461ZM13.5407 10.8461C13.9046 10.8461 14.2131 10.7188 14.4664 10.464C14.7196 10.2093 14.8462 9.90004 14.8462 9.53617C14.8462 9.17231 14.7188 8.86378 14.4641 8.61058C14.2094 8.35736 13.9001 8.23075 13.5362 8.23075C13.1723 8.23075 12.8638 8.35811 12.6106 8.61282C12.3574 8.86754 12.2308 9.17683 12.2308 9.5407C12.2308 9.90457 12.3581 10.2131 12.6129 10.4663C12.8676 10.7195 13.1769 10.8461 13.5407 10.8461ZM2.00001 12H16V7.0769H2.00001V12Z" fill="#5268A0"/>
</svg>
