<svg width="50" height="50" viewBox="0 0 50 50" fill="none" xmlns="http://www.w3.org/2000/svg">
<path d="M26.649 0C27.5733 0.1027 28.4976 0.205393 29.4219 0.410792C29.6273 0.410792 29.73 0.513498 29.9354 0.513498C30.5516 0.616197 30.8597 1.12969 30.757 1.64318C30.6543 2.15668 30.1408 2.46479 29.5246 2.36209C27.9841 2.15669 26.3409 1.84859 24.8004 1.95128C15.8656 2.25938 8.98469 6.16197 4.77401 14.0698C0.255227 22.4912 1.07682 30.8099 6.5199 38.7177C6.62259 38.8204 6.7253 38.9231 6.828 39.1285C9.19009 38.2042 11.1414 38.8204 12.2711 40.669C13.2981 42.3122 12.99 44.4689 11.5522 45.804C10.1144 47.1391 7.95769 47.2418 6.3145 46.0094C4.56861 44.6743 4.26051 42.723 5.3902 40.4636C4.15781 38.9231 3.13081 37.2799 2.30922 35.4313C-4.16085 21.5669 3.54161 5.03227 18.2276 0.92429C19.7681 0.513491 21.4113 0.308089 22.9518 0.10269C23.0545 0.10269 23.2599 0 23.3626 0C24.4923 0 25.622 0 26.649 0ZM8.88199 40.5663C7.75229 40.5663 6.7253 41.4906 6.7253 42.723C6.7253 43.8527 7.64959 44.8797 8.88199 44.8797C10.1144 44.8797 11.0387 43.9554 11.0387 42.723C11.0387 41.4906 10.0117 40.5663 8.88199 40.5663Z" fill="#6682C7"/>
<path d="M49.9627 26.5991C49.86 27.5234 49.7573 28.4477 49.5519 29.372C47.9088 39.0257 40.4117 47.0363 30.8606 49.2957C27.3688 50.1173 23.8771 50.22 20.3853 49.6038C20.2826 49.6038 20.2826 49.6038 20.1799 49.6038C19.461 49.3984 19.1529 48.9876 19.2556 48.4741C19.3583 47.8579 19.8718 47.5498 20.5907 47.7552C25.8284 48.6795 30.8606 48.0633 35.5848 45.4958C42.1576 42.004 46.1629 36.5609 47.498 29.1666C48.7304 22.6965 47.1899 16.7399 43.2873 11.2968C43.1846 11.1941 43.0819 11.0914 43.0819 10.9887C42.363 11.0914 41.6441 11.2968 41.0279 11.3995C39.1793 11.3995 37.6388 10.1672 37.1253 8.42126C36.6118 6.67537 37.4334 4.82678 38.9739 3.90249C40.5144 2.97819 42.5684 3.08089 43.9035 4.41598C45.2386 5.64838 45.6494 7.59967 44.8278 9.24286C44.6224 9.65366 44.7251 9.85905 44.9305 10.1671C47.8061 14.0697 49.4492 18.3831 49.86 23.3127C49.86 23.4154 49.9627 23.6208 49.9627 23.7235C49.9627 24.5451 49.9627 25.5721 49.9627 26.5991ZM41.2333 9.44825C42.363 9.44825 43.39 8.52395 43.39 7.29156C43.39 6.05916 42.4657 5.13488 41.2333 5.13488C40.1036 5.13488 39.0766 6.05916 39.0766 7.29156C39.0766 8.42125 40.0009 9.44825 41.2333 9.44825Z" fill="#6682C7"/>
<path d="M34.9679 2.77284C34.9679 3.28634 34.5571 3.79983 33.9409 3.69713C33.4274 3.69713 33.0166 3.18364 33.0166 2.67014C33.0166 2.15664 33.4274 1.74585 34.0436 1.74585C34.5571 1.84855 34.9679 2.25935 34.9679 2.77284Z" fill="#6682C7"/>
<path d="M17.0976 47.2417C17.0976 47.7552 16.6868 48.166 16.1733 48.166C15.6598 48.166 15.249 47.7552 15.249 47.2417C15.249 46.7282 15.7625 46.2147 16.276 46.3174C16.6868 46.3174 17.0976 46.7282 17.0976 47.2417Z" fill="#6682C7"/>
<g clip-path="url(#clip0_173_29780)">
<mask id="mask0_173_29780" style="mask-type:alpha" maskUnits="userSpaceOnUse" x="10" y="10" width="30" height="30">
<rect x="10" y="10" width="30" height="30" fill="#D9D9D9"/>
</mask>
<g mask="url(#mask0_173_29780)">
<path d="M23.6875 31.7812L30.3125 25.1562L28.9688 23.8125L23.6562 29.0938L21.0312 26.4375L19.6875 27.7812L23.6875 31.7812ZM17.875 36.875C17.25 36.875 16.7188 36.6562 16.2813 36.2188C15.8438 35.7812 15.625 35.25 15.625 34.625V15.375C15.625 14.75 15.8438 14.2188 16.2813 13.7813C16.7188 13.3438 17.25 13.125 17.875 13.125H27.8125L34.375 19.6875V34.625C34.375 35.25 34.1562 35.7812 33.7188 36.2188C33.2812 36.6562 32.75 36.875 32.125 36.875H17.875ZM26.875 20.625V15H17.875C17.7917 15 17.7083 15.0417 17.625 15.125C17.5417 15.2083 17.5 15.2917 17.5 15.375V34.625C17.5 34.7083 17.5417 34.7917 17.625 34.875C17.7083 34.9583 17.7917 35 17.875 35H32.125C32.2083 35 32.2917 34.9583 32.375 34.875C32.4583 34.7917 32.5 34.7083 32.5 34.625V20.625H26.875Z" fill="#6682C7"/>
</g>
</g>
<defs>
<clipPath id="clip0_173_29780">
<rect width="30" height="30" fill="white" transform="translate(10 10)"/>
</clipPath>
</defs>
</svg>
