<svg width="50" height="50" viewBox="0 0 50 50" fill="none" xmlns="http://www.w3.org/2000/svg">
<path d="M26.649 0C27.5733 0.1027 28.4976 0.205393 29.4219 0.410792C29.6273 0.410792 29.73 0.513498 29.9354 0.513498C30.5516 0.616197 30.8597 1.12969 30.757 1.64318C30.6543 2.15668 30.1408 2.46479 29.5246 2.36209C27.9841 2.15669 26.3409 1.84859 24.8004 1.95128C15.8656 2.25938 8.98469 6.16197 4.77401 14.0698C0.255227 22.4912 1.07682 30.8099 6.5199 38.7177C6.62259 38.8204 6.7253 38.9231 6.828 39.1285C9.19009 38.2042 11.1414 38.8204 12.2711 40.669C13.2981 42.3122 12.99 44.4689 11.5522 45.804C10.1144 47.1391 7.95769 47.2418 6.3145 46.0094C4.56861 44.6743 4.26051 42.723 5.3902 40.4636C4.15781 38.9231 3.13081 37.2799 2.30922 35.4313C-4.16085 21.5669 3.54161 5.03227 18.2276 0.92429C19.7681 0.513491 21.4113 0.308089 22.9518 0.10269C23.0545 0.10269 23.2599 0 23.3626 0C24.4923 0 25.622 0 26.649 0ZM8.88199 40.5663C7.75229 40.5663 6.7253 41.4906 6.7253 42.723C6.7253 43.8527 7.64959 44.8797 8.88199 44.8797C10.1144 44.8797 11.0387 43.9554 11.0387 42.723C11.0387 41.4906 10.0117 40.5663 8.88199 40.5663Z" fill="#D04925"/>
<path d="M49.9627 26.5991C49.86 27.5234 49.7573 28.4477 49.5519 29.372C47.9088 39.0257 40.4117 47.0363 30.8606 49.2957C27.3688 50.1173 23.8771 50.22 20.3853 49.6038C20.2826 49.6038 20.2826 49.6038 20.1799 49.6038C19.461 49.3984 19.1529 48.9876 19.2556 48.4741C19.3583 47.8579 19.8718 47.5498 20.5907 47.7552C25.8284 48.6795 30.8606 48.0633 35.5848 45.4958C42.1576 42.004 46.1629 36.5609 47.498 29.1666C48.7304 22.6965 47.1899 16.7399 43.2873 11.2968C43.1846 11.1941 43.0819 11.0914 43.0819 10.9887C42.363 11.0914 41.6441 11.2968 41.0279 11.3995C39.1793 11.3995 37.6388 10.1672 37.1253 8.42126C36.6118 6.67537 37.4334 4.82678 38.9739 3.90249C40.5144 2.97819 42.5684 3.08089 43.9035 4.41598C45.2386 5.64838 45.6494 7.59967 44.8278 9.24286C44.6224 9.65366 44.7251 9.85905 44.9305 10.1671C47.8061 14.0697 49.4492 18.3831 49.86 23.3127C49.86 23.4154 49.9627 23.6208 49.9627 23.7235C49.9627 24.5451 49.9627 25.5721 49.9627 26.5991ZM41.2333 9.44825C42.363 9.44825 43.39 8.52395 43.39 7.29156C43.39 6.05916 42.4657 5.13488 41.2333 5.13488C40.1036 5.13488 39.0766 6.05916 39.0766 7.29156C39.0766 8.42125 40.0009 9.44825 41.2333 9.44825Z" fill="#D04925"/>
<path d="M34.9679 2.77284C34.9679 3.28634 34.5571 3.79983 33.9409 3.69713C33.4274 3.69713 33.0166 3.18364 33.0166 2.67014C33.0166 2.15664 33.4274 1.74585 34.0436 1.74585C34.5571 1.84855 34.9679 2.25935 34.9679 2.77284Z" fill="#D04925"/>
<path d="M17.0976 47.2417C17.0976 47.7552 16.6868 48.166 16.1733 48.166C15.6598 48.166 15.249 47.7552 15.249 47.2417C15.249 46.7282 15.7625 46.2147 16.276 46.3174C16.6868 46.3174 17.0976 46.7282 17.0976 47.2417Z" fill="#D04925"/>
<mask id="mask0_173_29747" style="mask-type:alpha" maskUnits="userSpaceOnUse" x="10" y="10" width="30" height="30">
<rect x="10" y="10" width="30" height="30" fill="#D9D9D9"/>
</mask>
<g mask="url(#mask0_173_29747)">
<path d="M24.8438 36.25V34.375H33.25C33.3333 34.375 33.4167 34.3333 33.5 34.25C33.5833 34.1667 33.625 34.0833 33.625 34V16.625C33.625 16.5417 33.5833 16.4583 33.5 16.375C33.4167 16.2917 33.3333 16.25 33.25 16.25H24.8438V14.375H33.25C33.875 14.375 34.4062 14.5938 34.8438 15.0313C35.2812 15.4688 35.5 16 35.5 16.625V34C35.5 34.625 35.2812 35.1562 34.8438 35.5938C34.4062 36.0312 33.875 36.25 33.25 36.25H24.8438ZM23.2812 30.6562L21.9688 29.2812L25 26.25H14.5V24.375H25L21.9688 21.3438L23.2812 19.9688L28.5938 25.3125L23.2812 30.6562Z" fill="#D04925"/>
</g>
</svg>
