<svg width="50" height="50" viewBox="0 0 50 50" fill="none" xmlns="http://www.w3.org/2000/svg">
<g clip-path="url(#clip0_173_29737)">
<path d="M26.649 0C27.5733 0.1027 28.4976 0.205393 29.4219 0.410792C29.6273 0.410792 29.73 0.513498 29.9354 0.513498C30.5516 0.616197 30.8597 1.12969 30.757 1.64318C30.6543 2.15668 30.1408 2.46479 29.5246 2.36209C27.9841 2.15669 26.3409 1.84859 24.8004 1.95128C15.8656 2.25938 8.98469 6.16197 4.77401 14.0698C0.255227 22.4912 1.07682 30.8099 6.51989 38.7177C6.62259 38.8204 6.7253 38.9231 6.828 39.1285C9.19008 38.2042 11.1414 38.8204 12.2711 40.669C13.2981 42.3122 12.99 44.4689 11.5522 45.804C10.1144 47.1391 7.95769 47.2418 6.3145 46.0094C4.56861 44.6743 4.26051 42.723 5.3902 40.4636C4.15781 38.9231 3.13081 37.2799 2.30922 35.4313C-4.16085 21.5669 3.54161 5.03227 18.2276 0.92429C19.7681 0.513491 21.4113 0.308089 22.9518 0.10269C23.0545 0.10269 23.2599 0 23.3626 0C24.4923 0 25.622 0 26.649 0ZM8.88199 40.5663C7.75229 40.5663 6.7253 41.4906 6.7253 42.723C6.7253 43.8527 7.64959 44.8797 8.88199 44.8797C10.1144 44.8797 11.0387 43.9554 11.0387 42.723C11.0387 41.4906 10.0117 40.5663 8.88199 40.5663Z" fill="#B3C0D1"/>
<path d="M49.9627 26.5991C49.86 27.5234 49.7573 28.4477 49.5519 29.372C47.9088 39.0257 40.4117 47.0363 30.8606 49.2957C27.3688 50.1173 23.8771 50.22 20.3853 49.6038C20.2826 49.6038 20.2826 49.6038 20.1799 49.6038C19.461 49.3984 19.1529 48.9876 19.2556 48.4741C19.3583 47.8579 19.8718 47.5498 20.5907 47.7552C25.8284 48.6795 30.8606 48.0633 35.5848 45.4958C42.1576 42.004 46.1629 36.5609 47.498 29.1666C48.7304 22.6965 47.1899 16.7399 43.2873 11.2969C43.1846 11.1942 43.0819 11.0914 43.0819 10.9887C42.363 11.0914 41.6441 11.2968 41.0279 11.3995C39.1793 11.3995 37.6388 10.1672 37.1253 8.42126C36.6118 6.67537 37.4334 4.82678 38.9739 3.90249C40.5144 2.97819 42.5684 3.08089 43.9035 4.41598C45.2386 5.64838 45.6494 7.59967 44.8278 9.24286C44.6224 9.65366 44.7251 9.85905 44.9305 10.1671C47.8061 14.0697 49.4492 18.3831 49.86 23.3127C49.86 23.4154 49.9627 23.6208 49.9627 23.7235C49.9627 24.5451 49.9627 25.5721 49.9627 26.5991ZM41.2333 9.44826C42.363 9.44826 43.39 8.52395 43.39 7.29156C43.39 6.05916 42.4657 5.13488 41.2333 5.13488C40.1036 5.13488 39.0766 6.05916 39.0766 7.29156C39.0766 8.42125 40.0009 9.44826 41.2333 9.44826Z" fill="#B3C0D1"/>
<path d="M34.9679 2.77285C34.9679 3.28634 34.5571 3.79983 33.9409 3.69713C33.4274 3.69713 33.0166 3.18364 33.0166 2.67014C33.0166 2.15664 33.4274 1.74585 34.0436 1.74585C34.5571 1.84855 34.9679 2.25935 34.9679 2.77285Z" fill="#B3C0D1"/>
<path d="M17.0976 47.2417C17.0976 47.7552 16.6868 48.166 16.1733 48.166C15.6598 48.166 15.249 47.7552 15.249 47.2417C15.249 46.7282 15.7625 46.2147 16.276 46.3174C16.6868 46.3174 17.0976 46.7282 17.0976 47.2417Z" fill="#B3C0D1"/>
<path d="M34.3235 11.2511C34.0612 11.12 33.9957 11.3823 33.9301 11.579C33.6022 11.3823 33.9957 11.0544 33.7989 10.7921C33.6022 10.9888 33.4711 11.1855 33.3399 11.3823C33.0776 11.5134 32.8153 11.5134 32.6186 11.8413C32.553 11.9069 32.4874 12.038 32.553 12.1036C32.2907 12.038 32.0284 12.3659 31.7005 12.1692C31.8972 12.038 32.094 11.8413 32.2251 11.6446C32.4218 11.5134 32.6841 11.4478 32.7497 11.1855C32.8809 10.8577 33.1432 10.7265 33.4055 10.5298C33.6678 10.3986 33.6022 10.2019 33.471 10.0707C33.2743 9.87401 33.2087 10.1363 33.0776 10.2675C32.7497 10.333 32.6186 10.5953 32.4218 10.7921C32.0284 10.9888 31.7661 11.1855 31.6349 11.6446C31.2415 11.7101 31.0447 12.1036 30.6513 12.2347C30.5857 12.1692 30.5201 12.1692 30.5201 12.1036L30.5857 11.9069L30.6513 11.8413H30.5857C30.4546 11.7757 30.3234 11.8413 30.2578 11.9724H30.0611C29.9299 12.038 29.8644 12.1692 29.8644 12.3003L29.6676 12.6282C29.6676 12.6938 29.6021 12.6938 29.6021 12.7594L29.3398 13.2184C29.4053 13.284 29.4053 13.284 29.4053 13.3495C29.4053 13.3495 29.4053 13.284 29.3398 13.2184V13.3495C28.6184 13.3495 28.0938 13.9397 28.2905 14.5299V14.6611C28.225 14.7922 28.1594 14.8578 28.0938 14.9889C27.8971 15.1857 27.5692 15.2512 27.4381 15.5135C26.9135 15.6447 26.5856 15.8414 26.7823 16.4316C26.7823 16.4972 26.7167 16.5628 26.6512 16.6283C26.52 16.5628 26.4544 16.4316 26.3233 16.6283C26.061 16.9562 26.1921 17.1529 26.52 17.3497C26.3888 17.612 25.9298 17.6775 25.9954 18.1366C25.6675 18.7923 25.0773 19.2514 24.7495 19.8416C23.3068 22.6613 22.192 25.6778 21.1428 28.6943C20.7493 29.8091 20.4214 30.9239 19.9624 32.1698C18.9788 29.1533 17.864 26.3336 17.2082 23.2515C17.0771 23.3827 17.0771 23.4482 17.0115 23.5138C16.618 24.0384 16.4213 24.6942 15.8967 25.2188C15.6344 25.4811 15.3721 25.8745 15.1754 26.2024C14.8475 26.8582 15.0442 27.5139 15.2409 28.1041C16.2902 31.5796 17.2082 35.0552 18.4542 38.4651C18.6509 38.9897 18.8476 39.5143 19.1755 39.9078C19.7001 40.6291 20.2903 40.6947 20.8805 39.9078C21.4051 39.1865 21.6674 38.334 21.9297 37.5471C23.8314 31.3173 26.3233 25.3499 29.4709 19.6448C30.5857 17.6775 31.8316 15.7103 33.5366 14.202C33.6678 14.0709 33.7989 13.9397 33.7989 13.743C34.0612 13.4807 33.6022 13.4807 33.6678 13.3495C33.7334 13.1528 33.8645 12.9561 34.1268 12.8249C34.4547 12.6282 34.7826 12.5626 34.9793 12.2347C35.1104 11.3823 34.5858 11.4478 34.3235 11.2511Z" fill="#D82A21"/>
</g>
<defs>
<clipPath id="clip0_173_29737">
<rect width="50" height="50" fill="white"/>
</clipPath>
</defs>
</svg>
