<svg width="24" height="23" viewBox="0 0 24 23" fill="none" xmlns="http://www.w3.org/2000/svg">
<path d="M12 9.958C10.6113 9.958 9.45167 9.49267 8.52101 8.562C7.59034 7.632 7.12501 6.47233 7.12501 5.083C7.12501 3.69433 7.59034 2.53467 8.52101 1.604C9.45167 0.673333 10.6113 0.208 12 0.208C13.3887 0.208 14.5483 0.673333 15.479 1.604C16.4097 2.53467 16.875 3.69433 16.875 5.083C16.875 6.47233 16.4097 7.632 15.479 8.562C14.5483 9.49267 13.3887 9.958 12 9.958ZM0.333008 22.042V19.5C0.333008 18.778 0.541341 18.1253 0.958008 17.542C1.37467 16.9587 1.91634 16.5003 2.58301 16.167C4.22234 15.4443 5.81967 14.8957 7.37501 14.521C8.93034 14.1457 10.472 13.958 12 13.958C13.528 13.958 15.0697 14.1457 16.625 14.521C18.1803 14.8957 19.7637 15.4443 21.375 16.167C22.0697 16.5003 22.6253 16.9587 23.042 17.542C23.4587 18.1253 23.667 18.778 23.667 19.5V22.042H0.333008ZM1.75001 20.625H22.25V19.5C22.25 19.1113 22.118 18.7293 21.854 18.354C21.59 17.9793 21.222 17.667 20.75 17.417C19.278 16.6943 17.8267 16.1733 16.396 15.854C14.9653 15.5347 13.5 15.375 12 15.375C10.5 15.375 9.02767 15.5347 7.58301 15.854C6.13901 16.1733 4.69467 16.6943 3.25001 17.417C2.77801 17.667 2.41001 17.9793 2.14601 18.354C1.88201 18.7293 1.75001 19.1113 1.75001 19.5V20.625ZM12 8.542C12.972 8.542 13.7913 8.20867 14.458 7.542C15.1247 6.87533 15.458 6.05567 15.458 5.083C15.458 4.111 15.1247 3.29167 14.458 2.625C13.7913 1.95833 12.972 1.625 12 1.625C11.028 1.625 10.2087 1.95833 9.54201 2.625C8.87534 3.29167 8.54201 4.111 8.54201 5.083C8.54201 6.05567 8.87534 6.87533 9.54201 7.542C10.2087 8.20867 11.028 8.542 12 8.542Z" fill="#403A52"/>
</svg>
