<svg xmlns="http://www.w3.org/2000/svg" width="23" height="24" viewBox="0 0 23 24" fill="none">
<path d="M16.2644 21.3749H17.3701V17H16.2644V21.3749ZM16.8172 15.8582C16.9679 15.8662 17.0977 15.8137 17.2067 15.7007C17.3156 15.5877 17.3701 15.4559 17.3701 15.3053C17.3701 15.1546 17.3145 15.0248 17.2032 14.9158C17.092 14.8069 16.9622 14.7524 16.8138 14.7524C16.6655 14.7524 16.5368 14.8072 16.4278 14.9167C16.3189 15.0263 16.2644 15.1541 16.2644 15.3001C16.2644 15.4462 16.3197 15.5757 16.4302 15.6887C16.5408 15.8017 16.6698 15.8582 16.8172 15.8582ZM16.8172 23.6826C15.2564 23.6826 13.9286 23.1353 12.8341 22.0408C11.7396 20.9462 11.1923 19.6185 11.1923 18.0577C11.1923 16.4968 11.7396 15.169 12.8341 14.0745C13.9286 12.98 15.2564 12.4327 16.8172 12.4327C18.3781 12.4327 19.7058 12.98 20.8004 14.0745C21.8949 15.169 22.4422 16.4968 22.4422 18.0577C22.4422 19.6185 21.8949 20.9462 20.8004 22.0408C19.7058 23.1353 18.3781 23.6826 16.8172 23.6826ZM11.625 7.62494H17.25L11.625 1.99997V7.62494ZM2.63462 23.8749C2.01323 23.8749 1.48128 23.6537 1.03878 23.2112C0.59626 22.7687 0.375 22.2367 0.375 21.6153V2.38462C0.375 1.76323 0.59626 1.23128 1.03878 0.788781C1.48128 0.34626 2.01323 0.125 2.63462 0.125H12.5625L19.1249 6.68744V10.0192C18.7403 9.90222 18.3577 9.81848 17.9771 9.768C17.5965 9.71752 17.2099 9.69228 16.8172 9.69228C15.6217 9.69228 14.5019 9.92626 13.4579 10.3942C12.4138 10.8622 11.5119 11.5016 10.7523 12.3125H5.0625V14.1874H9.41584C9.16424 14.6634 8.95991 15.1638 8.80284 15.6887C8.6458 16.2135 8.54804 16.7548 8.50956 17.3125H5.0625V19.1874H8.53094C8.66252 20.0608 8.92303 20.8998 9.31247 21.7043C9.70189 22.5087 10.2083 23.2323 10.8317 23.8749H2.63462Z" fill="#5268a0"/>
</svg>