<svg width="23" height="24" viewBox="0 0 23 24" fill="none" xmlns="http://www.w3.org/2000/svg">
<path d="M16.2644 21.3749H17.3701V17H16.2644V21.3749ZM16.8172 15.8582C16.9679 15.8662 17.0977 15.8137 17.2067 15.7007C17.3156 15.5877 17.3701 15.4559 17.3701 15.3053C17.3701 15.1546 17.3136 15.0248 17.2007 14.9158C17.0877 14.8069 16.9599 14.7524 16.8172 14.7524C16.6666 14.7524 16.5368 14.8069 16.4278 14.9158C16.3189 15.0248 16.2644 15.1546 16.2644 15.3053C16.2644 15.4479 16.3189 15.5757 16.4278 15.6887C16.5368 15.8017 16.6666 15.8582 16.8172 15.8582ZM2.24997 1.99997V9.72834V9.69228V22V1.99997ZM5.0625 14.1874H9.40381C9.5849 13.8365 9.78842 13.5048 10.0144 13.1923C10.2403 12.8798 10.4887 12.5865 10.7596 12.3125H5.0625V14.1874ZM5.0625 19.1874H8.52159C8.47511 18.875 8.45187 18.5645 8.45187 18.256C8.45187 17.9475 8.4711 17.633 8.50956 17.3125H5.0625V19.1874ZM2.63462 23.8749C2.00321 23.8749 1.46875 23.6562 1.03125 23.2187C0.59375 22.7812 0.375 22.2467 0.375 21.6153V2.38462C0.375 1.75321 0.59375 1.21875 1.03125 0.78125C1.46875 0.34375 2.00321 0.125 2.63462 0.125H12.5625L19.1249 6.68744V10.0312C18.8173 9.93828 18.5092 9.86657 18.2007 9.81609C17.8922 9.76562 17.5753 9.73637 17.25 9.72834V7.62494H11.625V1.99997H2.63462C2.53846 1.99997 2.4503 2.04003 2.37016 2.12016C2.29003 2.2003 2.24997 2.28846 2.24997 2.38462V21.6153C2.24997 21.7115 2.29003 21.7996 2.37016 21.8798C2.4503 21.9599 2.53846 22 2.63462 22H9.45191C9.63299 22.3589 9.83651 22.6947 10.0625 23.0072C10.2884 23.3197 10.5408 23.6089 10.8197 23.8749H2.63462ZM16.8172 12.4327C18.3781 12.4327 19.7058 12.98 20.8004 14.0745C21.8949 15.169 22.4422 16.4968 22.4422 18.0577C22.4422 19.6185 21.8949 20.9462 20.8004 22.0408C19.7058 23.1353 18.3781 23.6826 16.8172 23.6826C15.2564 23.6826 13.9286 23.1353 12.8341 22.0408C11.7396 20.9462 11.1923 19.6185 11.1923 18.0577C11.1923 16.4968 11.7396 15.169 12.8341 14.0745C13.9286 12.98 15.2564 12.4327 16.8172 12.4327Z" fill="#5268A0"/>
</svg>
