<svg width="20" height="26" viewBox="0 0 20 26" fill="none" xmlns="http://www.w3.org/2000/svg">
<path d="M8.6875 14.2188L14.4375 8.46875L13.0938 7.125L8.6875 11.5312L6.9375 9.78125L5.59375 11.125L8.6875 14.2188ZM10 25.25C6.75 22.4167 4.32292 19.7917 2.71875 17.375C1.11458 14.9583 0.3125 12.75 0.3125 10.75C0.3125 7.72917 1.28667 5.3175 3.235 3.515C5.1825 1.71333 7.4375 0.8125 10 0.8125C12.5625 0.8125 14.8179 1.71333 16.7663 3.515C18.7138 5.3175 19.6875 7.72917 19.6875 10.75C19.6875 12.75 18.8854 14.9583 17.2812 17.375C15.6771 19.7917 13.25 22.4167 10 25.25Z" fill="#5268A0"/>
</svg>
