<svg width="20" height="26" viewBox="0 0 20 26" fill="none" xmlns="http://www.w3.org/2000/svg">
<path d="M8.68747 14.2187L14.4423 8.46391L13.1058 7.12741L8.68747 11.5457L6.93747 9.79569L5.60097 11.1322L8.68747 14.2187ZM9.99997 22.7524C12.5737 20.4511 14.5192 18.2552 15.8365 16.1647C17.1538 14.0741 17.8125 12.2692 17.8125 10.75C17.8125 8.38297 17.0585 6.44747 15.5505 4.94347C14.0424 3.43945 12.1923 2.68744 9.99997 2.68744C7.80766 2.68744 5.95749 3.43945 4.44947 4.94347C2.94145 6.44747 2.18744 8.38297 2.18744 10.75C2.18744 12.2692 2.84609 14.0741 4.16341 16.1647C5.48072 18.2552 7.42624 20.4511 9.99997 22.7524ZM9.99997 25.2596C6.74197 22.4294 4.31289 19.8024 2.71272 17.3786C1.11257 14.9547 0.3125 12.7452 0.3125 10.75C0.3125 7.72114 1.28766 5.30768 3.23797 3.50959C5.18828 1.71153 7.44228 0.8125 9.99997 0.8125C12.5577 0.8125 14.8117 1.71153 16.762 3.50959C18.7123 5.30768 19.6874 7.72114 19.6874 10.75C19.6874 12.7452 18.8874 14.9547 17.2872 17.3786C15.6871 19.8024 13.258 22.4294 9.99997 25.2596Z" fill="#5268A0"/>
</svg>
