<svg width="760" height="480" viewBox="0 0 760 480" fill="none" xmlns="http://www.w3.org/2000/svg">
<path d="M143 73.0909H186.091C197.545 73.0909 207.364 75.2727 216.091 80.1818C224.818 85.0909 231.909 91.0909 236.818 99.8182C241.727 108 243.909 117.273 243.909 128.182C243.909 138.545 241.727 147.818 236.818 156.545C231.909 164.727 225.364 171.273 216.091 176.182C207.364 181.091 197 183.273 186.091 183.273H143V73.0909ZM185.545 175.091C195.364 175.091 204.636 172.909 212.273 169.091C219.909 165.273 225.909 159.273 230.273 152.182C234.636 145.091 236.273 136.909 236.273 127.636C236.273 118.364 234.091 110.182 230.273 103.091C225.909 96 220.454 90.5454 212.273 86.1818C204.636 82.3636 195.909 80.1818 185.545 80.1818H151.182V175.091H185.545Z" fill="#232D3A"/>
<path d="M268.454 79.0909C267.363 78 266.818 76.3636 266.818 74.7272C266.818 73.0909 267.363 71.4545 268.454 70.3636C269.545 69.2727 271.181 68.7273 272.818 68.7273C274.454 68.7273 276.091 69.2727 277.181 70.3636C278.272 71.4545 278.818 73.0909 278.818 74.7272C278.818 76.3636 278.272 78 277.181 79.0909C276.091 80.1818 274.454 80.7272 272.818 80.7272C271.181 81.2727 270.091 80.7272 268.454 79.0909ZM269.545 100.909H277.181V182.182H269.545V100.909Z" fill="#232D3A"/>
<path d="M382.999 100.909V173.455C382.999 187.091 379.726 196.909 373.181 203.455C366.636 210 356.817 213.273 343.726 213.273C336.09 213.273 328.999 212.182 322.454 210C315.908 207.818 310.454 204.546 306.635 200.727L310.999 194.727C314.817 198.546 319.726 201.273 325.726 203.455C331.181 205.636 337.726 206.727 343.726 206.727C354.636 206.727 362.272 204 367.726 199.091C373.181 194.182 375.363 186 375.363 175.091V161.455C372.09 167.455 367.181 171.818 361.726 175.091C355.726 178.364 349.181 180 341.545 180C333.908 180 326.817 178.364 320.817 175.091C314.817 171.818 309.908 166.909 306.09 160.909C302.817 154.909 300.635 147.818 300.635 140.727C300.635 133.091 302.272 126.545 306.09 120.545C309.363 114.545 314.272 109.636 320.817 106.364C326.817 103.091 333.908 101.455 341.545 101.455C349.181 101.455 355.726 103.091 361.726 106.364C367.726 109.636 372.636 114.545 375.363 120.545V102H382.999V100.909ZM359.545 168C364.454 165.273 368.817 161.455 371.545 156.545C374.272 151.636 375.908 146.182 375.908 139.636C375.908 133.091 374.272 127.636 371.545 122.727C368.817 117.818 364.454 114 359.545 111.273C354.636 108.545 348.636 106.909 342.636 106.909C336.09 106.909 330.636 108.545 325.726 111.273C320.817 114 316.999 117.818 313.726 122.727C310.999 127.636 309.363 133.091 309.363 139.636C309.363 146.182 310.999 151.636 313.726 156.545C316.454 161.455 320.272 165.273 325.726 168C330.636 170.727 336.636 172.364 342.636 172.364C348.636 172.364 354.09 170.727 359.545 168Z" fill="#232D3A"/>
<path d="M497 177.273C494.818 178.909 492.636 180.545 489.363 181.636C486.636 182.727 483.363 183.273 480.091 183.273C473 183.273 467.545 181.091 463.727 177.273C459.909 173.455 457.727 168 457.727 160.909V108H443V101.455H457.727V83.4545H465.363V101.455H491V108H465.363V160.364C465.363 165.818 466.454 169.636 469.182 172.364C471.909 175.091 475.727 176.727 480.636 176.727C485.545 176.727 489.909 175.091 493.182 172.364L497 177.273Z" fill="#232D3A"/>
<path d="M569.544 108C574.999 112.909 577.726 120.545 577.726 130.909V182.727H570.09V168C567.363 172.909 563.544 176.727 558.635 178.909C553.726 181.636 547.726 182.727 540.635 182.727C531.363 182.727 524.272 180.545 519.363 176.182C513.908 171.818 511.726 166.364 511.726 159.273C511.726 152.727 513.908 147.273 518.817 142.909C523.726 138.545 531.362 136.364 541.726 136.364H569.544V129.818C569.544 122.182 567.362 116.727 563.544 112.364C559.181 108.545 553.181 106.364 545.544 106.364C540.09 106.364 535.181 107.454 530.272 109.091C525.363 110.727 520.999 113.454 517.726 116.727L513.908 111.273C517.726 107.454 522.635 104.727 528.635 102.545C534.09 100.364 540.09 99.2727 546.635 99.2727C556.453 100.364 564.09 103.091 569.544 108ZM559.181 171.818C564.09 168.545 567.363 164.182 570.09 158.182V142.909H542.272C534.09 142.909 528.635 144.545 524.817 147.273C520.999 150 519.363 154.364 519.363 159.273C519.363 164.727 521.544 168.545 525.362 171.818C529.181 175.091 534.635 176.182 542.272 176.182C548.817 176.727 554.272 175.091 559.181 171.818Z" fill="#232D3A"/>
<path d="M609.907 66.5453H617.543V182.182H609.907V66.5453Z" fill="#232D3A"/>
<path d="M168.545 364.364C161.454 361.636 155.454 357.818 151.636 353.454L155.454 347.454C159.273 351.273 164.727 354.545 170.727 357.273C177.273 360 183.818 361.091 191.454 361.091C201.818 361.091 209.454 358.909 214.909 355.091C220.364 351.273 223.091 345.818 223.091 339.818C223.091 334.909 221.454 331.091 218.727 328.364C216 325.636 212.182 323.454 208.364 321.818C204 320.182 198.545 318.545 191.454 316.909C183.273 314.727 177.273 313.091 172.364 310.909C167.454 309.273 163.636 306 159.818 302.182C156.545 298.364 154.909 292.909 154.909 286.364C154.909 280.909 156.545 276 159.273 271.636C162 267.273 166.364 263.454 172.364 261.273C178.364 259.091 185.454 257.454 194.182 257.454C200.182 257.454 206.182 258.545 212.182 260.182C218.182 261.818 223.091 264.545 227.454 267.273L224.727 273.818C220.364 270.545 215.454 268.364 210.545 266.727C205.091 265.091 200.182 264.545 195.273 264.545C185.454 264.545 177.818 266.727 172.364 270.545C166.909 274.364 164.727 279.818 164.727 286.364C164.727 291.273 166.364 295.091 169.091 297.818C171.818 300.545 175.636 302.727 179.454 304.364C183.818 306 189.273 307.636 196.364 309.273C204.545 311.454 210.545 313.091 215.454 315.273C220.364 316.909 224.182 320.182 227.454 324C230.727 327.818 232.364 332.727 232.364 339.273C232.364 344.727 230.727 349.636 228 354C225.273 358.364 220.909 361.636 214.909 364.364C208.909 367.091 201.818 368.182 193.091 368.182C183.273 368.182 175.636 367.091 168.545 364.364Z" fill="#232D3A"/>
<path d="M266.182 362.727C260.182 359.455 255.273 354.545 251.454 348C248.182 341.455 246 334.364 246 326.727C246 319.091 247.636 312 251.454 305.455C254.727 298.909 259.636 294 266.182 290.727C272.182 287.455 279.273 285.273 286.909 285.273C294.545 285.273 301.636 286.909 307.636 290.727C313.636 294 318.545 298.909 322.364 305.455C325.636 312 327.818 319.091 327.818 326.727C327.818 334.364 326.182 341.455 322.364 348C319.091 354.545 314.182 359.455 307.636 362.727C301.636 366 294.545 368.182 286.909 368.182C279.273 368.182 272.182 366.545 266.182 362.727ZM303.818 356.727C308.727 354 312.545 349.636 315.273 344.727C318 339.273 319.636 333.818 319.636 326.727C319.636 320.182 318 314.182 315.273 308.727C312.545 303.273 308.727 299.455 303.818 296.727C298.909 294 293.454 292.364 286.909 292.364C280.909 292.364 274.909 294 270 296.727C265.091 299.455 261.273 303.818 258.545 308.727C255.818 314.182 254.182 319.636 254.182 326.727C254.182 333.273 255.818 339.273 258.545 344.727C261.273 350.182 265.091 354 270 356.727C274.909 359.455 280.364 361.091 286.909 361.091C292.909 361.091 298.909 359.455 303.818 356.727Z" fill="#232D3A"/>
<path d="M361.091 274.364V286.364H387.273V292.909H361.636V367.636H354V292.909H339.273V286.364H354V273.818C354 266.727 356.182 261.273 360 257.454C363.818 253.636 369.273 251.454 376.909 251.454C380.182 251.454 382.909 252 385.636 252.545C388.364 253.636 391.091 254.727 392.727 256.364L389.454 262.364C386.182 259.091 381.818 258 376.909 258C366 258 361.091 263.454 361.091 274.364Z" fill="#232D3A"/>
<path d="M503.455 293.454C508.909 298.364 511.636 306 511.636 316.364V368.182H504V353.454C501.273 358.363 497.455 362.182 492.546 364.363C487.636 367.091 481.636 368.182 474.546 368.182C465.273 368.182 458.182 366 453.273 361.636C447.818 357.273 445.636 351.818 445.636 344.727C445.636 338.182 447.818 332.727 452.727 328.364C457.636 324 465.273 321.818 475.636 321.818H503.455V315.273C503.455 307.636 501.273 302.182 497.455 297.818C493.091 294 487.091 291.818 479.455 291.818C474 291.818 469.091 292.909 464.182 294.545C459.273 296.182 454.909 298.909 451.636 302.182L447.818 296.727C451.636 292.909 456.546 290.182 462.546 288C468 285.818 474 284.727 480.546 284.727C490.364 285.818 498 288 503.455 293.454ZM493.091 357.273C498 354 501.273 349.636 504 343.636V328.364H476.182C468 328.364 462.546 330 458.727 332.727C454.909 335.454 453.273 339.818 453.273 344.727C453.273 350.182 455.455 354 459.273 357.273C463.091 360.545 468.546 361.636 476.182 361.636C482.727 361.636 488.182 360 493.091 357.273Z" fill="#232D3A"/>
<path d="M428.727 264C428.727 258.545 424.363 254.182 418.909 254.182C413.454 254.182 409.091 258.545 409.091 264C409.091 267.818 411.272 270.545 414 272.182V367.636V471.273H8.72727V8.72727H414V68.7273V163.636C410.727 165.273 408.545 168.545 408.545 172.364C408.545 177.818 412.909 182.182 418.363 182.182C423.818 182.182 428.182 177.818 428.182 172.364C428.182 168.545 426 165.818 423.272 164.182V68.7273V0H60.5454H0V480H423.272V282V272.727C426.545 271.091 428.727 267.818 428.727 264ZM416.727 168H418.909C419.454 168 420 168 420.545 168C421.636 168.545 422.727 169.636 423.272 170.727C423.272 171.273 423.818 171.818 423.818 172.909C423.818 173.455 423.818 174.545 423.272 175.091C422.727 176.182 422.182 176.727 421.636 177.273C421.091 177.818 420 178.364 418.909 178.364C417.818 178.364 416.727 177.818 416.182 177.273C415.636 176.727 415.091 176.727 415.091 176.182C414.545 175.636 414 174.545 414 173.455C414 172.364 414.545 171.273 415.091 170.727C415.636 170.182 415.636 168.545 416.727 168ZM421.091 268.364H418.909C418.363 268.364 417.818 268.364 417.272 268.364C416.182 267.818 415.091 266.727 414.545 265.636C414.545 265.091 414 264.545 414 263.455C414 262.909 414 261.818 414.545 261.273C415.091 260.182 415.636 259.636 416.182 259.091C416.727 258.545 417.818 258 418.909 258C420 258 421.091 258.545 421.636 259.091C422.182 259.636 422.727 259.636 422.727 260.182C423.272 260.727 423.818 261.818 423.818 262.909C423.818 264 423.272 265.091 422.727 265.636C422.727 267.273 422.182 268.364 421.091 268.364Z" fill="url(#paint0_linear_99_17327)"/>
<path d="M150.605 408.432C148.349 408.432 146.633 407.892 145.457 406.812C144.281 405.732 143.693 404.148 143.693 402.06V396.984C143.693 394.752 144.269 393.06 145.421 391.908C146.573 390.756 148.265 390.18 150.497 390.18C152.753 390.18 154.445 390.756 155.573 391.908C156.725 393.036 157.301 394.704 157.301 396.912V399.324C157.301 399.468 157.229 399.54 157.085 399.54H145.601V401.556C145.601 403.308 146.009 404.604 146.825 405.444C147.665 406.284 148.949 406.704 150.677 406.704C152.093 406.704 153.173 406.44 153.917 405.912C154.661 405.36 155.033 404.592 155.033 403.608C155.033 403.44 155.129 403.356 155.321 403.356H156.725C156.869 403.356 156.953 403.428 156.977 403.572C157.025 405.084 156.485 406.272 155.357 407.136C154.253 408 152.669 408.432 150.605 408.432ZM145.601 397.884H155.393V397.092C155.393 395.34 154.985 394.032 154.169 393.168C153.353 392.304 152.141 391.872 150.533 391.872C148.877 391.872 147.641 392.316 146.825 393.204C146.009 394.068 145.601 395.364 145.601 397.092V397.884Z" fill="black"/>
<path d="M173.166 408.432C171.294 408.432 169.77 408.18 168.594 407.676C167.442 407.148 166.59 406.392 166.038 405.408C165.51 404.424 165.27 403.236 165.318 401.844C165.342 401.58 165.438 401.448 165.606 401.448H166.974C167.166 401.448 167.262 401.568 167.262 401.808C167.262 403.536 167.742 404.796 168.702 405.588C169.662 406.356 171.198 406.74 173.31 406.74C175.422 406.74 176.958 406.404 177.918 405.732C178.902 405.036 179.394 403.944 179.394 402.456C179.394 401.568 179.25 400.848 178.962 400.296C178.674 399.72 178.218 399.228 177.594 398.82C176.97 398.412 176.154 398.004 175.146 397.596L170.43 395.58C169.302 395.1 168.39 394.596 167.694 394.068C166.998 393.516 166.494 392.892 166.182 392.196C165.894 391.476 165.75 390.612 165.75 389.604C165.774 387.756 166.434 386.364 167.73 385.428C169.026 384.492 170.85 384.024 173.202 384.024C174.906 384.024 176.334 384.276 177.486 384.78C178.638 385.26 179.502 385.968 180.078 386.904C180.678 387.84 180.942 389.004 180.87 390.396C180.846 390.684 180.762 390.828 180.618 390.828H179.214C179.142 390.828 179.082 390.804 179.034 390.756C178.986 390.684 178.962 390.564 178.962 390.396C179.034 388.884 178.578 387.732 177.594 386.94C176.61 386.124 175.122 385.716 173.13 385.716C171.402 385.716 170.058 386.028 169.098 386.652C168.162 387.252 167.682 388.2 167.658 389.496C167.658 390.288 167.778 390.948 168.018 391.476C168.282 391.98 168.69 392.436 169.242 392.844C169.818 393.228 170.586 393.636 171.546 394.068L176.262 396.084C177.486 396.612 178.47 397.152 179.214 397.704C179.958 398.232 180.486 398.868 180.798 399.612C181.134 400.356 181.302 401.292 181.302 402.42C181.302 404.388 180.654 405.888 179.358 406.92C178.086 407.928 176.022 408.432 173.166 408.432Z" fill="black"/>
<path d="M196.406 408.432C194.15 408.432 192.434 407.892 191.258 406.812C190.082 405.732 189.494 404.148 189.494 402.06V396.984C189.494 394.752 190.07 393.06 191.222 391.908C192.374 390.756 194.066 390.18 196.298 390.18C198.554 390.18 200.246 390.756 201.374 391.908C202.526 393.036 203.102 394.704 203.102 396.912V399.324C203.102 399.468 203.03 399.54 202.886 399.54H191.402V401.556C191.402 403.308 191.81 404.604 192.626 405.444C193.466 406.284 194.75 406.704 196.478 406.704C197.894 406.704 198.974 406.44 199.718 405.912C200.462 405.36 200.834 404.592 200.834 403.608C200.834 403.44 200.93 403.356 201.122 403.356H202.526C202.67 403.356 202.754 403.428 202.778 403.572C202.826 405.084 202.286 406.272 201.158 407.136C200.054 408 198.47 408.432 196.406 408.432ZM191.402 397.884H201.194V397.092C201.194 395.34 200.786 394.032 199.97 393.168C199.154 392.304 197.942 391.872 196.334 391.872C194.678 391.872 193.442 392.316 192.626 393.204C191.81 394.068 191.402 395.364 191.402 397.092V397.884Z" fill="black"/>
<path d="M212.344 408C212.176 408 212.092 407.916 212.092 407.748V394.716C212.092 394.044 212.068 393.396 212.02 392.772C211.996 392.124 211.948 391.488 211.876 390.864C211.852 390.696 211.936 390.612 212.128 390.612H213.46C213.556 390.612 213.616 390.624 213.64 390.648C213.688 390.672 213.724 390.732 213.748 390.828C213.82 391.356 213.868 391.92 213.892 392.52C213.94 393.12 213.964 393.696 213.964 394.248L214 395.436V407.748C214 407.916 213.928 408 213.784 408H212.344ZM213.64 396.336L213.604 394.392C214.108 393.696 214.696 393.024 215.368 392.376C216.04 391.728 216.748 391.2 217.492 390.792C218.26 390.384 219.028 390.18 219.796 390.18C220.276 390.18 220.636 390.216 220.876 390.288C220.972 390.312 221.032 390.348 221.056 390.396C221.08 390.42 221.092 390.468 221.092 390.54C221.14 390.852 221.152 391.152 221.128 391.44C221.128 391.728 221.104 392.016 221.056 392.304C221.056 392.4 221.02 392.472 220.948 392.52C220.9 392.544 220.816 392.544 220.696 392.52C220.552 392.496 220.384 392.472 220.192 392.448C220 392.424 219.772 392.412 219.508 392.412C218.788 392.412 218.068 392.592 217.348 392.952C216.652 393.312 215.992 393.792 215.368 394.392C214.744 394.968 214.168 395.616 213.64 396.336Z" fill="black"/>
<path d="M233.661 408C233.517 408 233.421 407.94 233.373 407.82L227.037 390.864C226.989 390.696 227.049 390.612 227.217 390.612H228.729C228.897 390.612 229.005 390.672 229.053 390.792L233.049 401.808C233.313 402.6 233.577 403.392 233.841 404.184C234.129 404.976 234.405 405.768 234.669 406.56H234.741C235.005 405.744 235.269 404.94 235.533 404.148C235.821 403.356 236.109 402.564 236.397 401.772L240.357 390.792C240.405 390.672 240.501 390.612 240.645 390.612H242.157C242.373 390.612 242.445 390.696 242.373 390.864L236.037 407.82C235.965 407.94 235.857 408 235.713 408H233.661Z" fill="black"/>
<path d="M250.341 408C250.173 408 250.089 407.916 250.089 407.748V390.828C250.089 390.684 250.173 390.612 250.341 390.612H251.781C251.925 390.612 251.997 390.684 251.997 390.828V407.748C251.997 407.916 251.925 408 251.781 408H250.341ZM251.061 387.192C250.605 387.192 250.257 387.072 250.017 386.832C249.801 386.568 249.693 386.232 249.693 385.824V385.536C249.693 385.152 249.801 384.84 250.017 384.6C250.257 384.336 250.605 384.204 251.061 384.204C251.517 384.204 251.853 384.336 252.069 384.6C252.309 384.84 252.429 385.152 252.429 385.536V385.824C252.429 386.232 252.309 386.568 252.069 386.832C251.853 387.072 251.517 387.192 251.061 387.192Z" fill="black"/>
<path d="M268.077 408.432C265.797 408.432 264.057 407.868 262.857 406.74C261.681 405.588 261.093 403.932 261.093 401.772V396.984C261.093 394.776 261.681 393.096 262.857 391.944C264.057 390.768 265.785 390.18 268.041 390.18C269.409 390.18 270.573 390.396 271.533 390.828C272.517 391.236 273.273 391.824 273.801 392.592C274.329 393.336 274.593 394.236 274.593 395.292C274.593 395.604 274.509 395.76 274.341 395.76H272.901C272.853 395.76 272.805 395.736 272.757 395.688C272.709 395.616 272.685 395.52 272.685 395.4C272.685 394.296 272.265 393.432 271.425 392.808C270.609 392.184 269.481 391.872 268.041 391.872C266.361 391.872 265.101 392.316 264.261 393.204C263.421 394.068 263.001 395.388 263.001 397.164V401.592C263.001 403.296 263.421 404.58 264.261 405.444C265.125 406.284 266.409 406.704 268.113 406.704C269.577 406.704 270.705 406.38 271.497 405.732C272.289 405.084 272.685 404.196 272.685 403.068C272.685 402.828 272.757 402.708 272.901 402.708H274.341C274.509 402.708 274.593 402.78 274.593 402.924C274.593 404.652 274.041 406.008 272.937 406.992C271.857 407.952 270.237 408.432 268.077 408.432Z" fill="black"/>
<path d="M289.816 408.432C287.56 408.432 285.844 407.892 284.668 406.812C283.492 405.732 282.904 404.148 282.904 402.06V396.984C282.904 394.752 283.48 393.06 284.632 391.908C285.784 390.756 287.476 390.18 289.708 390.18C291.964 390.18 293.656 390.756 294.784 391.908C295.936 393.036 296.512 394.704 296.512 396.912V399.324C296.512 399.468 296.44 399.54 296.296 399.54H284.812V401.556C284.812 403.308 285.22 404.604 286.036 405.444C286.876 406.284 288.16 406.704 289.888 406.704C291.304 406.704 292.384 406.44 293.128 405.912C293.872 405.36 294.244 404.592 294.244 403.608C294.244 403.44 294.34 403.356 294.532 403.356H295.936C296.08 403.356 296.164 403.428 296.188 403.572C296.236 405.084 295.696 406.272 294.568 407.136C293.464 408 291.88 408.432 289.816 408.432ZM284.812 397.884H294.604V397.092C294.604 395.34 294.196 394.032 293.38 393.168C292.564 392.304 291.352 391.872 289.744 391.872C288.088 391.872 286.852 392.316 286.036 393.204C285.22 394.068 284.812 395.364 284.812 397.092V397.884Z" fill="black"/>
<path d="M310.65 408.432C308.586 408.432 307.05 408 306.042 407.136C305.058 406.248 304.566 404.88 304.566 403.032C304.566 402.888 304.638 402.816 304.782 402.816H306.258C306.402 402.816 306.474 402.876 306.474 402.996C306.474 404.34 306.798 405.3 307.446 405.876C308.118 406.452 309.198 406.74 310.686 406.74C312.174 406.74 313.266 406.5 313.962 406.02C314.682 405.516 315.042 404.784 315.042 403.824C315.042 403.056 314.85 402.444 314.466 401.988C314.082 401.508 313.422 401.064 312.486 400.656L308.274 398.82C307.002 398.268 306.102 397.668 305.574 397.02C305.046 396.372 304.782 395.496 304.782 394.392C304.782 393 305.274 391.956 306.258 391.26C307.242 390.54 308.67 390.18 310.542 390.18C312.534 390.18 314.022 390.588 315.006 391.404C316.014 392.196 316.518 393.336 316.518 394.824C316.518 394.968 316.434 395.04 316.266 395.04H314.826C314.754 395.04 314.694 395.016 314.646 394.968C314.598 394.896 314.574 394.8 314.574 394.68C314.574 393.792 314.25 393.108 313.602 392.628C312.954 392.124 311.958 391.872 310.614 391.872C309.342 391.872 308.37 392.076 307.698 392.484C307.026 392.892 306.69 393.528 306.69 394.392C306.69 395.136 306.858 395.7 307.194 396.084C307.554 396.444 308.226 396.84 309.21 397.272L313.458 399.144C314.706 399.672 315.594 400.284 316.122 400.98C316.674 401.652 316.95 402.564 316.95 403.716C316.95 405.252 316.422 406.428 315.366 407.244C314.334 408.036 312.762 408.432 310.65 408.432Z" fill="black"/>
<defs>
<linearGradient id="paint0_linear_99_17327" x1="213.616" y1="-31.146" x2="214.718" y2="533.375" gradientUnits="userSpaceOnUse">
<stop stop-color="#F1471D"/>
<stop offset="0.1462" stop-color="#F1491D"/>
<stop offset="0.1989" stop-color="#F2501C"/>
<stop offset="0.2364" stop-color="#F35B19"/>
<stop offset="0.2668" stop-color="#F46C17"/>
<stop offset="0.2928" stop-color="#F68213"/>
<stop offset="0.3158" stop-color="#F89E0E"/>
<stop offset="0.3361" stop-color="#FABD09"/>
<stop offset="0.3473" stop-color="#FCD205"/>
<stop offset="0.7338" stop-color="#5E984B"/>
<stop offset="0.7428" stop-color="#5D9656"/>
<stop offset="0.7776" stop-color="#5B917A"/>
<stop offset="0.8143" stop-color="#5A8C98"/>
<stop offset="0.8529" stop-color="#5989AF"/>
<stop offset="0.8943" stop-color="#5886BF"/>
<stop offset="0.9402" stop-color="#5784C9"/>
<stop offset="1" stop-color="#5784CC"/>
</linearGradient>
</defs>
</svg>
