<svg width="101" height="108" viewBox="0 0 101 108" fill="none" xmlns="http://www.w3.org/2000/svg">
<g clip-path="url(#clip0)">
<path fill-rule="evenodd" clip-rule="evenodd" d="M38.7171 13.35C39.2311 13.35 39.9163 13.35 40.259 13.5211C39.9163 13.1788 39.2311 12.8365 38.3745 12.6654C38.3745 12.8365 38.5458 13.1788 38.7171 13.35ZM34.4343 19.1693C34.7769 19.1693 34.9482 19.1693 35.2908 19.1693C35.4622 19.1693 35.8048 19.1693 36.3187 19.1693C36.8327 19.1693 37.1753 18.9982 37.6892 18.827C38.0319 18.6558 38.3745 18.4847 38.7171 18.4847C39.0598 18.4847 39.4024 18.4847 39.5737 18.6558C39.9163 18.827 40.0876 18.827 40.259 19.1693C40.7729 19.6828 41.1155 20.0251 41.2869 20.5386C41.4582 21.052 41.4582 21.5655 41.4582 22.4213C41.4582 24.4752 41.2869 25.5021 40.9442 26.1867C40.6016 26.8714 40.259 26.8714 39.9163 27.0425C39.9163 27.0425 37.5179 27.2137 36.3187 27.0425C36.1474 27.0425 35.9761 27.0425 35.6335 26.8714C35.4621 26.8714 35.2908 26.8714 35.1195 26.7002C34.7769 26.7002 34.6056 26.5291 34.2629 26.5291C34.0916 26.5291 33.9203 26.3579 33.5777 26.1867C33.5777 26.1867 33.4064 26.0156 33.2351 26.0156C33.0637 25.8444 32.7211 25.6733 32.7211 25.6733L32.8924 25.8444C32.8924 26.0156 32.8924 26.3579 32.8924 26.5291C32.7211 27.7272 32.3785 28.4118 32.0359 28.9253C32.2072 28.9253 32.5498 28.9253 32.7211 28.9253C33.9203 28.7541 34.9482 28.7541 35.6335 28.7541C35.8048 28.7541 35.9761 28.7541 36.3187 28.7541C36.49 28.7541 36.6614 28.7541 36.8327 28.7541C37.004 28.7541 37.1753 28.7541 37.5179 28.9253C38.3745 29.0964 39.2311 29.2676 39.9163 29.6099C40.259 29.6099 41.1155 29.6099 41.9721 29.4387C42.4861 29.4387 43.1713 29.4387 43.5139 29.4387C43.6853 29.2676 44.0279 29.0964 44.1992 28.9253C44.3705 28.7541 44.7131 28.4118 44.8845 28.2406C45.9124 26.8714 46.7689 24.8175 46.255 23.1059L46.7689 22.9348C47.1116 24.8175 46.4263 26.8714 45.2271 28.4118C45.0558 28.7541 44.7131 28.9253 44.5418 29.0964C44.3705 29.2676 44.1992 29.2676 44.1992 29.4387C44.3705 29.4387 44.3705 29.4387 44.5418 29.6099C45.5697 29.9522 47.1116 30.4657 47.9681 32.3484C48.3108 32.5195 49.1673 33.033 49.3386 33.8888C49.51 33.8888 49.51 33.8888 49.6813 34.06C50.1952 34.4023 50.8805 34.7446 51.3944 35.0869C51.7371 32.3484 48.996 30.4657 48.996 30.4657L48.3108 29.9522H49.1673C50.3665 29.9522 51.0518 29.9522 51.5657 29.6099C52.0797 29.4387 52.4223 29.0964 52.7649 28.7541C53.4502 28.0695 53.7928 27.2137 53.7928 26.7002C49.6813 26.5291 49.6813 23.9617 49.6813 23.9617V23.6194H50.0239C52.5936 23.9617 53.6215 22.079 53.9641 21.3944C53.4502 21.3944 52.9363 21.2232 52.5936 21.052C52.0797 20.8809 51.7371 20.5386 51.3944 20.1963C50.8805 19.5116 50.8805 18.4847 50.8805 17.2866C50.8805 16.9443 50.8805 16.602 50.8805 16.2596H51.0518V16.0885C51.2231 16.0885 51.3944 16.0885 51.5657 16.0885C51.5657 15.9173 51.7371 15.7462 51.7371 15.7462C52.0797 15.4039 52.4223 14.8904 52.4223 13.0077C52.4223 11.8096 52.251 10.9538 52.0797 10.6115C51.2231 10.9538 50.5378 11.2961 50.0239 11.8096C49.51 12.323 49.3386 12.8365 49.3386 13.6923C49.1673 14.5481 49.3386 15.7462 49.3386 15.7462V16.0885H48.996C48.4821 16.0885 48.1394 16.0885 47.6255 15.9173C47.2829 15.7462 46.9402 15.575 46.5976 15.0615L46.9402 14.7192C47.2829 15.0615 47.4542 15.2327 47.7968 15.4039C47.9681 15.4039 48.3108 15.4039 48.6534 15.4039C48.6534 15.0615 48.6534 14.2058 48.6534 13.5211C48.8247 12.6654 48.996 11.9807 49.51 11.4673C49.8526 11.1249 50.3665 10.7826 51.0518 10.4403C50.5378 10.4403 50.0239 10.2692 49.3386 10.2692C48.4821 10.2692 47.9681 10.4403 47.4542 10.6115C46.9402 10.7826 46.5976 11.1249 46.4263 11.6384C46.255 11.9807 45.9123 12.4942 45.9123 13.1788C45.9123 13.35 45.9123 13.35 45.9123 13.5211C45.9123 13.6923 45.9123 13.6923 45.9123 13.8634L45.5697 14.0346C45.5697 13.8634 45.5697 13.8634 45.3984 13.6923C45.3984 13.5211 45.3984 13.35 45.3984 13.35C45.3984 12.6654 45.5697 11.9807 45.9123 11.6384C46.0837 11.2961 46.4263 10.9538 46.7689 10.7826C46.4263 10.7826 46.0837 10.7826 45.5697 10.7826C44.8845 10.7826 44.1992 10.7826 43.3426 10.7826C42.1434 10.7826 40.259 10.9538 38.8884 10.9538C38.5458 10.9538 38.3745 10.9538 38.0319 10.9538C37.8606 10.9538 37.5179 10.9538 37.3466 10.9538C37.3466 11.2961 37.1753 11.6384 37.1753 11.6384H37.004V11.8096C36.8327 11.8096 36.6614 11.8096 36.3187 11.8096C35.6335 11.8096 34.9482 11.9807 34.4343 12.1519C33.9203 12.323 33.5777 12.6654 33.4064 13.1788C33.4064 13.35 33.4064 13.35 33.4064 13.5211C33.4064 13.8634 33.5777 14.2058 33.749 14.2058C34.0916 14.2058 34.2629 14.0346 34.6056 14.0346C34.9482 13.6923 35.1195 13.5211 35.6335 13.6923V14.2058C35.2908 14.2058 34.9482 14.2058 34.7769 14.3769C34.6056 14.3769 34.2629 14.5481 33.749 14.7192C33.0637 14.8904 32.7211 15.0615 32.5498 15.4039C32.3785 15.7462 32.2072 16.2596 32.2072 17.1154C32.2072 17.9712 32.3785 18.6558 32.7211 18.9982C33.0637 19.1693 33.5777 19.1693 34.4343 19.1693ZM37.8606 12.323C37.8606 12.323 38.0319 11.6384 38.3745 11.4673L38.7171 11.8096C38.5458 11.9807 38.5458 11.9807 38.3745 12.1519C40.4303 12.323 41.1155 13.6923 41.1155 13.6923L41.4582 14.2058L40.9442 14.0346C40.6016 14.0346 39.5737 13.8634 38.7171 13.8634C38.5458 13.8634 38.3745 13.8634 38.3745 13.8634C38.2032 13.8634 38.2032 13.8634 38.0319 13.8634L37.8606 13.35C38.0319 13.35 38.0319 13.35 38.2032 13.35C38.0319 13.1788 38.0319 12.8365 38.0319 12.6654V12.4942H37.8606V12.323ZM9.59363 15.4039C10.1076 15.4039 11.1355 15.0615 11.6494 14.2058C11.4781 13.6923 10.4502 11.9807 7.70916 12.8365C8.39442 13.1788 9.42231 14.0346 9.59363 15.4039ZM17.3028 16.7731C17.6454 16.9443 17.988 16.9443 18.6733 16.9443C18.8446 16.602 18.8446 15.9173 18.6733 15.0615C18.6733 14.7192 18.502 14.3769 18.1594 14.0346C17.8167 13.6923 17.4741 13.5211 16.7888 13.35C16.9602 14.0346 17.3028 15.2327 16.6175 16.4308C16.7888 16.602 17.1315 16.7731 17.3028 16.7731ZM24.8406 20.8809C25.1833 21.3944 25.5259 21.7367 26.0398 22.079C26.8964 22.5924 27.9243 22.7636 29.1235 22.9348C30.1514 23.1059 31.3506 23.1059 32.5498 23.1059C32.8924 23.1059 33.2351 23.1059 33.5777 23.1059C34.7769 23.1059 36.1474 22.9348 37.5179 23.7905C39.2311 24.6463 39.745 25.8444 39.745 26.3579C39.9163 26.3579 40.0876 26.1867 40.259 25.8444C40.4303 25.5021 40.6016 24.8175 40.7729 23.6194C40.259 23.6194 39.4024 23.6194 38.8884 23.1059L38.5458 22.9348C37.8606 22.4213 37.3466 22.079 36.1474 22.079C35.4622 22.079 35.1195 22.2501 34.9482 22.2501C34.7769 22.4213 34.4343 22.5924 33.5777 22.5924C33.0637 22.5924 32.5498 22.5924 32.0359 22.5924C31.5219 22.5924 31.008 22.4213 30.6653 22.4213C29.8088 22.2501 28.9522 21.7367 28.2669 21.2232C28.0956 21.052 28.0956 21.052 27.9243 20.8809C27.753 20.7097 27.753 20.7097 27.5817 20.5386C27.0677 20.0251 26.8964 19.1693 26.8964 18.3135C26.8964 18.1424 26.8964 17.9712 26.8964 17.8001C26.8964 17.6289 26.8964 17.4577 27.0677 17.2866C27.239 16.7731 27.5817 16.2596 27.753 15.9173C27.753 15.9173 27.753 15.9173 27.5817 15.9173C26.7251 15.9173 25.8685 16.2596 25.1833 16.7731C24.498 17.2866 23.9841 17.9712 23.8127 18.827C23.8127 18.9982 23.8127 18.9982 23.8127 19.1693C24.3267 19.8539 24.498 20.3674 24.8406 20.8809ZM3.76892 22.079C3.59761 22.7636 3.76892 23.4482 4.11155 24.304C4.28287 24.6463 4.45418 24.9886 4.79681 25.1598C5.13944 25.331 5.48207 25.6733 5.8247 25.6733C6.68128 25.8444 7.70916 25.8444 8.90837 25.1598L9.07968 25.6733C8.05179 26.1867 7.19522 26.3579 6.33865 26.3579C6.16733 26.7002 5.99602 27.0425 5.99602 27.556C5.99602 27.8983 5.99602 28.4118 6.16733 28.7541C6.50996 28.9253 7.53785 29.2676 7.36653 31.3214C7.36653 31.3214 7.36653 31.3214 7.53785 31.3214C7.53785 31.3214 7.70916 31.4926 7.88048 31.4926C8.05179 31.4926 8.05179 31.6638 8.22311 31.6638C8.73705 31.8349 9.59363 32.0061 10.1076 32.0061C10.4502 32.0061 10.6215 32.0061 10.9641 31.8349C11.8207 31.6638 12.3347 31.1503 12.8486 30.6368C13.3625 30.1234 13.5339 29.4387 13.7052 29.0964C13.7052 28.9253 13.7052 28.7541 13.7052 28.5829C13.7052 28.4118 13.7052 28.2406 13.7052 28.2406V28.0695V27.8983C13.7052 27.7272 13.5339 27.3848 13.5339 27.3848L13.7052 27.0425C13.8765 27.2137 13.8765 27.3848 14.0478 27.7272V27.8983V28.0695C14.0478 28.2406 14.0478 28.4118 14.0478 28.5829C14.0478 28.7541 14.0478 28.9253 14.0478 29.0964C13.8765 29.4387 13.7052 29.9522 13.3626 30.2945C13.7052 30.4657 14.3904 30.808 15.0757 31.1503C16.9602 32.0061 19.5299 33.2042 20.2151 34.7446C20.2151 34.7446 20.3865 34.7446 20.3865 34.5734C20.5578 34.4023 20.7291 34.4023 20.9004 34.4023C20.9004 34.4023 20.9004 34.4023 21.0717 34.4023C20.5578 33.5465 20.3865 32.5195 20.3865 31.8349C19.1873 31.4926 17.6454 30.6368 16.6175 29.781C16.4462 29.6099 16.1036 29.4387 15.9323 29.2676C15.761 29.0964 15.5896 28.9253 15.4183 28.7541L15.761 28.4118C15.9323 28.5829 16.1036 28.7541 16.2749 28.9253C16.4462 29.0964 16.6175 29.2676 16.9602 29.4387C17.988 30.2945 19.3586 31.1503 20.5578 31.3214V31.1503V30.9791H20.7291C21.9283 30.9791 23.1275 30.9791 24.3267 30.9791C23.9841 30.6368 23.8127 30.2945 23.6414 29.9522C23.4701 29.4387 23.4701 28.7541 23.6414 28.0695V27.7272L23.9841 27.8983C23.9841 27.8983 25.012 28.4118 26.5538 28.5829C26.0398 28.4118 25.5259 28.2406 25.1833 27.8983C24.8406 27.7272 24.498 27.556 24.1554 27.3848C23.8127 27.2137 23.4701 27.0425 23.1275 26.8714C21.757 26.0156 20.2151 25.1598 19.0159 24.1329C18.8446 23.9617 18.502 23.7905 18.3307 23.6194C18.1594 23.4482 17.988 23.2771 17.8167 23.1059L17.6454 22.9348L17.988 22.7636C18.6733 22.2501 19.1873 21.9078 19.5299 21.3944C19.8725 20.8809 20.0438 20.3674 20.0438 19.5116C20.0438 18.827 19.8725 18.3135 19.5299 17.8001L19.3586 17.6289C19.3586 17.6289 19.1873 17.4577 19.0159 17.4577C19.0159 17.4577 18.8446 17.4577 18.8446 17.2866C18.1594 17.2866 17.6454 17.1154 17.3028 16.9443C16.9602 17.1154 16.7888 17.1154 16.4462 16.9443C16.4462 17.1154 16.4462 17.2866 16.4462 17.4577C16.4462 18.1424 16.4462 19.1693 15.9323 20.8809L15.4183 20.7097C15.9323 19.1693 15.9323 18.1424 15.9323 17.4577C15.9323 17.1154 15.9323 16.7731 15.9323 16.4308C15.761 15.9173 15.247 15.4039 14.5618 14.8904C14.0478 14.5481 13.1912 14.2058 11.992 14.3769C11.3068 15.575 9.76494 15.7462 9.42231 15.9173C9.07968 16.0885 8.73705 16.4308 8.56574 16.7731C8.56574 17.1154 8.56574 17.4577 8.56574 18.1424C8.73705 18.1424 8.90837 18.3135 9.07968 18.3135C9.42231 18.3135 9.76494 18.6558 10.2789 18.9982C10.6215 19.3405 10.9641 19.8539 11.4781 20.5386L11.1355 20.8809C10.6215 20.1963 10.2789 19.6828 9.93626 19.3405C9.59363 18.9982 9.42231 18.827 9.07968 18.827C8.73705 18.827 8.56574 18.6558 8.22311 18.6558C7.70916 18.4847 7.36653 18.4847 6.68128 18.3135C6.33865 18.3135 5.99602 18.3135 5.65339 18.4847C5.31076 18.6558 5.13944 18.9982 4.79681 19.3405C5.13944 21.052 4.11155 21.9078 3.76892 22.079ZM48.1394 9.92684V8.72874C47.9681 8.72874 47.4542 8.55759 47.1116 8.38643C46.255 8.21527 45.3984 8.21527 44.3705 8.21527C43.8566 8.21527 43.5139 8.21527 42.8287 8.21527C42.4861 8.21527 42.1434 8.21527 41.8008 8.21527C40.259 8.21527 38.7171 8.21527 37.6892 8.55759H37.5179C37.5179 8.8999 37.5179 9.58453 37.5179 10.098C37.6892 10.098 37.8606 10.098 38.2032 10.098C38.3745 10.098 38.7171 10.098 39.0598 10.098C40.4303 10.098 42.3147 9.92684 43.5139 9.92684C44.5418 9.92684 45.2271 9.92684 45.9123 9.92684C46.5976 9.92684 47.1116 9.92684 47.7968 10.098C47.7968 10.098 47.9681 9.92684 48.1394 9.92684ZM39.4024 5.13445C39.4024 5.64792 39.5737 5.99023 39.745 6.5037C39.9163 7.01717 40.0876 7.35949 40.259 7.87296C40.7729 7.87296 41.2869 7.87296 41.8008 7.87296C42.1434 7.87296 42.4861 7.87296 42.8287 7.87296V4.44982C42.3147 4.27866 41.1155 4.10751 40.7729 4.10751L40.6016 4.27866C40.4303 4.27866 40.259 4.44982 40.259 4.44982C39.745 4.62098 39.4024 4.79213 39.4024 5.13445ZM42.4861 2.56709C42.4861 2.90941 42.3147 3.25172 42.3147 3.42288C42.3147 3.59404 42.3147 3.76519 42.1434 3.76519C42.1434 3.76519 43.6853 3.76519 43.8566 3.76519C43.8566 3.42288 43.6853 2.56709 43.6853 2.56709C43.8566 2.56709 44.7131 2.73825 45.0558 2.73825V1.369C44.7131 1.369 43.6853 1.54015 43.6853 1.54015C43.6853 1.369 43.8566 0.342055 43.8566 0.170898H42.1434C42.1434 0.513212 42.3147 1.54015 42.3147 1.54015H42.1434C41.6295 1.54015 40.9442 1.369 40.7729 1.369C40.7729 1.71131 40.7729 2.56709 40.7729 2.90941L42.4861 2.56709ZM37.5179 8.21527C38.2032 8.04412 38.8884 8.04412 39.745 7.87296C39.745 7.35949 39.5737 7.01717 39.4024 6.67486C39.2311 6.16139 38.8884 5.64792 38.8884 5.13445C38.8884 4.44982 39.4024 4.27866 39.9163 3.93635C40.0876 3.93635 40.0876 3.76519 40.259 3.76519C40.0876 3.76519 39.9163 3.59404 39.745 3.59404C39.5737 3.59404 39.5737 3.59404 39.5737 3.59404H39.4024C39.2311 3.59404 39.0598 3.59404 38.8884 3.59404C38.2032 3.59404 37.5179 3.93635 37.1753 4.27866C37.1753 4.44982 37.004 4.44982 37.004 4.62098C37.004 4.79213 36.8327 4.96329 36.8327 4.96329C36.8327 5.13445 36.8327 5.13445 36.8327 5.3056C36.6614 6.67486 37.1753 7.7018 37.5179 8.21527C37.5179 8.21527 37.3466 8.21527 37.5179 8.21527ZM45.9123 7.87296C45.9123 7.35949 46.0837 6.84602 46.255 6.33255C46.4263 5.81908 46.5976 5.47676 46.5976 4.79213C46.5976 4.62098 46.255 4.27866 45.741 4.10751C45.3984 3.93635 45.2271 3.76519 45.0558 3.59404H44.8845C44.3705 3.76519 43.8566 3.93635 43.1713 4.10751V7.53064C43.5139 7.53064 43.8566 7.53064 44.0279 7.53064C44.8845 7.87296 45.3984 7.7018 45.9123 7.87296ZM47.1116 4.79213C47.1116 5.47676 46.9402 5.99023 46.7689 6.5037C46.5976 6.84602 46.4263 7.35949 46.4263 7.87296C46.7689 7.87296 46.9402 7.87296 47.2829 8.04411C47.6255 8.04411 48.1394 8.21527 48.3108 8.38643C48.6534 8.04412 49.3386 6.67486 49.3386 5.47676C49.3386 5.13445 49.3386 4.96329 49.1673 4.79213C48.996 4.44982 48.8247 4.10751 48.4821 3.93635C48.3108 3.59404 47.9681 3.42288 47.6255 3.25172C47.4542 3.25172 47.2829 3.25172 47.1116 3.25172C46.5976 3.25172 46.0837 3.42288 45.5697 3.59404C45.741 3.59404 45.9123 3.76519 45.9123 3.76519C46.5976 4.10751 47.1116 4.27866 47.1116 4.79213ZM6.33865 96.7034C5.8247 96.8745 5.48207 97.0457 5.31076 97.2169C4.28287 97.9015 4.6255 99.0996 4.79681 99.6131C5.13944 99.4419 5.65339 99.2707 6.16733 99.0996C6.68127 99.0996 7.36653 99.0996 8.05179 99.2707C8.73705 97.9015 8.22311 96.8745 8.22311 96.7034C7.36653 96.5322 6.85259 96.5322 6.33865 96.7034ZM51.7371 93.4514C52.7649 93.2802 53.6215 93.6226 53.7928 93.9649C53.9641 93.7937 54.4781 93.2802 54.4781 92.4245C54.4781 91.911 54.3068 91.7398 54.3068 91.5687C53.9641 91.5687 53.6215 91.5687 53.2789 91.5687C52.4223 91.5687 51.7371 91.911 51.2231 92.2533C50.7092 92.5956 50.3665 93.1091 50.3665 93.6226V93.7937C50.5378 93.6226 51.2231 93.6226 51.7371 93.4514ZM50.7092 100.127C50.3665 100.811 50.3665 101.667 50.3665 102.18C50.8805 101.838 52.0797 101.153 52.9363 101.153C53.2789 101.153 53.6215 101.325 53.9641 101.325C54.1355 100.811 54.3068 99.613 53.2789 98.5861C52.9363 98.5861 51.3944 98.9284 50.7092 100.127ZM58.5896 104.234C58.247 103.892 57.9044 103.892 57.7331 103.892C57.5618 103.892 57.5618 103.892 57.5618 103.892C57.3904 103.892 57.0478 104.234 56.7052 104.748C56.7052 104.919 56.5339 104.919 56.5339 105.09C56.5339 105.261 56.3626 105.261 56.3626 105.432C56.1912 105.946 56.0199 106.288 56.0199 106.802C56.0199 107.144 56.1912 107.657 56.3626 108C56.7052 107.657 57.3904 106.973 58.0757 106.63C58.5896 106.459 59.2749 106.288 59.6175 106.288C59.6175 105.946 59.6175 105.604 59.6175 105.432C59.1036 104.919 58.761 104.577 58.5896 104.234ZM43 90.1994C41.6295 89.3436 39.2311 88.3167 39.2311 88.3167L38.8884 88.1455L39.0598 87.9744C39.2311 87.8032 39.2311 87.6321 39.4024 87.4609C39.9163 86.7763 40.6016 85.9205 40.6016 84.7224C40.6016 84.2089 40.6016 83.8666 40.259 83.5243C40.0876 83.182 39.5737 82.8397 39.0598 82.4974C38.5458 82.155 37.8606 81.9839 37.1753 81.8127C36.49 81.6416 35.6335 81.6416 34.7769 81.6416C33.0637 81.6416 31.6932 80.7858 30.8367 79.5877C30.6653 79.4165 30.494 79.0742 30.3227 78.7319C30.1514 78.3896 30.1514 78.2184 30.1514 77.8761C30.1514 77.705 30.1514 77.5338 30.1514 77.3627C30.1514 76.1646 30.3227 75.1376 31.1793 74.2818C32.0359 73.426 33.5777 72.7414 36.1474 72.228C36.8327 72.0568 38.0319 72.228 38.8884 72.228C39.0598 72.228 39.4024 72.228 39.5737 72.228C38.8884 71.5433 38.2032 70.6875 37.8606 70.0029C37.6892 69.8318 37.6892 69.4894 37.5179 69.3183C37.5179 69.1471 37.3466 68.8048 37.3466 68.6337C37.3466 68.4625 37.3466 68.2913 37.3466 68.1202C37.3466 67.2644 37.5179 66.5798 37.6892 65.8951C37.6892 65.724 37.6892 65.5528 37.8606 65.5528C37.8606 65.3817 38.0319 65.2105 38.0319 65.2105C38.0319 65.0394 38.2032 65.0394 38.2032 64.8682C38.3745 64.5259 38.8884 64.1836 39.0598 63.8413C39.4024 63.4989 39.5737 63.3278 39.5737 63.3278C39.5737 63.3278 39.5737 63.3278 39.5737 63.1566C38.8884 62.9855 38.2032 62.8143 37.1753 62.8143C36.1474 62.8143 34.9482 62.8143 33.5777 63.1566C32.8924 63.3278 32.2072 63.3278 31.3506 63.3278C30.494 63.3278 29.6374 63.3278 28.9522 63.4989C27.753 63.6701 26.7251 64.0124 25.6972 64.1836C24.6693 64.5259 23.8127 64.8682 22.7849 65.2105C20.7291 66.2375 19.3586 67.0932 18.3307 68.2913C17.3028 69.3183 16.7888 70.5164 16.1036 71.7145C16.1036 71.8856 15.9323 72.0568 15.761 72.228C15.5896 72.3991 15.4183 72.5703 15.247 72.7414C14.2191 73.5972 11.992 74.7953 9.42231 75.3088C8.56574 75.1376 7.70916 75.3088 7.0239 75.1376C6.50996 75.1376 5.99602 74.7953 5.48207 74.453C5.48207 75.4799 5.99602 77.8761 8.90837 79.4165C9.251 79.5877 9.59363 79.7589 9.93626 79.93C10.2789 80.1012 10.6215 80.1012 10.9641 80.2723C12.8486 80.6146 14.9044 80.1012 16.7888 79.0742L17.1315 78.9031V79.2454C17.1315 79.2454 17.4741 80.7858 18.1594 81.4704C19.5299 82.8397 20.7291 84.0378 22.2709 84.8936C23.8127 85.7493 25.6972 86.434 28.4382 86.6051H28.6096V86.7763C28.6096 86.7763 28.6096 88.659 26.0398 91.5687C25.8685 91.7398 25.8685 91.7398 25.6972 91.911C25.5259 92.0821 25.3546 92.2533 25.012 92.4245C24.8406 92.5956 24.498 92.7668 24.3267 92.9379C23.1275 93.6226 21.757 94.136 20.5578 94.136C19.8725 94.136 19.3586 93.9649 18.8446 93.6226C18.502 93.2802 18.1594 92.5956 17.988 91.5687C17.8167 90.7129 17.6454 90.1994 17.3028 89.8571C16.9602 89.5148 16.2749 89.3436 15.4183 89.1725C15.247 89.1725 15.247 89.1725 15.0757 89.1725C14.9044 89.1725 14.9044 89.1725 14.7331 89.1725C14.2191 89.1725 13.8765 89.3436 13.7052 89.686C13.5339 90.0283 12.8486 91.5687 10.9641 91.911C10.6215 92.2533 10.4502 92.4245 10.2789 92.7668C10.1076 92.9379 10.1076 93.2802 10.1076 93.6226C10.7928 93.4514 11.3068 93.6226 11.8207 93.7937C12.6773 93.9649 13.3626 94.4783 14.2191 95.5053V95.8476C13.3626 94.9918 12.6773 94.4783 11.992 94.3072C11.3068 94.136 10.6215 94.136 9.76494 94.3072C8.22311 94.6495 8.39442 96.1899 8.39442 96.3611C8.56574 96.5322 9.251 97.7303 8.22311 99.6131C8.22311 100.127 8.39442 100.811 8.56574 101.325C8.90837 101.838 9.251 102.352 9.59363 102.352L9.76494 102.18C9.76494 102.18 9.76494 101.838 9.93626 101.496C10.1076 100.469 10.1076 99.0996 11.3068 98.0726C11.4781 97.9015 11.6494 97.9015 11.8207 97.7303C11.992 97.5592 12.1633 97.5592 12.506 97.5592C13.7052 97.2169 15.0757 97.2169 16.2749 97.7303L16.1036 98.2438C14.9044 97.7303 13.7052 97.7303 12.6773 98.0726C12.506 98.0726 12.3347 98.2438 12.1633 98.2438C11.992 98.2438 11.8207 98.4149 11.6494 98.5861C10.6215 99.4419 10.4502 100.811 10.4502 101.667C10.4502 102.009 10.4502 102.352 10.2789 102.523L10.4502 102.694C10.6215 102.694 10.6215 102.523 10.7928 102.523C11.1355 102.352 11.3068 102.18 11.6494 102.18C11.8207 102.18 11.992 102.18 12.1633 102.352C12.3347 102.523 12.6773 102.694 12.8486 102.865C13.0199 103.036 13.1912 103.378 13.3626 103.721C13.3626 103.892 13.5339 104.234 13.5339 104.577C13.5339 104.748 13.5339 104.919 13.5339 105.09V105.261C13.5339 105.432 13.5339 105.432 13.5339 105.604C13.5339 105.775 13.5339 105.775 13.3626 105.775C13.3626 105.946 13.5339 105.946 13.7052 106.117L13.8765 106.288C14.5618 106.63 15.4183 106.973 16.2749 106.973C16.4462 106.973 16.6175 106.973 16.7888 106.973C16.9602 106.973 17.1315 106.973 17.3028 106.802C17.4741 106.802 17.6454 106.63 17.8167 106.63C18.502 106.288 19.1873 105.604 19.7012 104.748C19.3586 104.234 19.1873 103.721 19.1873 103.207C19.1873 103.036 19.1873 102.865 19.1873 102.694C19.1873 102.523 19.1873 102.523 19.1873 102.352C19.1873 102.18 19.1873 102.18 19.3586 102.009C19.5299 101.496 19.7012 100.982 20.0438 100.811L20.3865 101.153C20.2151 101.496 19.8725 101.838 19.8725 102.18C19.8725 102.352 19.8725 102.352 19.7012 102.523C19.7012 102.694 19.7012 102.694 19.7012 102.865C19.7012 103.036 19.7012 103.207 19.7012 103.207C19.7012 103.721 19.8725 104.063 20.0438 104.577C20.3865 105.09 21.0717 105.604 22.0996 106.117C22.9562 106.63 23.8127 106.459 24.498 106.117C24.498 105.946 24.498 105.946 24.498 105.775C24.6693 105.432 24.8406 104.919 25.1833 104.577C25.5259 104.234 26.0398 104.063 26.7251 104.063C26.8964 104.063 27.239 104.063 27.5817 104.234C27.753 103.892 28.0956 103.55 28.2669 103.036C28.2669 102.865 28.2669 102.865 28.4382 102.694C28.4382 102.523 28.4382 102.523 28.4382 102.352C28.4382 102.18 28.4382 102.009 28.4382 102.009C28.4382 101.496 28.2669 100.982 27.9243 100.64C27.5817 100.298 27.239 99.9554 27.0677 99.7842C26.7251 99.4419 25.1833 98.9284 25.1833 98.9284L24.6693 98.7573L25.012 98.415C26.0398 97.7303 27.0677 97.5592 28.0956 97.7303C29.1235 97.7303 30.1514 98.0726 31.1793 98.5861C31.5219 98.2438 32.5498 97.388 33.5777 95.8476L33.749 95.6764H33.9203C33.9203 95.6764 38.2032 96.5322 38.5458 99.6131C39.0598 99.6131 40.259 99.613 41.4582 98.0726C41.9721 97.5592 41.9721 96.1899 41.8008 95.3341C41.8008 95.163 41.8008 94.9918 41.8008 94.9918C41.8008 94.8207 41.8008 94.8207 41.8008 94.8207C41.2869 93.9649 40.0876 93.1091 38.7171 92.5956C38.5458 92.4245 38.2032 92.4245 38.0319 92.2533C37.8606 92.2533 37.5179 92.0821 37.3466 92.0821L37.5179 91.5687C37.6892 91.5687 38.0319 91.7398 38.2032 91.7398C38.3745 91.7398 38.7171 91.911 39.0598 92.0821C40.4303 92.5956 41.8008 93.6226 42.3147 94.4783C42.3147 94.4783 42.3147 94.6495 42.4861 94.8207V94.9918C43 94.8207 43.3426 94.6495 43.6853 94.3072C44.0279 93.9649 44.1992 93.4514 44.1992 92.9379C44.1992 92.2533 44.1992 91.5687 44.0279 91.0552C43.6853 90.7129 43.5139 90.3706 43 90.1994ZM79.49 96.7034C78.8048 96.3611 77.0916 96.1899 76.5777 96.1899C76.4064 96.5322 76.2351 97.388 76.2351 98.2438C76.2351 98.415 76.2351 98.5861 76.2351 98.5861V98.7573C76.2351 98.9284 76.4064 98.9284 76.4064 99.0996L76.5777 99.2707C76.9203 99.0996 77.4343 98.7573 78.2908 98.7573C79.1474 98.7573 79.8327 98.9284 80.1753 99.2707C80.5179 98.7573 80.5179 97.388 79.49 96.7034ZM80.3466 73.7684C79.8327 73.7684 79.3187 73.9395 78.6335 73.9395C75.5498 74.453 74.8645 75.8222 74.8645 75.8222L74.3506 76.678V75.6511C74.3506 74.453 73.8367 73.0837 72.8088 72.228C72.6374 72.0568 72.2948 71.8856 72.1235 71.8856C71.9522 71.7145 71.6096 71.7145 71.2669 71.7145C71.0956 71.7145 70.9243 71.7145 70.753 71.7145C70.239 71.7145 69.3825 72.0568 68.5259 72.5703C68.3546 72.7414 68.1833 72.9126 68.012 72.9126C67.8406 73.0837 67.6693 73.2549 67.498 73.426C67.3267 73.5972 67.1554 73.7684 66.9841 73.9395C66.2988 74.7953 65.7849 75.3088 65.0996 75.6511C64.5857 75.9934 63.9004 76.1646 62.8725 76.1646C61.502 76.1646 60.4741 75.8222 59.7888 74.7953C59.1036 73.9395 58.5896 72.3991 58.4183 70.3452C58.0757 67.7779 57.7331 66.2375 57.2191 65.0394C56.7052 63.8413 56.1912 62.8143 55.1633 61.2739L55.506 60.9316C55.506 60.9316 57.7331 64.0124 63.5578 64.0124C65.4422 64.0124 67.3267 63.4989 69.0398 62.6432C69.3825 62.472 69.7251 62.3008 70.0677 62.1297C70.4104 61.9585 70.753 61.7874 70.9243 61.4451C71.0956 61.4451 71.0956 61.2739 71.2669 61.1028C72.2948 60.247 73.1514 59.3912 73.6653 58.1931C74.3506 56.995 74.6932 55.4546 74.6932 53.743C74.6932 51.3468 74.5219 50.8333 74.008 48.9506L73.8367 48.4371C73.494 46.7256 72.9801 45.014 72.4661 43.1313C71.9522 41.2486 71.4382 39.3658 70.9243 37.3119C70.0677 34.2311 69.0398 31.1503 68.5259 28.2406C67.8406 25.331 67.498 22.5924 67.498 20.3674C67.498 17.2866 68.012 16.2596 68.5259 15.2327V15.0615C69.0398 14.0346 69.5538 13.35 70.239 13.0077C70.9243 12.6654 71.6096 12.4942 72.4661 12.4942C74.5219 12.4942 75.5498 13.0077 76.0637 13.5211C76.5777 14.0346 76.5777 14.8904 76.5777 15.575C77.0916 15.575 77.7769 15.575 78.4621 15.575C79.1474 15.575 79.8327 15.575 80.5179 15.575C80.5179 15.0615 80.5179 14.7192 80.3466 14.2058C80.3466 13.8634 80.1753 13.35 80.004 13.0077C79.49 11.2961 78.1195 10.098 76.5777 9.58453C76.4064 9.58453 76.0637 9.41337 75.8924 9.41337C75.5498 9.41337 75.0359 9.24221 74.6932 9.24221C74.1793 9.24221 73.8367 9.24221 73.3227 9.07106C71.0956 9.07106 68.6972 9.58453 66.9841 10.7826C65.6135 11.8096 64.757 13.1788 64.243 14.7192C63.7291 16.2596 63.5578 17.9712 63.5578 19.8539C63.5578 22.7636 64.0717 25.8444 64.757 28.9253C65.4422 32.0061 66.4701 35.2581 67.3267 38.3389C68.012 40.7351 68.6972 43.1313 69.2112 45.5275C69.3825 46.2121 69.5538 46.7256 69.7251 47.5814L69.8964 47.9237C70.4104 49.6352 70.5817 50.8333 70.5817 53.4007C70.5817 53.743 70.5817 54.2565 70.4104 54.5988C70.0677 56.8238 68.8685 58.1931 67.3267 58.8777C65.9562 59.7335 64.243 59.9047 63.2151 60.0758C63.0438 60.0758 62.8725 60.0758 62.7012 60.0758C62.5299 60.0758 62.3586 60.0758 62.1872 60.0758C61.6733 60.0758 61.1594 59.9047 60.8167 59.9047C60.3028 59.7335 59.9602 59.5623 59.4462 59.3912C57.2191 58.3642 55.506 56.3104 54.3068 53.5718V53.4007C53.6215 51.6891 53.6215 49.6352 53.4502 47.7525C53.4502 47.4102 53.4502 46.8967 53.2789 46.5544C53.1076 46.3833 52.9363 46.2121 52.7649 46.0409C52.4223 45.6986 52.0797 45.1852 51.5657 44.8428C51.2231 44.5005 50.8805 44.1582 50.3665 43.9871C48.6534 42.6178 46.7689 42.1043 45.5697 42.1043C42.1434 42.1043 38.5458 45.3563 38.5458 45.3563L38.3745 45.5275L38.2032 45.3563C38.2032 45.3563 38.0319 45.1852 38.0319 45.014C38.0319 44.8428 38.0319 44.8428 37.8606 44.6717C37.6892 44.1582 37.6892 43.4736 37.6892 42.6178C36.8327 42.6178 35.6335 43.1313 34.0916 43.8159C33.749 43.9871 33.2351 44.1582 32.7211 44.3294C31.1793 45.014 29.6374 45.3563 28.0956 45.5275C27.753 45.5275 27.5817 45.5275 27.239 45.5275C26.8964 45.5275 26.7251 45.5275 26.3825 45.5275C25.012 46.3833 22.6135 47.4102 20.3865 48.4371L20.0438 48.6083C20.0438 48.6083 19.7012 48.7795 19.3586 49.1218C18.1594 49.8064 16.1036 51.3468 13.8765 52.3737L13.5339 52.5449V52.2026C13.5339 52.2026 13.7052 49.9776 11.992 48.266C10.9641 47.239 10.1076 47.4102 8.90837 47.4102C8.73705 47.4102 8.73705 47.4102 8.56574 47.4102C8.22311 48.9506 6.68127 49.1218 6.33865 49.1218C5.99602 49.4641 5.65339 49.8064 5.65339 49.9776C5.65339 50.1487 5.65339 50.491 5.65339 50.6622C5.8247 50.6622 5.8247 50.6622 5.99602 50.6622C6.16733 50.6622 6.33865 50.6622 6.50996 50.6622C6.85259 50.6622 7.0239 50.6622 7.36653 50.8333C7.70916 50.8333 7.88048 51.0045 8.22311 51.1756C9.42231 51.6891 10.4502 52.7161 10.7928 53.743L10.2789 53.9142C10.6215 52.7161 9.76494 51.8603 8.56574 51.3468C8.39442 51.1756 8.05179 51.1756 7.88048 51.0045C7.70916 51.0045 7.36653 50.8333 7.0239 50.8333C6.85259 50.8333 6.68128 50.8333 6.68128 50.8333C5.65339 50.8333 4.6255 51.1757 4.11155 51.6891C3.94024 51.8603 3.94024 51.8603 3.76892 52.0314C3.76892 52.2026 3.59761 52.3737 3.59761 52.5449C3.59761 52.7161 3.59761 52.7161 3.59761 52.8872C3.59761 53.0584 3.59761 53.2295 3.76892 53.4007C3.76892 53.743 3.94024 53.9142 3.94024 54.2565C3.94024 55.1123 3.59761 55.6257 3.42629 55.7969V55.968C3.42629 56.1392 3.42629 56.1392 3.59761 56.3104C3.76892 56.8238 4.11155 57.3373 4.6255 57.6796C5.13944 57.1661 5.65339 56.6527 6.33865 56.4815C6.85259 56.4815 7.36653 56.3104 7.88048 56.3104V56.8238C7.36653 56.8238 7.0239 56.995 6.50996 57.1661C5.8247 57.5085 5.31076 57.8508 4.79681 58.3642C4.45418 58.8777 4.28287 59.3912 4.28287 60.0758C4.28287 60.247 4.28287 60.4181 4.45418 60.7604C4.6255 60.9316 4.96813 61.1028 5.31076 61.2739L5.48207 61.4451L5.65339 61.6162C5.99602 62.1297 5.8247 63.3278 5.8247 63.6701L5.99602 63.8413C6.16733 64.0124 6.16733 64.0124 6.33865 64.1836C6.50996 64.3547 6.68127 64.3547 6.85259 64.5259C7.53785 64.8682 8.39442 65.0394 9.251 65.0394C9.42231 65.0394 9.59363 65.0394 9.59363 65.0394C9.76494 65.0394 10.1076 65.0394 10.2789 64.8682C10.4502 64.8682 10.7928 64.697 10.9641 64.697C11.8207 64.3547 12.506 63.6701 12.6773 62.9855C12.3347 62.6432 12.1633 62.1297 11.992 61.7874C11.8207 61.1027 11.6494 60.5893 11.8207 59.9047C11.8207 59.5623 11.992 59.22 12.3347 58.8777L12.6773 59.22C12.506 59.3912 12.3347 59.7335 12.3347 59.9047C12.3347 60.4181 12.3347 60.9316 12.506 61.4451C12.6773 61.9585 13.0199 62.472 13.3626 62.9855C13.7052 63.3278 14.2191 63.6701 14.5618 63.6701C15.5896 63.8413 16.6175 63.6701 17.1315 63.3278C17.3028 63.3278 17.3028 63.1566 17.4741 63.1566C17.6454 63.1566 17.6454 62.9855 17.6454 62.9855C17.6454 62.6432 18.1594 60.9316 19.7012 60.7604C19.8725 60.5893 19.8725 60.247 20.0438 59.9047C20.0438 59.7335 20.0438 59.7335 20.0438 59.5623C20.0438 59.3912 20.0438 59.3912 20.0438 59.22C20.0438 59.0489 20.0438 58.8777 20.0438 58.7066C20.0438 57.3373 19.5299 56.3104 18.8446 55.6257C18.6733 55.4546 18.502 55.2834 18.502 55.2834C18.3307 55.1123 18.1594 55.1123 18.1594 54.9411C18.1594 54.9411 17.988 54.9411 17.988 54.7699L18.1594 54.2565C18.1594 54.2565 18.3307 54.2565 18.3307 54.4276C18.502 54.5988 18.6733 54.5988 18.8446 54.7699C19.0159 54.9411 19.1873 55.1123 19.3586 55.2834C19.7012 55.6257 20.0438 56.1392 20.2151 56.6527C21.4143 56.4815 22.6135 55.968 23.6414 55.6257C23.8127 55.6257 23.9841 55.4546 24.1554 55.4546H24.3267L24.498 55.6257C24.498 55.6257 26.2112 58.3642 29.8088 58.3642C29.9801 58.3642 30.1514 58.3642 30.3227 58.3642C30.6653 58.3642 30.8367 58.3642 31.1793 58.3642C31.5219 58.3642 31.6932 58.1931 31.8645 58.1931C32.7211 58.0219 33.5777 57.6796 34.2629 57.1661C34.0916 57.1661 33.9203 57.1661 33.9203 57.1661C33.5777 57.1661 33.4064 56.995 33.0637 56.8238C31.6932 56.3104 30.6653 55.2834 29.9801 54.0853L30.494 53.9142C31.008 54.9411 32.0359 55.968 33.2351 56.3104C33.4064 56.4815 33.749 56.4815 34.0916 56.6527C34.4343 56.6527 34.6056 56.8238 34.9482 56.8238C35.1195 56.8238 35.2908 56.8238 35.2908 56.8238C35.8048 56.8238 36.3187 56.6527 36.8327 56.4815C37.3466 56.3104 38.0319 55.968 38.5458 55.4546C39.5737 54.7699 40.0876 53.9142 40.0876 53.5718C36.6614 53.743 35.9761 51.8603 35.9761 51.8603L35.8048 51.6891L35.9761 51.518C38.3745 50.6622 40.9442 49.9775 43.5139 50.1487C44.0279 50.1487 44.5418 50.1487 45.0558 50.3199C45.5697 50.3199 46.0837 50.491 46.5976 50.6622H46.7689V50.8333C46.7689 50.8333 47.4542 53.4007 50.5378 53.2295V53.743C50.0239 53.743 49.51 53.743 48.996 53.5718C48.996 53.743 48.996 53.743 48.996 53.9142C48.996 54.4276 49.3386 54.7699 49.6813 55.2834C50.0239 55.6257 50.7092 55.968 51.3944 56.1392C51.7371 56.1392 52.251 56.3104 52.5936 56.1392V56.6527C52.0797 56.6527 51.5657 56.6527 51.2231 56.6527C50.5378 56.4815 49.8526 56.1392 49.3386 55.6257C48.8247 55.1123 48.4821 54.5988 48.4821 53.9142C48.4821 53.743 48.4821 53.5718 48.4821 53.4007C46.9402 52.7161 46.4263 51.518 46.255 51.1756C45.741 51.0045 45.3984 51.0045 44.8845 50.8333C44.3705 50.8333 43.8566 50.6622 43.3426 50.6622C40.9442 50.491 38.5458 51.0045 36.3187 51.8603C36.6614 52.3737 37.6892 53.2295 40.259 53.0584H40.6016V53.4007C40.6016 53.4007 40.4303 54.7699 38.7171 55.968C38.2032 56.3104 37.5179 56.6527 37.004 56.995C36.8327 56.995 36.6614 57.1661 36.49 57.1661C36.8327 57.6796 37.3466 57.8508 38.3745 58.1931C38.5458 58.3642 38.8884 58.3642 39.2311 58.5354C39.5737 58.7066 39.9163 58.8777 40.0876 59.0489C40.4303 59.22 40.6016 59.5623 40.7729 59.7335C40.9442 59.9047 41.2869 60.247 41.4582 60.5893C42.1434 61.6162 42.6574 62.9855 42.6574 63.4989C42.6574 63.6701 42.6574 63.8413 42.6574 64.0124C42.6574 64.8682 42.4861 65.724 42.3147 66.5798C42.1434 67.7779 41.9721 68.8048 41.9721 69.6606C41.9721 70.5164 42.1434 71.201 42.4861 71.7145C42.6574 72.228 43 72.9126 43 73.5972C43.1713 74.7953 43.1713 75.8222 43.5139 76.8492C43.8566 77.8761 44.1992 78.7319 44.7131 79.7588C44.8845 80.1012 45.2271 80.6146 45.3984 80.9569C46.5976 82.6685 47.4542 84.2089 47.4542 85.5782C47.4542 86.9474 47.1116 87.9744 46.9402 88.3167C47.4542 88.3167 48.4821 88.1455 49.51 87.4609C50.1952 87.1186 50.7092 86.6051 51.3944 85.9205C51.9084 85.2359 52.4223 84.5512 52.9363 83.5243C52.251 83.0108 51.3944 82.3262 50.8805 81.6416C50.5378 81.1281 50.0239 80.6146 49.8526 80.1012C49.51 79.5877 49.3386 79.0742 49.3386 78.3896C49.3386 78.2184 49.3386 78.0473 49.3386 77.8761H49.8526C49.8526 78.0473 49.8526 78.2184 49.8526 78.3896C50.0239 78.9031 50.1952 79.4165 50.3665 79.93C50.7092 80.4435 51.0518 80.9569 51.3944 81.2993C53.4502 83.5243 56.7052 85.2359 59.1036 85.2359C62.3586 85.2359 65.4422 83.5243 65.4422 83.5243L65.6135 83.3531L65.7849 83.5243C65.9562 83.6955 65.9562 84.0378 66.1275 84.3801C66.2988 84.7224 66.2988 85.0647 66.2988 85.407C66.6414 87.4609 66.8128 90.0283 66.6414 91.911C66.4701 92.5956 66.2988 93.1091 66.1275 93.4514C65.7849 93.7937 65.4422 93.7937 64.757 93.7937C63.9004 93.7937 63.5578 93.7937 63.2151 93.6226C62.8725 93.4514 62.7012 93.2802 62.5299 92.9379C61.6733 91.7398 60.8167 90.884 59.9602 90.3706C59.1036 89.8571 58.4183 89.686 57.3904 89.686C55.6773 89.686 55.3347 90.3706 55.1633 90.884C55.3347 91.0552 55.3347 91.3975 55.3347 92.0821C55.3347 93.2802 54.6494 93.9649 54.3068 94.136C54.3068 94.3072 54.3068 94.6495 54.3068 94.9918C54.3068 95.3341 54.4781 95.5053 54.4781 95.8476C54.6494 95.6764 54.8207 95.6764 54.992 95.5053C55.1633 95.3341 55.506 95.163 55.6773 95.163H55.8486C56.0199 95.163 56.0199 95.163 56.1912 95.163C56.8765 95.163 57.9044 95.163 58.4183 95.3341L58.247 95.8476C57.5618 95.8476 56.5339 95.8476 56.0199 95.8476C55.8486 95.8476 55.8486 95.8476 55.6773 95.8476C55.506 95.8476 55.506 95.8476 55.506 95.8476C55.3347 95.8476 55.1633 96.0188 54.992 96.0188C54.8207 96.1899 54.6494 96.3611 54.4781 96.3611C53.9641 96.8745 53.7928 97.5592 53.6215 98.0726C53.6215 98.0726 53.6215 98.0726 53.6215 98.2438C54.992 99.4419 54.6494 101.153 54.4781 101.496C54.4781 101.667 54.6494 101.667 54.6494 101.838C54.6494 102.009 54.8207 102.18 54.8207 102.18C55.1633 102.694 55.6773 103.036 56.3626 103.207C56.3626 102.352 56.3626 101.325 56.8765 100.298C57.3904 99.4419 57.9044 99.0996 58.4183 98.7573C59.1036 98.5861 59.7888 98.4149 60.6454 98.5861V99.0996C59.9602 98.9284 59.2749 98.9284 58.761 99.2707C58.247 99.4419 57.7331 99.9554 57.3904 100.64C56.8765 101.496 56.8765 102.694 56.8765 103.379C56.8765 103.55 56.8765 103.55 56.8765 103.721C57.0478 103.55 57.2191 103.55 57.3904 103.379C57.5618 103.379 57.5618 103.379 57.7331 103.379C58.0757 103.379 58.5896 103.55 58.9323 103.892C59.2749 104.234 59.6175 104.748 59.7888 105.432C59.7888 105.775 59.9602 106.117 59.7888 106.459C59.9602 106.459 60.1315 106.63 60.3028 106.63C60.988 106.973 61.502 107.144 62.0159 107.315C62.5299 107.315 63.0438 107.315 63.7291 107.144C64.9283 106.973 65.9562 106.459 66.4701 105.432C67.1554 104.577 67.3267 103.207 67.498 101.325V101.153H67.6693C67.6693 101.153 67.8406 101.153 68.1833 101.153C67.6693 100.811 67.498 100.298 67.3267 98.9284L67.8406 98.7573C68.1833 100.64 68.3546 100.64 69.2112 101.325L69.3825 101.496C71.0956 102.523 72.4661 102.865 73.8367 102.523C74.008 102.523 74.3506 102.352 74.5219 102.352C74.6932 102.352 75.0359 102.18 75.2072 102.18C76.2351 101.667 76.4064 100.811 76.5777 100.127C76.5777 99.9554 76.5777 99.9554 76.5777 99.7842C76.4064 99.613 76.4064 99.613 76.2351 99.4419C76.0637 99.2707 76.0637 99.0996 75.8924 98.9284V98.7573C75.8924 98.5861 75.8924 98.415 75.8924 98.2438C75.8924 97.2169 76.2351 96.3611 76.4064 96.0188C76.2351 95.5053 75.8924 94.9918 75.5498 94.8207C75.2072 94.4783 74.6932 94.3072 74.3506 94.3072C72.9801 94.136 71.7809 95.163 71.7809 95.163L71.0956 95.6764L71.2669 94.9918C72.4661 90.7129 75.5498 90.1994 76.5777 90.1994C76.4064 87.6321 76.4064 84.8936 76.4064 84.8936V84.5512H76.749C78.4621 84.7224 79.6614 84.3801 80.5179 84.0378C81.3745 83.6955 81.8884 83.182 82.2311 82.4974C82.5737 81.8127 82.745 81.2993 82.745 80.6146C82.745 79.93 82.5737 79.2454 82.4024 78.5608C81.8884 78.9031 81.2032 79.0742 80.6892 79.0742C79.6614 79.0742 78.6335 79.2454 77.7769 79.4165C76.9203 79.5877 76.4064 79.7589 76.2351 80.1012L75.7211 79.93C75.8924 79.4165 76.749 79.0742 77.6056 78.9031C78.4621 78.7319 79.6614 78.7319 80.5179 78.5608C81.8884 78.5608 82.9163 77.705 83.6016 76.3357C83.7729 75.9934 83.7729 75.8222 83.9442 75.4799C83.9442 75.1376 84.1155 74.9665 84.1155 74.6241C84.1155 74.453 84.1155 74.2818 84.1155 74.2818C84.1155 73.0837 83.6016 72.2279 83.259 71.8856C82.5737 73.5972 82.0598 73.5972 80.3466 73.7684ZM25.3546 53.2295C23.4701 53.9142 22.2709 54.2565 21.243 54.4276V53.9142C22.2709 53.743 23.4701 53.4007 25.3546 52.7161C26.0398 52.3737 26.8964 52.2026 27.9243 51.8603L28.0956 52.3737C26.8964 52.7161 26.0398 52.8872 25.3546 53.2295ZM42.1434 63.8413C42.1434 63.6701 42.1434 63.4989 42.1434 63.3278C42.1434 62.8143 41.8008 61.6162 41.1155 60.5893C40.9442 60.247 40.7729 60.0758 40.6016 59.9047C40.4303 59.7335 40.0876 59.3912 39.9163 59.22C39.745 59.0489 39.4024 58.8777 39.0598 58.7066C38.8884 58.7066 38.8884 58.7066 38.7171 58.5354C38.3745 58.8777 38.0319 59.3912 37.8606 59.7335L37.6892 60.0758C38.3745 60.4181 39.9163 61.6162 40.0876 63.3278C40.0876 63.6701 39.745 63.8413 39.4024 64.1836C39.0598 64.5259 38.7171 64.8682 38.5458 65.2105C38.5458 65.2105 38.5458 65.3817 38.3745 65.3817C38.3745 65.5528 38.2032 65.5528 38.2032 65.724C38.2032 65.8951 38.2032 65.8951 38.0319 66.0663C37.8606 66.7509 37.8606 67.4356 37.8606 68.2913C37.8606 68.4625 37.8606 68.6337 37.8606 68.8048C37.8606 68.976 37.8606 69.1471 38.0319 69.3183C38.0319 69.4894 38.2032 69.6606 38.2032 69.8318C38.7171 70.6875 39.4024 71.7145 40.259 72.3991C40.4303 72.3991 40.6016 72.3991 40.7729 72.3991C41.1155 72.3991 41.4582 72.3991 41.8008 72.3991C41.8008 72.2279 41.6295 71.8856 41.6295 71.7145C41.4582 71.0299 41.1155 70.3452 41.1155 69.4894C41.1155 68.4625 41.2869 67.4356 41.4582 66.2375C41.9721 65.3817 42.1434 64.5259 42.1434 63.8413ZM20.0438 64.697C20.3865 64.3547 20.7291 63.8413 20.7291 63.1566C20.7291 62.9855 20.7291 62.9855 20.7291 62.8143C20.7291 62.6432 20.7291 62.6432 20.7291 62.472C20.5578 61.9585 20.0438 61.2739 19.8725 61.1028C18.6733 61.1028 18.3307 62.3009 18.1594 62.8143C19.0159 63.1566 19.7012 64.1836 20.0438 64.697ZM13.8765 83.5243C15.0757 84.0378 16.4462 84.2089 17.988 83.8666C18.502 83.6955 19.0159 83.5243 19.7012 83.3531C19.1873 82.8397 18.6733 82.3262 17.988 81.8127C17.3028 81.1281 16.9602 80.1012 16.9602 79.5877C15.0757 80.6146 13.0199 80.9569 11.1355 80.6146C11.1355 80.7858 11.3068 80.957 11.3068 81.1281C11.8207 82.1551 12.6773 83.0108 13.8765 83.5243ZM10.4502 88.3167C10.2789 88.3167 10.1076 88.3167 9.76494 88.4879C9.59363 88.4879 9.59363 88.659 9.42231 88.659C9.251 88.8302 8.90837 89.0013 8.73705 89.1725C8.56574 89.1725 8.56574 89.3436 8.56574 89.3436C9.251 89.5148 10.7928 90.1994 11.3068 91.3975C12.6773 91.0552 13.1912 90.0283 13.3626 89.686C12.8486 89.1725 12.1633 88.8302 11.4781 88.659C11.3068 88.659 11.1355 88.4879 10.9641 88.4879C10.7928 88.4879 10.6215 88.4879 10.6215 88.4879C10.6215 88.3167 10.6215 88.3167 10.4502 88.3167ZM52.0797 16.0885C52.0797 16.0885 52.0797 16.2596 51.9084 16.2596H52.0797C53.1076 16.4308 54.3068 16.7731 55.3347 17.4577C56.1912 17.9712 56.7052 18.4847 57.2191 18.9982C57.7331 19.5116 58.0757 20.0251 58.247 20.8809C58.4183 21.2232 58.4183 21.5655 58.5896 21.9078C62.0159 22.079 62.3586 19.5116 62.3586 18.827C61.3307 18.6558 60.4741 18.3135 59.6175 17.9712C58.761 17.4577 58.247 16.7731 57.5618 15.575C57.3904 15.0615 56.7052 14.3769 56.0199 13.6923C55.8486 13.5211 55.8486 13.5211 55.6773 13.35C55.506 13.1788 55.506 13.1788 55.3347 13.1788C54.8207 13.0077 54.4781 12.6654 53.9641 12.6654C53.4502 12.4942 53.1076 12.4942 52.5936 12.4942C52.5936 12.6654 52.5936 13.0077 52.5936 13.35C52.7649 15.0615 52.251 15.575 52.0797 16.0885ZM12.506 103.036C12.506 102.865 12.3347 102.694 12.1633 102.694C11.992 102.694 11.992 102.694 11.8207 102.694C11.6494 102.694 11.4781 102.694 11.3068 102.865C11.1355 103.036 10.9641 103.207 10.7928 103.379C10.6215 103.55 10.4502 103.721 10.4502 104.063C10.2789 104.405 10.2789 104.748 10.2789 105.09C10.2789 105.604 10.4502 105.946 10.6215 106.288C10.9641 105.946 11.8207 105.432 13.1912 105.432C13.1912 105.432 13.1912 105.432 13.1912 105.261V105.09C13.1912 105.09 13.1912 105.09 13.1912 104.919C13.1912 104.748 13.1912 104.577 13.1912 104.577C13.1912 104.405 13.1912 104.063 13.0199 103.892C12.8486 103.55 12.6773 103.379 12.506 103.036ZM26.7251 104.577C26.2112 104.577 25.6972 104.748 25.3546 105.09C25.012 105.261 24.8406 105.604 24.6693 105.946V106.117C25.8685 106.63 26.2112 107.657 26.2112 108.171C27.9243 107.144 27.4104 105.261 27.4104 104.748C27.239 104.748 26.8964 104.577 26.7251 104.577ZM33.749 25.5021C34.0916 25.6733 34.2629 25.8444 34.4343 25.8444C34.6056 25.8444 34.7769 26.0156 35.1195 26.0156H35.2908L35.1195 25.8444C34.9482 25.5021 34.9482 25.331 34.9482 24.9886V24.8175C34.9482 24.4752 34.9482 24.304 34.9482 24.1329C34.4343 24.1329 34.2629 24.1329 34.2629 24.304V24.4752C33.9203 24.9886 34.2629 24.4752 34.2629 24.4752C34.2629 24.6463 34.0916 24.8175 34.0916 24.9886C33.9203 24.9886 33.749 25.331 33.749 25.5021ZM21.0717 31.6638C21.0717 32.5195 21.243 35.4292 23.9841 35.0869C23.8127 34.2311 23.9841 33.033 23.9841 33.033V32.8619H24.1554C24.1554 32.8619 24.498 32.8619 25.5259 32.8619C28.2669 32.8619 30.3227 32.6907 31.6932 32.3484C33.0637 32.0061 34.0916 31.6638 34.9482 31.3214C36.1474 30.6368 37.6892 29.9522 38.5458 29.4387H38.7171C38.2032 29.2676 37.6892 29.0964 37.004 28.9253C36.8327 28.9253 36.6614 28.9253 36.3187 28.7541C36.1474 28.7541 35.9761 28.7541 35.8048 28.7541C35.6335 28.7541 35.2908 28.7541 35.2908 28.7541C34.9482 28.7541 34.2629 28.7541 33.5777 28.9253C33.2351 29.0964 32.8924 29.4387 32.5498 29.6099C32.2072 29.781 31.6932 29.9522 31.1793 30.2945C28.7809 31.3215 25.1833 31.8349 21.0717 31.6638ZM17.3028 47.4102C18.1594 47.9237 19.1873 48.0948 20.7291 48.0948L21.0717 47.9237C22.9562 47.0679 25.1833 46.2121 26.5538 45.3563C25.6972 45.1852 25.012 44.5005 24.498 43.6447C24.3267 43.4736 24.3267 43.1313 24.1554 42.9601C24.1554 42.789 24.1554 42.6178 23.9841 42.4466C23.2988 42.6178 22.9562 42.6178 22.7849 42.6178C21.4143 43.4736 20.2151 44.1582 19.0159 44.6717C17.988 45.1852 16.9602 45.3563 15.9323 45.5275C16.2749 46.2121 16.6175 46.8967 17.3028 47.4102ZM39.0598 44.5005C39.9163 43.8159 43 41.4197 46.0837 41.4197C47.4542 41.4197 49.3386 41.9332 51.2231 43.3024C51.5657 43.6447 52.0797 43.9871 52.4223 44.3294C52.7649 44.6717 53.2789 45.014 53.6215 45.5275C53.7928 45.6986 53.9641 46.0409 54.1355 46.2121C55.1633 47.0679 56.0199 47.5814 56.8765 47.9237C57.7331 48.266 58.5896 48.266 59.4462 48.266C62.8725 48.266 64.243 45.014 64.5857 43.8159H64.4143C64.243 43.8159 64.243 43.8159 64.0717 43.8159C63.3865 43.9871 62.7012 43.9871 61.8446 43.9871C61.6733 43.9871 61.502 43.9871 61.3307 43.9871C60.988 43.9871 60.6454 43.9871 60.1315 43.8159C59.7888 43.8159 59.4462 43.6447 58.9323 43.6447C57.0478 43.1313 55.3347 42.1043 53.9641 40.0505L53.7928 39.8793C53.6215 39.7081 53.4502 39.537 53.1076 39.3658C52.7649 39.1947 52.4223 39.0235 52.0797 38.8524C50.3665 37.9966 47.6255 36.9696 45.9123 36.9696C44.1992 36.9696 42.4861 37.3119 42.3147 37.3119C40.7729 37.9966 39.9163 38.6812 39.4024 39.537C38.8884 40.2216 38.7171 41.0774 38.5458 42.1043C38.3745 43.1313 38.5458 43.8159 38.7171 44.3294C38.8884 44.5005 39.0598 44.5005 39.0598 44.5005ZM27.239 45.014C27.4104 45.014 27.753 45.014 27.9243 45.014C28.2669 45.014 28.4382 45.014 28.7809 45.014C30.1514 44.8428 31.6932 44.5005 33.2351 43.8159C33.749 43.6447 34.0916 43.4736 34.6056 43.3024C36.1474 42.6178 37.3466 42.1043 38.3745 42.1043C38.5458 41.0774 38.7171 40.2216 39.2311 39.537C39.745 38.8524 40.4303 38.3389 41.6295 37.6543C40.7729 37.6543 39.2311 37.6543 38.0319 37.9966C36.6614 38.3389 35.9761 38.6812 35.2908 39.0235C34.6056 39.3658 33.9203 39.7081 32.8924 39.8793C32.7211 40.0505 32.3785 40.2216 32.0359 40.3928C31.6932 40.5639 31.1793 40.7351 30.6653 40.9062C27.5817 42.1043 26.2112 42.2755 25.1833 42.4466C25.012 42.4466 25.012 42.4466 24.8406 42.4466H24.6693C24.6693 42.6178 24.6693 42.789 24.8406 42.9601C24.8406 43.1313 25.012 43.3024 25.012 43.4736C25.3546 44.3294 26.3825 45.014 27.239 45.014ZM32.3785 29.2676C32.5498 29.2676 32.5498 29.0964 32.7211 29.0964C32.7211 29.0964 32.5498 29.0964 32.3785 29.2676C31.5219 29.2676 30.494 29.2676 29.4661 29.4387C29.2948 29.4387 29.2948 29.4387 29.1235 29.4387C28.9522 29.4387 28.7809 29.4387 28.7809 29.4387C26.5538 29.4387 24.6693 28.7541 23.9841 28.5829C23.9841 29.0964 23.9841 29.6099 23.9841 29.9522C24.1554 30.4657 24.3267 30.808 24.8406 31.1503C27.239 30.9791 29.2948 30.4657 31.008 29.781C31.5219 29.6099 32.0359 29.4387 32.3785 29.2676ZM76.4064 15.9173C76.2351 15.9173 76.2351 15.9173 76.0637 15.9173C75.8924 15.9173 75.7211 15.9173 75.7211 16.0885C75.5498 16.0885 75.5498 16.0885 75.3785 16.2596C74.8645 16.4308 74.6932 16.9443 74.6932 17.6289C74.6932 17.8001 74.6932 17.9712 74.6932 18.1424C74.6932 18.3135 74.6932 18.3135 74.6932 18.4847C74.6932 18.6558 74.6932 18.6558 74.8645 18.6558C75.0359 18.9982 75.3785 19.1693 75.7211 19.1693C75.8924 19.1693 76.0637 19.1693 76.2351 19.1693C76.4064 19.1693 76.749 19.1693 76.9203 19.1693C78.2908 19.1693 80.3466 19.1693 81.0319 18.9982C81.2032 18.9982 81.2032 18.9982 81.3745 18.827C81.5458 18.827 81.5458 18.6558 81.7171 18.4847C81.7171 18.3135 81.8884 18.1424 81.8884 18.1424C82.0598 17.8001 82.0598 17.4577 82.0598 17.2866C82.0598 17.1154 82.0598 16.9443 82.0598 16.9443C82.0598 16.7731 81.8884 16.4308 81.7171 16.2596C81.5458 16.0885 81.3745 15.9173 81.2032 15.9173C81.0319 15.9173 81.0319 15.9173 80.8606 15.9173C80.3466 15.9173 79.49 15.9173 78.6335 15.9173C77.7769 15.7462 76.9203 15.9173 76.4064 15.9173ZM1.37052 20.1963C2.39841 20.1963 3.08367 20.7097 3.76892 21.5655C4.11155 21.3944 4.6255 20.7097 4.45418 19.3405C4.11155 19.1693 2.74104 18.4847 1.71315 18.827C1.02789 19.1693 0.685259 19.6828 0.513944 20.1963C0.685259 20.1963 0.685259 20.1963 0.856574 20.1963C0.856574 20.1963 1.1992 20.1963 1.37052 20.1963ZM83.6016 20.0251C83.259 19.8539 83.0876 19.6828 82.745 19.6828C82.4024 19.5116 82.2311 19.5116 81.8884 19.5116C81.7171 19.5116 81.7171 19.5116 81.5458 19.5116C81.3745 19.6828 81.2032 19.6828 81.0319 19.6828C80.3466 19.6828 78.2908 19.8539 76.749 19.8539C76.4064 19.8539 76.2351 19.8539 75.8924 19.8539C75.7211 19.8539 75.3785 19.8539 75.3785 19.8539C75.0359 19.8539 74.8645 19.6828 74.6932 19.5116C74.5219 19.5116 74.3506 19.5116 74.3506 19.5116C74.1793 19.5116 74.008 19.5116 74.008 19.6828C73.3227 19.8539 72.6374 20.3674 72.1235 21.052C71.6096 21.7367 71.2669 22.4213 71.0956 23.2771C70.9243 24.304 70.753 25.331 70.753 26.8714C70.753 27.8983 70.9243 28.9253 71.4382 29.9522C71.9522 30.9791 72.6374 32.1772 73.8367 33.3753C74.8645 34.5734 75.7211 35.4292 76.0637 36.285C76.5777 37.1408 76.749 37.9966 76.749 38.8524C76.749 40.0505 76.2351 40.9062 75.8924 41.4197C76.749 41.4197 77.4343 41.2485 77.9482 40.9062C78.1195 40.7351 78.4622 40.5639 78.6335 40.3928C79.6614 39.537 80.004 38.51 80.004 37.8254C80.004 36.7985 80.004 35.9427 79.8327 35.2581C79.6614 34.5734 79.3187 33.8888 78.9761 33.2042C78.8048 33.033 78.8048 32.6907 78.6335 32.5195C78.4622 32.1772 78.1195 31.8349 77.9482 31.6638C77.2629 30.808 76.749 29.9522 76.749 29.0964H77.2629C77.2629 29.781 77.7769 30.4657 78.4621 31.3214C78.6335 31.6638 78.9761 32.0061 79.1474 32.3484C79.3187 32.5195 79.49 32.8619 79.49 33.033C79.8327 33.7176 80.1753 34.4023 80.3466 35.0869C80.5179 35.7715 80.6892 36.6273 80.5179 37.6543C80.6892 37.6543 80.8606 37.6543 80.8606 37.4831C81.0319 37.3119 81.2032 37.3119 81.3745 37.1408C81.5458 36.9696 81.7171 36.7985 81.8884 36.6273C82.5737 35.7715 82.745 34.7446 82.745 34.06C82.745 33.8888 82.745 33.8888 82.745 33.7176C82.5737 31.6638 81.3745 29.781 80.3466 28.4118C79.6614 27.556 79.3187 26.8714 79.1474 26.1867L79.6614 26.0156C79.8327 26.5291 80.1753 27.2137 80.8606 28.0695C81.7171 29.4387 82.9163 30.9791 83.259 32.6907C84.8008 31.4926 84.4582 29.6099 84.4582 28.4118C84.2869 28.0695 83.6016 26.7002 83.0876 26.0156C82.9163 25.8444 82.9163 25.8444 82.745 25.6733C82.2311 25.1598 81.7171 24.6463 81.3745 22.5924L81.8884 22.4213C82.2311 24.1329 82.745 24.6463 83.0876 25.1598C83.259 25.331 83.259 25.331 83.4303 25.5021C83.9442 26.0156 84.4582 27.2137 84.8008 27.7272C85.1434 27.2137 85.4861 26.7002 85.6574 26.1867C85.8287 25.5021 86 24.8175 86 23.7905C86 22.2501 84.9721 20.7097 83.6016 20.0251ZM3.42629 54.4276C3.42629 54.2565 3.42629 53.9142 3.25498 53.743C3.25498 53.5718 3.25498 53.4007 3.25498 53.4007C2.56972 53.4007 0 53.4007 0 55.7969C0.342629 55.6257 0.685259 55.4546 1.1992 55.4546C1.71315 55.4546 2.39841 55.4546 3.25498 55.6257C3.25498 55.4546 3.42629 55.1123 3.42629 54.4276ZM5.31076 61.7874C5.31076 61.7874 5.31076 61.6162 5.13944 61.6162L4.96813 61.4451C4.79681 61.2739 4.45418 61.1027 4.28287 60.9316C3.94024 61.1027 3.08367 61.4451 2.56972 62.1297C2.56972 62.3008 2.39841 62.3008 2.39841 62.472C2.39841 62.6432 2.39841 62.6432 2.39841 62.8143C2.39841 63.3278 2.39841 64.0124 2.56972 64.5259C2.91235 64.1836 3.76892 63.4989 5.31076 63.4989C5.48207 62.9855 5.48207 62.1297 5.31076 61.7874ZM33.749 19.6828C33.749 19.8539 33.749 20.0251 33.749 20.3674C33.9203 20.7097 34.0916 21.2232 34.4343 21.9078C34.6056 21.9078 34.7769 21.7367 34.9482 21.7367C34.9482 21.7367 34.9482 21.7367 35.1195 21.7367V21.5655C35.1195 20.8809 35.2908 20.3674 35.4622 19.8539H35.2908C35.1195 19.8539 34.7769 19.8539 34.4343 19.8539C34.0916 19.6828 33.9203 19.6828 33.749 19.6828ZM59.2749 24.304C58.5896 23.7905 58.4183 22.9348 58.247 22.079C58.0757 21.7367 58.0757 21.2232 57.9044 20.8809C57.5618 20.1963 57.3904 19.6828 56.8765 19.1693C56.5339 18.6558 55.8486 18.3135 55.1633 17.8001C54.1355 17.1154 53.1076 16.7731 52.0797 16.7731C51.9084 16.7731 51.7371 16.7731 51.5657 16.7731C51.3944 16.7731 51.3944 16.7731 51.2231 16.7731C51.2231 17.1154 51.2231 17.2866 51.2231 17.6289C51.2231 18.6558 51.2231 19.8539 51.7371 20.1963C51.9084 20.5386 52.251 20.7097 52.7649 20.8809C53.1076 21.052 53.6215 21.052 54.3068 21.2232H54.6494V21.5655C54.6494 21.5655 54.3068 22.5925 53.6215 23.2771C54.6494 23.6194 55.506 24.1329 56.1912 24.8175C57.0478 25.5021 57.5618 26.5291 58.247 27.8983C58.4183 28.0695 58.4183 28.4118 58.5896 28.5829C62.3586 28.2406 62.8725 26.0156 62.8725 25.1598C61.1594 25.1598 60.1315 25.1598 59.2749 24.304ZM37.8606 37.1408C39.745 36.7985 42.1434 36.7985 42.4861 36.7985C42.6574 36.7985 44.5418 36.4562 46.255 36.4562C48.1394 36.4562 50.8805 37.3119 52.5936 38.3389C52.9363 38.51 53.2789 38.6812 53.6215 39.0235C53.7928 39.1947 53.9641 39.1947 53.9641 39.3658C53.4502 37.3119 51.2231 35.2581 48.8247 34.2311C48.3108 33.8888 47.7968 33.7176 47.2829 33.5465C46.7689 33.3753 46.255 33.2042 45.741 33.2042C45.5697 33.2042 45.3984 33.2042 45.3984 33.2042C43.5139 33.2042 40.7729 33.7176 38.2032 34.2311C37.6892 34.4023 37.1753 34.5734 36.6614 34.5734C36.1474 34.7446 35.6335 34.9157 35.1195 35.0869C34.9482 35.0869 34.7769 35.2581 34.6056 35.2581C33.749 35.6004 33.0637 35.6004 32.3785 35.7715C31.6932 35.7715 30.8367 35.9427 29.8088 35.7715C28.9522 35.7715 28.0956 35.7715 27.5817 35.7715C27.753 36.4562 27.9243 36.9696 28.0956 37.3119C28.4382 37.8254 28.7809 37.9966 29.2948 38.3389C29.4661 38.51 29.4661 38.51 29.6374 38.51C30.1514 38.8524 30.494 39.1947 31.5219 39.1947C33.2351 39.1947 34.0916 38.6812 34.9482 38.1677C35.8048 37.9966 36.49 37.4831 37.8606 37.1408ZM57.3904 28.0695C56.8765 26.7002 56.1912 25.8444 55.506 25.1598C54.8207 24.4752 53.9641 23.9617 52.9363 23.6194C52.251 24.1329 51.3944 24.4752 50.1952 24.4752C50.3665 24.9886 50.8805 26.3579 53.4502 26.1867H53.7928V26.5291C53.7928 26.5291 53.6215 28.0695 52.4223 29.0964C52.251 29.2676 52.0797 29.4387 51.9084 29.4387C52.0797 29.4387 52.0797 29.4387 52.251 29.4387C52.5936 29.4387 52.9363 29.6099 53.2789 29.781C54.992 30.6368 57.0478 32.5195 57.7331 34.4023C57.9044 34.9157 58.0757 35.2581 58.247 35.6004C58.761 35.6004 60.6454 35.6004 62.0159 34.5734C63.0438 33.7176 63.2151 32.5195 63.3865 32.1772C62.0159 32.1772 60.988 32.0061 59.9602 31.4926C58.9323 30.4657 58.0757 29.6099 57.3904 28.0695ZM39.4024 29.781H39.2311C39.0598 29.781 38.8884 29.9522 38.7171 29.9522C37.8606 30.2945 36.3187 31.1503 35.1195 31.8349C34.2629 32.3484 33.2351 32.6907 31.6932 32.8619C30.1514 33.2042 28.2669 33.2042 25.3546 33.3753C25.012 33.3753 24.498 33.3753 24.1554 33.3753C24.1554 33.8888 23.9841 35.0869 24.498 35.6004C24.6693 35.7715 24.6693 35.9427 24.8406 36.1138C25.012 36.4562 25.1833 36.6273 25.5259 36.7985C25.5259 36.7985 25.6972 36.7985 25.6972 36.9696C25.6972 36.9696 25.8685 36.9696 26.0398 37.1408C26.3825 37.3119 26.8964 37.3119 27.4104 37.3119C27.239 36.9696 27.0677 36.4562 26.8964 35.7715V35.4292H27.239C27.239 35.4292 28.0956 35.4292 29.6374 35.4292C30.494 35.4292 31.3506 35.4292 32.0359 35.4292C32.7211 35.4292 33.4064 35.2581 34.2629 34.9157C34.4343 34.9157 34.6056 34.7446 34.7769 34.7446C35.2908 34.5734 35.8048 34.4023 36.3187 34.2311C36.8327 34.06 37.3466 33.8888 37.8606 33.8888C40.4303 33.2042 43.3426 32.8619 45.2271 32.8619C45.3984 32.8619 45.5697 32.8619 45.741 32.8619C46.255 32.8619 46.7689 33.033 47.2829 33.2042C47.4542 33.2042 47.7968 33.3753 47.9681 33.5465C47.6255 33.033 46.9402 32.6907 46.9402 32.6907C46.255 30.9791 44.7131 30.4657 43.6853 30.2945C43.3426 30.1234 43.1713 30.1234 43 29.9522C42.4861 29.9522 41.9721 29.9522 41.4582 29.9522C40.6016 29.781 39.745 29.781 39.4024 29.781ZM7.19522 48.4371C7.53785 48.4371 8.73705 48.4371 8.90837 47.0679C8.56574 46.7256 6.68127 44.8428 4.79681 46.5544C5.48207 46.7256 5.8247 47.0679 6.33865 47.4102C6.50996 47.5814 6.85259 48.0948 7.19522 48.4371ZM61.3307 37.8254C61.1594 37.8254 60.988 37.8254 60.8167 37.8254C60.6454 37.8254 60.4741 37.8254 60.3028 37.8254C59.6175 37.6543 58.9323 37.3119 58.5896 36.7985C58.0757 36.285 57.7331 35.6004 57.3904 34.5734C56.7052 32.8619 54.8207 30.9791 53.1076 30.1234C52.7649 29.9522 52.4223 29.781 52.251 29.781C51.9084 29.781 51.7371 29.6099 51.5657 29.781C51.3944 29.781 51.3944 29.9522 51.2231 29.9522C50.7092 30.1234 50.1952 30.2945 49.3386 30.2945C50.1952 31.1503 51.9084 32.8619 51.3944 35.2581C53.2789 36.6273 54.6494 38.3389 54.6494 40.2216C54.8207 40.5639 54.992 40.7351 55.1633 40.9062C56.5339 41.2485 57.9044 41.5909 59.1036 41.5909C60.3028 41.5909 61.3307 41.2485 62.0159 40.7351C63.2151 39.7081 63.5578 38.6812 63.7291 37.9966C63.0438 37.8254 62.1872 37.8254 61.3307 37.8254ZM13.3626 44.5005C13.5339 44.6717 13.8765 44.6717 14.2191 44.8428C14.5618 44.8428 14.9044 45.014 15.247 45.014C15.4183 45.014 15.5896 45.014 15.5896 45.014C16.6175 45.014 17.6454 44.6717 18.8446 44.1582C19.8725 43.6447 21.0717 43.1313 22.2709 42.2755C20.5578 41.2486 20.3865 40.0505 20.3865 39.3658C19.5299 39.7081 18.8446 40.0505 18.1594 40.3928C17.4741 40.7351 16.9602 41.0774 16.4462 41.2486C14.5618 41.9332 12.506 42.1043 11.6494 42.1043C11.8207 42.9601 12.3347 43.9871 13.3626 44.5005ZM5.99602 29.0964C5.48207 29.6099 4.45418 29.781 3.59761 29.781C3.42629 29.781 3.25498 29.781 3.08367 29.781C4.28287 32.0061 6.33865 31.4926 7.0239 31.3214C7.0239 29.6099 6.33865 29.2676 5.99602 29.0964ZM17.988 36.9696C17.4741 37.4831 16.7888 37.8254 16.1036 37.9966C15.4183 38.1677 14.9044 38.1677 14.3904 38.3389C13.8765 38.3389 13.0199 38.3389 12.506 38.3389C12.506 39.0235 13.0199 40.5639 15.0757 41.2486C15.4183 41.0774 15.9323 41.0774 16.2749 40.9062C16.6175 40.7351 17.3028 40.3928 17.8167 40.0505C18.502 39.7081 19.5299 39.1947 20.3865 38.8524V38.6812H20.5578C20.7291 38.51 21.0717 38.3389 21.243 38.1677C21.5857 37.9966 21.9283 37.8254 22.2709 37.6543C22.6135 37.4831 23.1275 37.3119 23.4701 37.1408C23.9841 36.9696 24.498 36.7985 24.8406 36.6273C24.6693 36.4562 24.6693 36.285 24.498 36.285C24.3267 36.1138 24.3267 35.9427 24.1554 35.9427C24.1554 35.7715 23.9841 35.7715 23.9841 35.6004C22.7849 35.7715 21.9283 35.4292 21.4143 34.9157C21.4143 34.9157 21.243 34.9157 21.0717 34.9157C20.9004 34.9157 20.7291 35.0869 20.5578 35.0869C19.8725 35.7715 18.502 36.4562 17.988 36.9696ZM25.012 37.8254C25.3546 37.6543 25.6972 37.4831 25.8685 37.4831C25.6972 37.4831 25.6972 37.4831 25.5259 37.3119C25.5259 37.3119 25.3546 37.3119 25.3546 37.1408C25.012 37.1408 24.3267 37.3119 23.6414 37.6543C23.2988 37.8254 22.9562 37.9966 22.4422 38.1677C22.0996 38.3389 21.757 38.51 21.4143 38.6812C21.243 38.6812 21.243 38.8524 21.243 38.8524C21.4143 38.8524 21.5857 38.8524 21.757 38.8524C22.9562 38.8524 24.1554 38.3389 25.012 37.8254ZM22.7849 42.1043C22.9562 42.1043 23.2988 42.1043 24.498 41.9332H24.8406C25.8685 41.762 27.239 41.5909 30.3227 40.3928C30.8367 40.2216 31.3506 40.0505 31.6932 39.8793H31.8645C31.6932 39.8793 31.6932 39.8793 31.5219 39.8793C30.3227 39.8793 29.9801 39.537 29.2948 39.1947C29.1235 39.1947 29.1235 39.0235 28.9522 39.0235C28.4382 38.6812 27.9243 38.3389 27.5817 37.8254C27.4104 37.8254 27.239 37.8254 26.8964 37.8254C26.8964 37.8254 26.8964 37.8254 26.7251 37.8254C26.3825 37.8254 25.6972 38.1677 25.012 38.51C23.9841 39.0235 22.7849 39.537 21.5857 39.537C21.243 39.537 20.7291 39.537 20.5578 39.537C20.7291 39.8793 20.9004 41.2486 22.7849 42.1043Z" fill="black"/>
<path d="M101 13.5H100.147V95.1835H101V13.5Z" fill="#010101"/>
</g>
<defs>
<clipPath id="clip0">
<rect width="101" height="108" fill="white"/>
</clipPath>
</defs>
</svg>
