<svg width="48" height="48" viewBox="0 0 48 48" fill="none" xmlns="http://www.w3.org/2000/svg">
<path d="M24 42.9616C19.6743 41.7821 16.0929 39.236 13.2557 35.3232C10.4186 31.4104 9 27.036 9 22.2001V10.6925L24 5.07715L38.9999 10.6925V22.2001C38.9999 27.036 37.5813 31.4104 34.7441 35.3232C31.907 39.236 28.3256 41.7821 24 42.9616Z" fill="white"/>
<mask id="mask0_6813_94440" style="mask-type:alpha" maskUnits="userSpaceOnUse" x="0" y="0" width="48" height="48">
<rect width="48" height="48" fill="#D9D9D9"/>
</mask>
<g mask="url(#mask0_6813_94440)">
<path d="M21.9 30.4078L32.5076 19.8001L30.3692 17.6617L21.9 26.1309L17.6615 21.8925L15.5231 24.0309L21.9 30.4078ZM24 42.9616C19.6743 41.7821 16.0929 39.236 13.2558 35.3232C10.4186 31.4104 9 27.036 9 22.2001V10.6925L24 5.07715L38.9999 10.6925V22.2001C38.9999 27.036 37.5813 31.4104 34.7442 35.3232C31.907 39.236 28.3256 41.7821 24 42.9616Z" fill="#D04925"/>
</g>
</svg>
