<svg width="70" height="70" viewBox="0 0 70 70" fill="none" xmlns="http://www.w3.org/2000/svg">
<g clip-path="url(#clip0_467_24691)">
<path d="M50.645 50.73C58.9293 50.73 65.645 44.0143 65.645 35.73C65.645 27.4457 58.9293 20.73 50.645 20.73C42.3607 20.73 35.645 27.4457 35.645 35.73C35.645 44.0143 42.3607 50.73 50.645 50.73Z" fill="#F0F3F9"/>
<path d="M4.66503 26.73V50.73C4.64503 54.05 7.33503 56.73 10.645 56.73H50.645V26.73H4.66503Z" fill="white"/>
<path d="M24.645 56.73H50.645V26.73H4.66503V50.73C4.64503 54.05 7.33503 56.73 10.645 56.73H18.645" stroke="#2A5082" stroke-miterlimit="10"/>
<path d="M4.64502 50.73C4.64502 47.65 7.33502 44.73 10.645 44.73V20.73C7.33502 20.73 4.64502 23.65 4.64502 26.73V50.73Z" fill="white" stroke="#2A5082" stroke-miterlimit="10"/>
<path fill-rule="evenodd" clip-rule="evenodd" d="M19.6452 19.5799C19.1452 12.5799 24.1552 6.24988 30.9452 5.37988V5.36988C38.8852 4.34988 45.6452 10.6799 45.6452 18.6199C45.6452 23.6127 42.9072 26.9345 40.0125 30.4465C36.8776 34.25 33.5588 38.2764 33.3352 44.8899C33.3252 45.2899 33.0152 45.6099 32.6252 45.6099C32.2352 45.6099 31.9252 45.2899 31.9152 44.8899C31.6898 38.2777 28.3736 34.2522 25.241 30.4496C22.5368 27.1671 19.9695 24.0507 19.6452 19.5799ZM32.645 22.8399C34.855 22.8399 36.645 21.0299 36.645 18.7899C36.645 16.5499 34.855 14.7399 32.645 14.7399C30.435 14.7399 28.645 16.5499 28.645 18.7899C28.645 21.0299 30.435 22.8399 32.645 22.8399Z" fill="#F1471D"/>
<path d="M28.9452 4.37988C22.1552 5.24988 17.1452 11.5799 17.6452 18.5799C18.3452 28.2299 29.4952 31.5699 29.9152 43.8899C29.9252 44.2899 30.2352 44.6099 30.6252 44.6099C31.0152 44.6099 31.3252 44.2899 31.3352 43.8899C31.7652 31.1699 43.6452 28.0199 43.6452 17.6199C43.6452 9.67988 36.8852 3.34988 28.9452 4.36988V4.37988Z" stroke="#2A5082" stroke-miterlimit="10"/>
<path d="M34.645 17.7902C34.645 20.0302 32.855 21.8402 30.645 21.8402C28.435 21.8402 26.645 20.0302 26.645 17.7902C26.645 15.5502 28.435 13.7402 30.645 13.7402C32.855 13.7402 34.645 15.5502 34.645 17.7902Z" fill="white" stroke="#2A5082" stroke-miterlimit="10"/>
<path d="M47.645 15.73H54.645C57.955 15.73 60.645 18.42 60.645 21.73V37.73" stroke="#2A5082" stroke-miterlimit="10"/>
<path d="M55.645 32.73L60.645 37.73L65.645 32.73" stroke="#2A5082" stroke-miterlimit="10"/>
<path d="M49.645 65.73H60.645V52.73" stroke="#2A5082" stroke-miterlimit="10"/>
<path d="M21.645 42.73V59.73C21.645 63.04 24.335 65.73 27.645 65.73H43.645" stroke="#2A5082" stroke-miterlimit="10"/>
<path d="M26.645 47.73L21.645 42.73L16.645 47.73" stroke="#2A5082" stroke-miterlimit="10"/>
<path d="M60.645 40.73V42.73" stroke="#2A5082" stroke-miterlimit="10"/>
<path d="M60.645 44.73V46.73" stroke="#2A5082" stroke-miterlimit="10"/>
<path d="M60.645 48.73V50.73" stroke="#2A5082" stroke-miterlimit="10"/>
<path d="M47.645 65.73H45.645" stroke="#2A5082" stroke-miterlimit="10"/>
</g>
<defs>
<clipPath id="clip0_467_24691">
<rect width="62.71" height="63.46" fill="white" transform="translate(3.64502 3.27002)"/>
</clipPath>
</defs>
</svg>
