<svg width="70" height="70" viewBox="0 0 70 70" fill="none" xmlns="http://www.w3.org/2000/svg">
<g clip-path="url(#clip0_467_24530)">
<g clip-path="url(#clip1_467_24530)">
<path d="M26 46C37.0457 46 46 37.0457 46 26C46 14.9543 37.0457 6 26 6C14.9543 6 6 14.9543 6 26C6 37.0457 14.9543 46 26 46Z" fill="#F0F3F9"/>
<path d="M33 30C33 26.04 40.25 24 44 24C47.75 24 55 26.04 55 30V42.08C55 44.41 53.33 46 51 46H50V64H21V53.9062H20C17.67 53.9062 16 52.3163 16 49.9863V37.9062C16 33.9463 23.25 31.9062 27 31.9062C28.6324 31.9062 30.9279 32.2928 33 33.056V30Z" fill="white"/>
<path d="M46 25C42.25 25 35 27.04 35 31V43.08C35 45.41 36.67 47 39 47H40V65H52V47H53C55.33 47 57 45.41 57 43.08V31C57 27.04 49.75 25 46 25Z" fill="white"/>
<path d="M29 32.9062C25.25 32.9062 18 34.9462 18 38.9062V50.9863C18 53.3163 19.67 54.9062 22 54.9062H23V72.9062H35V54.9062H36C38.33 54.9062 40 53.3163 40 50.9863V38.9062C40 34.9462 32.75 32.9062 29 32.9062Z" fill="#FCD205"/>
<path d="M34 53.9863C36.33 53.9863 38 52.3163 38 49.9863V37.9062C38 33.9462 30.75 31.9062 27 31.9062C23.25 31.9062 16 33.9462 16 37.9062V49.9863C16 52.3163 17.67 53.9863 20 53.9863" stroke="#3E4F79" stroke-miterlimit="10"/>
<path d="M27 28.9C29.79 28.9 32 26.62 32 23.8V22.1C32 19.28 29.79 17 27 17C24.21 17 22 19.28 22 22.1V23.8C22 26.62 24.21 28.9 27 28.9Z" fill="white" stroke="#3E4F79" stroke-miterlimit="10"/>
<path d="M51 46.0322C53.33 46.0322 55 44.3222 55 41.9922V29.9122C55 25.9522 47.75 23.9922 44 23.9922H40" stroke="#3E4F79" stroke-miterlimit="10"/>
<path d="M50 64V34" stroke="#3E4F79" stroke-miterlimit="10"/>
<path d="M44 20.9C46.79 20.9 49 18.62 49 15.8V14.1C49 11.28 46.79 9 44 9C41.21 9 39 11.28 39 14.1V15.8C39 18.62 41.21 20.9 44 20.9Z" fill="white" stroke="#3E4F79" stroke-miterlimit="10"/>
<path d="M33 71.9062V41.9062" stroke="#3E4F79" stroke-miterlimit="10"/>
<path d="M21 41.9062V71.9062" stroke="#3E4F79" stroke-miterlimit="10"/>
<path d="M27 52.9062V71.9062" stroke="#3E4F79" stroke-miterlimit="10"/>
</g>
</g>
<defs>
<clipPath id="clip0_467_24530">
<rect width="58" height="58" fill="white" transform="translate(6 6)"/>
</clipPath>
<clipPath id="clip1_467_24530">
<rect width="58" height="58" fill="white" transform="translate(6 6)"/>
</clipPath>
</defs>
</svg>
