<svg width="70" height="70" viewBox="0 0 70 70" fill="none" xmlns="http://www.w3.org/2000/svg">
<g clip-path="url(#clip0_467_24591)">
<path d="M25.245 49.02C37.3953 49.02 47.245 39.1703 47.245 27.02C47.245 14.8698 37.3953 5.02002 25.245 5.02002C13.0947 5.02002 3.245 14.8698 3.245 27.02C3.245 39.1703 13.0947 49.02 25.245 49.02Z" fill="#F0F3F9"/>
<path d="M45.8446 46.1099C48.0537 46.1099 49.8446 44.319 49.8446 42.1099C49.8446 39.9007 48.0537 38.1099 45.8446 38.1099C43.6355 38.1099 41.8446 39.9007 41.8446 42.1099C41.8446 44.319 43.6355 46.1099 45.8446 46.1099Z" stroke="#3E4F79" stroke-miterlimit="10" stroke-linecap="round"/>
<path d="M57.8446 56.1099C55.6346 56.1099 53.8446 54.3199 53.8446 52.1099C53.8446 49.8999 55.6346 48.1099 57.8446 48.1099C60.0546 48.1099 61.8446 49.8999 61.8446 52.1099C61.8446 54.3199 60.0546 56.1099 57.8446 56.1099Z" stroke="#3E4F79" stroke-miterlimit="10" stroke-linecap="round"/>
<path d="M43.8446 56.1099L59.8446 38.1099" stroke="#3E4F79" stroke-miterlimit="10" stroke-linecap="round"/>
<path d="M29.9452 34.79H31.9452" stroke="#3E4F79" stroke-miterlimit="10"/>
<path d="M33.9452 34.79H35.9452" stroke="#3E4F79" stroke-miterlimit="10"/>
<path d="M37.9452 34.79H39.9452" stroke="#3E4F79" stroke-miterlimit="10"/>
<path d="M15.9849 52.9897C16.6149 54.9897 17.9149 55.7797 19.2049 55.7797C20.3549 55.7797 29.9449 55.7797 29.9449 55.7797V44.4697H17.9049C17.9049 44.4697 15.5649 51.6497 15.9849 52.9897Z" fill="white"/>
<path fill-rule="evenodd" clip-rule="evenodd" d="M17.4409 44.304L17.5475 43.9697H30.4553V56.2797H19.2153C17.5546 56.2797 16.1541 55.1646 15.5228 53.1315L15.5218 53.1284C15.4419 52.8767 15.4385 52.3642 15.5399 51.6119C15.6374 50.8878 15.819 50.0233 16.0408 49.1231C16.4839 47.3245 17.077 45.4254 17.4409 44.304ZM29.4553 55.2697V44.9697H18.2781L18.1682 45.3201C17.6855 46.8586 17.2248 48.4973 16.9016 49.8443C16.7401 50.5171 16.6114 51.1238 16.5318 51.6119C16.492 51.8556 16.4634 52.0764 16.4496 52.2648C16.4367 52.443 16.4338 52.6295 16.4647 52.7865L16.47 52.8132L16.4782 52.8393C16.9345 54.2952 17.8831 55.2697 19.2153 55.2697H29.4553Z" fill="#3E4F79"/>
<path d="M16.2746 53.74C15.7746 52.3 16.6046 50.54 17.5946 48.83L23.7446 38.2L26.1846 39.61L23.1846 27L10.7546 30.7L13.3746 32.21C12.3746 33.94 10.4146 37.29 9.77462 38.44C8.97462 39.88 9.10462 41.19 10.1546 43.02L16.2746 53.74Z" fill="white"/>
<path d="M18.2746 54.74C17.7746 53.3 18.6046 51.54 19.5946 49.83L25.7446 39.2L28.1846 40.61L25.1846 28L12.7546 31.7L15.3746 33.21C14.3746 34.94 12.4146 38.29 11.7746 39.44C10.9746 40.88 11.1046 42.19 12.1546 44.02L18.2746 54.74Z" fill="#5E984B"/>
<path d="M13.0854 34.6899C12.9038 35.0028 12.7178 35.3232 12.5326 35.642L13.0854 34.6899Z" fill="#3E4F79"/>
<path fill-rule="evenodd" clip-rule="evenodd" d="M12.6892 32.3878L9.49414 30.5402L23.5512 26.3599L26.9408 40.6177L23.9222 38.8771L18.0324 49.0799C17.6199 49.7942 17.1982 50.5792 16.9284 51.3326C16.7195 51.9162 16.5261 52.6138 16.5966 53.1958L16.3505 53.9067L15.8739 54.0278L9.72963 43.262L9.72853 43.2601C9.13133 42.2247 8.82705 41.3439 8.77041 40.541C8.71442 39.7473 8.89769 38.9906 9.34222 38.1932C9.599 37.7322 10.0704 36.9169 10.6068 35.9893C10.9859 35.3338 11.3974 34.6221 11.7885 33.9397L11.7892 33.9386L12.6892 32.3878ZM25.4303 38.5727L23.5582 37.4926L17.1585 48.5599C16.7423 49.2832 16.3577 50.0067 16.0818 50.7202L15.7025 51.701L10.5934 42.7517L10.5923 42.7497C10.0643 41.8435 9.79545 41.1053 9.75506 40.435C9.71363 39.7477 9.91579 39.1915 10.2088 38.6663L10.2099 38.6643C10.5664 38.0324 11.3265 36.7234 12.0995 35.3922L14.0608 32.0133L12.0051 30.8327L22.313 27.7706L22.8116 27.6332L22.9418 28.1142L25.4303 38.5727Z" fill="#3E4F79"/>
<path d="M29.6586 10.0308C27.6116 9.57636 26.2774 10.3072 25.6324 11.4244C25.0574 12.4203 20.2624 20.7255 20.2624 20.7255L30.0571 26.3805L36.0771 15.9535C36.0771 15.9535 31.0291 10.337 29.6586 10.0308Z" fill="white"/>
<path fill-rule="evenodd" clip-rule="evenodd" d="M36.4528 15.6343L36.689 15.8938L30.2351 27.0723L19.5743 20.9173L25.1943 11.1831C26.0247 9.74492 27.6906 9.08965 29.767 9.5595L29.7702 9.56019C30.0281 9.6168 30.4736 9.87014 31.0744 10.334C31.6528 10.7806 32.3107 11.3701 32.9794 12.0122C34.3155 13.2954 35.6635 14.7585 36.4528 15.6343ZM20.949 20.5562L29.869 25.7062L35.4576 16.0265L35.2092 15.7562C34.1181 14.5689 32.9293 13.3505 31.9244 12.3971C31.4224 11.9209 30.9614 11.5061 30.5785 11.1931C30.3873 11.0368 30.2104 10.9016 30.0541 10.7955C29.9063 10.6952 29.7462 10.5994 29.5948 10.5477L29.569 10.5389L29.5424 10.533C28.0534 10.2002 26.7351 10.5345 26.069 11.6881L20.949 20.5562Z" fill="#3E4F79"/>
<path d="M28.8642 9.90654C30.3612 10.1935 31.4704 11.7923 32.4564 13.5047L38.5872 24.1458L36.1461 25.5539L48.5667 29.2608L51.5774 16.6461L48.9597 18.1601C47.9615 16.429 46.0403 13.0566 45.3644 11.9274C44.5173 10.5146 43.3178 9.97214 41.208 9.96647L28.8642 9.90654Z" fill="white"/>
<path d="M30.998 10.1385C32.495 10.4255 33.6042 12.0243 34.5901 13.7366L40.721 24.3777L38.2799 25.7858L50.7005 29.4927L53.7112 16.878L51.0935 18.392C50.0953 16.661 48.1741 13.2886 47.4981 12.1593C46.6511 10.7465 45.4516 10.2041 43.3417 10.1984L30.998 10.1385Z" fill="#5E984B"/>
<path d="M46.9565 16.6697C46.7763 16.356 46.5918 16.0347 46.4083 15.7149L46.9565 16.6697Z" fill="#3E4F79"/>
<path fill-rule="evenodd" clip-rule="evenodd" d="M49.1483 17.4777L52.3458 15.6344L48.9376 29.8984L34.8952 25.705L37.9118 23.961L32.0208 13.7589C31.6085 13.0445 31.1396 12.2868 30.6219 11.6765C30.221 11.2037 29.7136 10.6874 29.1743 10.4575L28.6817 9.88891L28.8151 9.41565L41.2107 9.47746L41.2129 9.47746C42.4082 9.478 43.3231 9.65484 44.0468 10.0073C44.7621 10.3556 45.3258 10.8927 45.7941 11.6764C46.065 12.1293 46.5353 12.9451 47.0704 13.8735C47.4486 14.5295 47.8592 15.2418 48.2546 15.9217L48.2553 15.9228L49.1483 17.4777ZM37.4214 25.4193L39.2928 24.338L32.9082 13.2621C32.4898 12.54 32.0556 11.8452 31.5756 11.2494L30.9159 10.4306L41.2207 10.4807L41.223 10.4807C42.2719 10.4766 43.0455 10.6128 43.6462 10.913C44.2622 11.2208 44.6428 11.674 44.9511 12.1902L44.9523 12.1923C45.3213 12.8169 46.0749 14.1297 46.8412 15.4648L48.7867 18.8527L50.837 17.6628L48.3349 28.1207L48.2046 28.6211L47.723 28.4935L37.4214 25.4193Z" fill="#3E4F79"/>
</g>
<defs>
<clipPath id="clip0_467_24591">
<rect width="63.51" height="59.96" fill="white" transform="translate(3.245 5.02002)"/>
</clipPath>
</defs>
</svg>
