<svg width="70" height="70" viewBox="0 0 70 70" fill="none" xmlns="http://www.w3.org/2000/svg">
<g clip-path="url(#clip0_467_24702)">
<path d="M30.425 63.5C43.6799 63.5 54.425 52.7548 54.425 39.5C54.425 26.2452 43.6799 15.5 30.425 15.5C17.1702 15.5 6.42505 26.2452 6.42505 39.5C6.42505 52.7548 17.1702 63.5 30.425 63.5Z" fill="#F0F3F9"/>
<path d="M39.425 24.5H30.425V37.5H39.425V24.5Z" fill="#5E984B"/>
<path d="M48.425 8.5H39.425V37.5H48.425V8.5Z" fill="#5E984B"/>
<path d="M57.425 18.5H48.425V37.5H57.425V18.5Z" fill="#5E984B"/>
<path d="M37.425 23.5H28.425V36.5H37.425V23.5Z" stroke="#2A5082" stroke-linejoin="round"/>
<path d="M46.425 7.5H37.425V36.5H46.425V7.5Z" stroke="#2A5082" stroke-linejoin="round"/>
<path d="M55.425 17.5H46.425V36.5H55.425V17.5Z" stroke="#2A5082" stroke-linejoin="round"/>
<path d="M54.425 33.5L48.2351 37.47C47.8151 36.32 46.725 35.5 45.425 35.5H39.425C38.045 35.5 35.955 33.5 34.305 33.5H28.425C26.005 33.5 23.645 35.37 22.425 36.5C20.545 38.38 16.965 42.0601 16.425 42.5C19.415 45.09 25.055 50.68 26.425 51.89C28.285 50.03 29.015 48.5 30.545 48.5H45.425C46.815 47.72 55.425 40.5 55.425 40.5C55.425 40.5 61.265 34.21 62.425 31.5C61.695 30.52 57.175 29.06 54.425 33.5Z" fill="white"/>
<path d="M35.425 41.5H45.425C47.085 41.5 48.425 40.16 48.425 38.5C48.425 36.84 47.085 35.5 45.425 35.5H39.425C38.045 35.5 35.955 33.5 34.305 33.5H28.425C26.005 33.5 23.645 35.37 22.425 36.5C20.545 38.38 16.965 42.06 16.425 42.5C19.415 45.09 25.055 50.68 26.425 51.89C28.285 50.03 29.015 48.5 30.545 48.5H45.425C46.815 47.72 55.425 40.5 55.425 40.5C55.425 40.5 61.265 34.21 62.425 31.5C61.695 30.52 57.175 29.06 54.425 33.5L48.175 37.5" stroke="#2A5082" stroke-miterlimit="10"/>
<path d="M15.6418 38.5115L9.42737 44.728L23.2254 58.5213L29.4398 52.3047L15.6418 38.5115Z" fill="white" stroke="#2A5082" stroke-miterlimit="10"/>
<path d="M15.425 44.5L17.425 46.5" stroke="#2A5082" stroke-miterlimit="10" stroke-linecap="round"/>
</g>
<defs>
<clipPath id="clip0_467_24702">
<rect width="57.15" height="57" fill="white" transform="translate(6.42505 6.5)"/>
</clipPath>
</defs>
</svg>
