<svg width="40" height="40" viewBox="0 0 40 40" fill="none" xmlns="http://www.w3.org/2000/svg">
<g clip-path="url(#clip0_467_24665)">
<path d="M18.1905 39.3648C27.1322 39.3648 34.381 32.1161 34.381 23.1744C34.381 14.2326 27.1322 6.98389 18.1905 6.98389C9.24872 6.98389 2 14.2326 2 23.1744C2 32.1161 9.24872 39.3648 18.1905 39.3648Z" fill="#F0F3F9"/>
<path d="M16.6032 26.6665V16.5078L12.2984 19.8221C11.4032 20.6475 10.8889 21.8348 10.8889 23.0792V36.1904H22.9524V33.6507C22.9524 33.6507 25.4921 32.1142 25.4921 29.2062V26.6665H16.6032Z" fill="white"/>
<path fill-rule="evenodd" clip-rule="evenodd" d="M17.2382 15.2178V26.0317H26.127V29.2063C26.127 30.8564 25.4044 32.1079 24.7062 32.93C24.3566 33.3417 24.0076 33.6528 23.7446 33.862C23.6882 33.907 23.6355 33.9474 23.5874 33.9832V36.8254H10.254V23.0793C10.254 21.6617 10.8395 20.3038 11.8681 19.3554L11.8888 19.3363L17.2382 15.2178ZM22.6238 33.1075L22.6375 33.0988C22.651 33.0901 22.6729 33.0757 22.7021 33.0557C22.7606 33.0155 22.8477 32.953 22.9539 32.8685C23.1671 32.6988 23.453 32.444 23.7383 32.108C24.31 31.4349 24.8572 30.4642 24.8572 29.2063V27.3016H15.9683V17.798L12.709 20.3074C11.9593 21.0091 11.5239 22.0174 11.5239 23.0793V35.5555H22.3175V33.2928L22.622 33.1086L22.623 33.108L22.6238 33.1075Z" fill="#3E4F79"/>
<path d="M16.6032 0.634766H31.8413L36.9207 5.71413V27.3014H16.6032C15.9048 27.3014 15.3334 26.73 15.3334 26.0316V1.90461C15.3334 1.20619 15.9048 0.634766 16.6032 0.634766Z" fill="white"/>
<path fill-rule="evenodd" clip-rule="evenodd" d="M30.5714 2.53955V6.98399H35.0159V5.71415H31.8413V2.53955H30.5714Z" fill="#3E4F79"/>
<path fill-rule="evenodd" clip-rule="evenodd" d="M31.8413 0H32.1042L32.2902 0.185964L37.3696 5.26533L37.5555 5.45129V5.71429V24.127H36.2857V5.97728L31.5783 1.26984H16.6032C16.2554 1.26984 15.9682 1.55701 15.9682 1.90476V24.127H14.6984V1.90476C14.6984 0.855692 15.5541 0 16.6032 0H31.8413ZM16.6032 27.9365V26.6667H35.6508V27.9365H16.6032Z" fill="#3E4F79"/>
<path fill-rule="evenodd" clip-rule="evenodd" d="M14.6985 16.5078V24.1269H15.9683V16.5078H14.6985ZM36.2858 16.5078V26.0316C36.2858 26.3794 35.9986 26.6665 35.6509 26.6665H16.6032V27.9364H35.6509C36.6999 27.9364 37.5556 27.0807 37.5556 26.0316V16.5078H36.2858Z" fill="#3E4F79"/>
<path fill-rule="evenodd" clip-rule="evenodd" d="M31.459 9.02955C31.7319 9.24979 31.7746 9.64953 31.5543 9.92239L25.8146 17.0335C25.6933 17.1838 25.5102 17.2707 25.317 17.2696C25.1238 17.2685 24.9416 17.1796 24.822 17.0279L22.4538 14.0247C22.2366 13.7494 22.2838 13.3501 22.5592 13.133C22.8345 12.9159 23.2338 12.9631 23.4509 13.2384L25.3264 15.6167L30.5662 9.12483C30.7864 8.85197 31.1862 8.80931 31.459 9.02955Z" fill="#3E4F79"/>
<path d="M21.2508 18.5716C19.7778 20.0446 14.0254 25.67 14.0254 25.67L19.0984 32.2923C19.0984 32.2923 21.2444 29.6954 19.8159 26.5145C19.8159 26.5145 22.3809 23.6446 23.0095 22.7748C24.4127 20.6986 22.7302 17.0923 21.2571 18.5653L21.2508 18.5716Z" fill="white"/>
<path fill-rule="evenodd" clip-rule="evenodd" d="M21.9295 18.8658C21.892 18.8735 21.8106 18.903 21.6934 19.0203C20.9541 19.7595 19.1451 21.5368 17.5239 23.1263C16.7126 23.9217 15.9474 24.671 15.385 25.2215L14.4632 26.1234C14.4632 26.1235 14.463 26.1237 14.0191 25.6697C13.5751 25.2158 13.5752 25.2158 13.5752 25.2157L14.4967 24.314C15.059 23.7637 15.8239 23.0146 16.6349 22.2195C18.2581 20.6281 20.0617 18.8561 20.7955 18.1224C21.0465 17.8714 21.34 17.6913 21.671 17.6225C22.0065 17.5527 22.3284 17.6083 22.6101 17.7425C23.1473 17.9984 23.5357 18.5327 23.7805 19.0897C24.2717 20.2075 24.3786 21.8702 23.5229 23.1364L23.5173 23.1446L23.5114 23.1527C23.1763 23.6165 22.3555 24.5762 21.643 25.394C21.2816 25.8087 20.9402 26.196 20.6891 26.4795C20.6353 26.5403 20.5856 26.5963 20.5407 26.6468C21.1451 28.2681 20.9443 29.7355 20.5787 30.8073C20.3822 31.3833 20.1371 31.8493 19.9402 32.1729C19.8415 32.3351 19.7541 32.4628 19.6897 32.5521C19.6575 32.5967 19.6309 32.6319 19.6115 32.657C19.6017 32.6696 19.5938 32.6797 19.5878 32.6872L19.5802 32.6966L19.5776 32.6998L19.5766 32.701L19.5761 32.7016C19.5759 32.7018 19.5757 32.7021 19.0857 32.2983C18.5957 31.8946 18.5955 31.8948 18.5954 31.895L18.5959 31.8943L18.6073 31.8797C18.6185 31.8653 18.6365 31.8415 18.66 31.809C18.7071 31.7438 18.7757 31.6438 18.8554 31.5128C19.0153 31.2501 19.2163 30.868 19.3769 30.3973C19.6967 29.4597 19.8529 28.1872 19.2236 26.7797L19.0556 26.4041L19.3298 26.0974L19.4404 25.9734C19.5114 25.8935 19.6137 25.7785 19.7385 25.6376C19.988 25.3558 20.3271 24.9712 20.6856 24.5598C21.4079 23.7308 22.1782 22.8274 22.4762 22.4173C23.018 21.6076 22.9842 20.4339 22.6179 19.6006C22.4333 19.1805 22.2126 18.9597 22.0639 18.8889C22.0026 18.8597 21.9624 18.8589 21.9295 18.8658Z" fill="#3E4F79"/>
<path d="M9.61902 40.0001V35.5557H24.8571V40.0001" fill="white"/>
<path fill-rule="evenodd" clip-rule="evenodd" d="M8.98413 34.9204H25.4921V39.9998H24.2222V36.1903H10.254V39.9998H8.98413V34.9204Z" fill="#3E4F79"/>
<path fill-rule="evenodd" clip-rule="evenodd" d="M13.4286 38.7303H11.5238V37.4604H13.4286V38.7303Z" fill="#3E4F79"/>
<path fill-rule="evenodd" clip-rule="evenodd" d="M8.98413 34.9204H25.4921V39.9998H24.2222V36.1903H10.254V39.9998H8.98413V34.9204Z" fill="#3E4F79"/>
</g>
<defs>
<clipPath id="clip0_467_24665">
<rect width="35.5556" height="40" fill="white" transform="translate(2)"/>
</clipPath>
</defs>
</svg>
