<svg width="40" height="40" viewBox="0 0 40 40" fill="none" xmlns="http://www.w3.org/2000/svg">
<path d="M27.2775 20.1875C27.2775 25.7104 22.8002 30.1875 17.2773 30.1875C11.7547 30.1875 7.27747 25.7104 7.27747 20.1875C7.27747 14.6646 11.7547 10.1875 17.2777 10.1875C22.8002 10.1875 27.2775 14.6646 27.2775 20.1875Z" fill="#F0F2F9"/>
<path d="M18.1539 14.6875H11.7789V8.3125H18.1539V14.6875Z" fill="white"/>
<path d="M18.1539 11.6875V14.6875H11.7789V8.3125H16.6539" stroke="#3E4F79" stroke-linecap="round" stroke-linejoin="round"/>
<path d="M13.8956 11.0122L15.2955 12.7871L18.6833 8.58711" stroke="#3E4F79" stroke-linecap="round" stroke-linejoin="round"/>
<path d="M18.1539 23.1875H11.7789V16.8125H18.1539V23.1875Z" fill="white"/>
<path d="M18.1539 20.1875V23.1875H11.7789V16.8125H16.6539" stroke="#3E4F79" stroke-linecap="round" stroke-linejoin="round"/>
<path d="M13.8956 19.5122L15.2955 21.2871L18.6833 17.0871" stroke="#3E4F79" stroke-linecap="round" stroke-linejoin="round"/>
<path d="M18.1539 31.6875H11.7789V25.3125H18.1539V31.6875Z" fill="white"/>
<path d="M18.1539 30.1875V31.6875H11.7789V25.3125H16.6539" stroke="#3E4F79" stroke-linecap="round" stroke-linejoin="round"/>
<path d="M31.774 14.1845C32.4845 14.895 32.6965 15.465 32.7225 15.761L20.8855 27.5965C19.8235 28.658 16.4285 29.4795 16.4285 29.4795C16.4285 29.4795 17.25 26.0845 18.312 25.023L30.149 13.1875C30.445 13.2135 31.015 13.4255 31.7255 14.136L31.774 14.1845Z" fill="white"/>
<path d="M31.774 14.1845C32.4845 14.895 32.6965 15.465 32.7225 15.761L20.8855 27.5965C19.8235 28.658 16.4285 29.4795 16.4285 29.4795C16.4285 29.4795 17.25 26.0845 18.312 25.023L30.149 13.1875C30.445 13.2135 31.015 13.4255 31.7255 14.136L31.774 14.1845Z" stroke="#3E4F79" stroke-linejoin="round"/>
<path d="M28.3005 15.0354L30.874 17.6089" stroke="#3E4F79" stroke-miterlimit="10"/>
<path d="M18.2546 25.0823L20.8256 27.6533" stroke="#3E4F79" stroke-miterlimit="10"/>
</svg>
