<svg width="70" height="70" viewBox="0 0 70 70" fill="none" xmlns="http://www.w3.org/2000/svg">
<path d="M49.5549 35.375C49.5549 46.4207 40.6005 55.375 29.5545 55.375C18.5094 55.375 9.55493 46.4207 9.55493 35.375C9.55493 24.3293 18.5094 15.375 29.5553 15.375C40.6005 15.375 49.5549 24.3293 49.5549 35.375Z" fill="#F0F2F9"/>
<path d="M31.3079 24.375H18.5579V11.625H31.3079V24.375Z" fill="white"/>
<path d="M31.3079 18.375V24.375H18.5579V11.625H28.3079" stroke="#3E4F79" stroke-linecap="round" stroke-linejoin="round"/>
<path d="M22.7913 17.0245L25.591 20.5742L32.3665 12.1742" stroke="#3E4F79" stroke-linecap="round" stroke-linejoin="round"/>
<path d="M31.3079 41.375H18.5579V28.625H31.3079V41.375Z" fill="white"/>
<path d="M31.3079 35.375V41.375H18.5579V28.625H28.3079" stroke="#3E4F79" stroke-linecap="round" stroke-linejoin="round"/>
<path d="M22.7913 34.0245L25.591 37.5742L32.3665 29.1742" stroke="#3E4F79" stroke-linecap="round" stroke-linejoin="round"/>
<path d="M31.3079 58.375H18.5579V45.625H31.3079V58.375Z" fill="white"/>
<path d="M31.3079 55.375V58.375H18.5579V45.625H28.3079" stroke="#3E4F79" stroke-linecap="round" stroke-linejoin="round"/>
<path d="M58.5479 23.3685C59.9689 24.7895 60.3929 25.9295 60.4449 26.5215L36.7709 50.1925C34.6469 52.3155 27.8569 53.9585 27.8569 53.9585C27.8569 53.9585 29.4999 47.1685 31.6239 45.0455L55.2979 21.3745C55.8899 21.4265 57.0299 21.8505 58.4509 23.2715L58.5479 23.3685Z" fill="white"/>
<path d="M58.5479 23.3685C59.9689 24.7895 60.3929 25.9295 60.4449 26.5215L36.7709 50.1925C34.6469 52.3155 27.8569 53.9585 27.8569 53.9585C27.8569 53.9585 29.4999 47.1685 31.6239 45.0455L55.2979 21.3745C55.8899 21.4265 57.0299 21.8505 58.4509 23.2715L58.5479 23.3685Z" stroke="#3E4F79" stroke-linejoin="round"/>
<path d="M51.6011 25.0708L56.7481 30.2178" stroke="#3E4F79" stroke-miterlimit="10"/>
<path d="M31.5095 45.1646L36.6515 50.3066" stroke="#3E4F79" stroke-miterlimit="10"/>
</svg>
