<svg width="70" height="70" viewBox="0 0 70 70" fill="none" xmlns="http://www.w3.org/2000/svg">
<g clip-path="url(#clip0_467_25845)">
<path d="M59.5045 43.8384C64.1521 30.3102 56.9529 15.576 43.4248 10.9284C29.8967 6.28088 15.1624 13.48 10.5149 27.0081C5.86737 40.5362 13.0665 55.2705 26.5946 59.918C40.1227 64.5656 54.857 57.3665 59.5045 43.8384Z" fill="#E9EAEB"/>
<path d="M39.1 56.5V52.5C39.1 52.5 43.1 50.08 43.1 45.5V27.5L26.73 25.5L20.33 30.72C18.92 32.02 18.11 33.89 18.11 35.85V56.5H39.11H39.1Z" fill="white" stroke="#2A5082" stroke-miterlimit="10"/>
<path d="M40.1 56.5H16.1V63.5H40.1V56.5Z" fill="white"/>
<path d="M16.1 63.5V56.5H40.1V63.5" stroke="#2A5082" stroke-miterlimit="10"/>
<path d="M19.1 60.5H22.1" stroke="#2A5082" stroke-miterlimit="10"/>
<path d="M53.1 9.5H32.1C31 9.5 30.1 10.4 30.1 11.5V41.5L33.1 44.5H53.1C54.2 44.5 55.1 43.6 55.1 42.5V11.5C55.1 10.4 54.2 9.5 53.1 9.5Z" fill="#5784CC"/>
<path d="M30.1 42.5H50.1C51.2 42.5 52.1 41.6 52.1 40.5V9.5C52.1 8.4 51.2 7.5 50.1 7.5H29.1C28 7.5 27.1 8.4 27.1 9.5V39.5" stroke="#2A5082" stroke-miterlimit="10"/>
<path d="M47.1 7.5H41.1V42.5H47.1V7.5Z" fill="white" stroke="#2A5082" stroke-miterlimit="10"/>
<path d="M37.1 10.5V14.5" stroke="#2A5082" stroke-miterlimit="10"/>
<path d="M37.1 16.5V20.5" stroke="#2A5082" stroke-miterlimit="10"/>
<path d="M34.42 27.7502C32.1 30.0702 23.04 38.9302 23.04 38.9302L31.03 49.3602C31.03 49.3602 34.41 45.2702 32.16 40.2602C32.16 40.2602 36.2 35.7402 37.19 34.3702C39.4 31.1002 36.75 25.4202 34.43 27.7402L34.42 27.7502Z" fill="white"/>
<path d="M23.03 38.9299C23.03 38.9299 32.09 30.0699 34.41 27.7499C36.73 25.4299 39.38 31.1099 37.17 34.3799C36.18 35.7499 32.14 40.2699 32.14 40.2699C34.38 45.2799 31.01 49.3699 31.01 49.3699" stroke="#2A5082" stroke-miterlimit="10"/>
</g>
<defs>
<clipPath id="clip0_467_25845">
<rect width="51.8" height="57" fill="white" transform="translate(9.09998 6.5)"/>
</clipPath>
</defs>
</svg>
