<svg width="70" height="70" viewBox="0 0 70 70" fill="none" xmlns="http://www.w3.org/2000/svg">
<path d="M45 50C57.1503 50 67 40.1503 67 28C67 15.8497 57.1503 6 45 6C32.8497 6 23 15.8497 23 28C23 40.1503 32.8497 50 45 50Z" fill="#F0F3F9"/>
<path d="M35 54H56C57.66 54 59 52.66 59 51V42C59 40.43 58.53 38.89 57.66 37.58L56.44 35.75C56.44 35.75 61.88 34.61 62.68 34.44C63.23 34.32 63.99 33.86 63.99 33V31C63.99 29.9 63.09 29 61.99 29H56.23C55.5 29 54.94 29.09 54.48 30.05C54.03 31 53.57 31.88 53.15 32.71C52.73 33.54 52 34.01 49 34.01H19C16 34.01 15.27 33.54 14.85 32.71C14.43 31.88 13.97 31 13.52 30.05C13.07 29.1 12.51 29 11.77 29H6C4.9 29 4 29.9 4 31V33C4 33.87 4.77 34.33 5.31 34.44C6.11 34.61 11.55 35.75 11.55 35.75L10.33 37.58C9.46 38.89 8.99 40.42 8.99 42V51C8.99 52.66 10.33 54 11.99 54H34.99H35Z" fill="white"/>
<path d="M55.7095 32.58C54.7395 29.03 52.3395 25.81 51.4795 24.73C50.6695 23.71 49.9995 23 47.9995 23H23.9995C21.9995 23 21.3295 23.71 20.5195 24.73C19.6595 25.81 17.2595 29.03 16.2895 32.58H16.2695C16.4695 32.97 16.6595 33.34 16.8395 33.7C17.2595 34.53 17.9895 35 20.9895 35H50.9895C53.9895 35 54.7195 34.53 55.1395 33.7C55.3295 33.34 55.5195 32.97 55.7095 32.59H55.6895L55.7095 32.58Z" fill="#5784CC"/>
<path d="M13 40C13 40 14 42 16 42H20" stroke="#3E4F79" stroke-miterlimit="10" stroke-linecap="round"/>
<path d="M10 53.23V58C10 58.55 10.45 59 11 59H21C21.55 59 22 58.55 22 58V54" stroke="#3E4F79" stroke-miterlimit="10" stroke-linecap="round"/>
<path d="M38 48H22" stroke="#3E4F79" stroke-miterlimit="10" stroke-linecap="round"/>
<path d="M53.71 31.58C52.74 28.03 50.34 24.81 49.48 23.73C48.67 22.71 48 22 46 22H22C20 22 19.33 22.71 18.52 23.73C17.66 24.81 15.26 28.03 14.29 31.58" stroke="#3E4F79" stroke-miterlimit="10" stroke-linecap="round"/>
<path d="M59 42C59 40.43 58.53 38.89 57.66 37.58L57 36.59L56.44 35.75C56.44 35.75 61.88 34.61 62.68 34.44C63.23 34.32 63.99 33.86 63.99 33V31C63.99 29.9 63.09 29 61.99 29H56.23C55.5 29 54.94 29.09 54.48 30.05C54.03 31 53.57 31.88 53.15 32.71C52.73 33.54 52 34.01 49 34.01H19C16 34.01 15.27 33.54 14.85 32.71C14.43 31.88 13.97 31 13.52 30.05C13.07 29.1 12.51 29 11.77 29H6C4.9 29 4 29.9 4 31V33C4 33.87 4.77 34.33 5.31 34.44C6.11 34.61 11.55 35.75 11.55 35.75L10.33 37.58C9.46 38.89 8.99 40.42 8.99 42V51C8.99 52.66 10.33 54 11.99 54H38.32" stroke="#3E4F79" stroke-linecap="round" stroke-linejoin="round"/>
<path d="M46 54C48.2091 54 50 52.2091 50 50C50 47.7909 48.2091 46 46 46C43.7909 46 42 47.7909 42 50C42 52.2091 43.7909 54 46 54Z" stroke="#3E4F79" stroke-miterlimit="10" stroke-linecap="round"/>
<path d="M58 64C55.79 64 54 62.21 54 60C54 57.79 55.79 56 58 56C60.21 56 62 57.79 62 60C62 62.21 60.21 64 58 64Z" stroke="#3E4F79" stroke-miterlimit="10" stroke-linecap="round"/>
<path d="M44 64L60 46" stroke="#3E4F79" stroke-miterlimit="10" stroke-linecap="round"/>
</svg>
